{
	"buffers":[{
		"uri":"data:application/octet-stream;base64,",
		"byteLength":560
	},
	{
		"uri":"data:application/octet-stream;base64,",
		"byteLength":172
	},
	{
		"uri":"data:application/octet-stream;base64,",
		"byteLength":172
	}],
	"asset":{
		"version":"2.0",
		"generator":"Created using the official Cinema 4D glTF Exporter 1.000x284978"
	},
	"scenes":[{
		"nodes":[0]
	}],
	"nodes":[{
		"scale":[1.0,
		1.0,
		1.0],
		"name":"נפח",
		"translation":[110.28952026367188,
		0.0,
		2525.4013671875],
		"rotation":[0.0,
		0.0,
		0.0,
		-1.0],
		"mesh":0,
		"children":[1,
		2]
	},
	{
		"scale":[1.0,
		1.0,
		1.0],
		"name":"Cap 1",
		"translation":[0.0,
		0.0,
		-2486.5],
		"rotation":[0.0,
		0.0,
		0.0,
		-1.0],
		"mesh":1
	},
	{
		"scale":[1.0,
		1.0,
		1.0],
		"name":"Cap 2",
		"translation":[0.0,
		0.0,
		-2486.5],
		"rotation":[0.0,
		0.0,
		0.0,
		-1.0],
		"mesh":2
	}],
	"meshes":[{
		"primitives":[{
			"attributes":{
				"POSITION":1,
				"NORMAL":2,
				"TEXCOORD_0":3
			},
			"indices":0,
			"material":0
		}],
		"name":"נפח"
	},
	{
		"primitives":[{
			"attributes":{
				"POSITION":5,
				"NORMAL":6,
				"TEXCOORD_0":7
			},
			"indices":4,
			"material":0
		}],
		"name":"Cap 1"
	},
	{
		"primitives":[{
			"attributes":{
				"POSITION":9,
				"NORMAL":10,
				"TEXCOORD_0":11
			},
			"indices":8,
			"material":0
		}],
		"name":"Cap 2"
	}],
	"accessors":[{
		"bufferView":0,
		"type":"SCALAR",
		"max":[15],
		"componentType":5123,
		"count":24,
		"byteOffset":0,
		"min":[0]
	},
	{
		"bufferView":1,
		"type":"VEC3",
		"max":[200.0,
		589.5164184570313,
		80.486083984375],
		"componentType":5126,
		"count":16,
		"byteOffset":0,
		"min":[0.0,
		0.0,
		-112.49791717529297]
	},
	{
		"bufferView":1,
		"type":"VEC3",
		"max":[0.0,
		1.0,
		1.0],
		"componentType":5126,
		"count":16,
		"byteOffset":12,
		"min":[0.0,
		-1.0,
		-1.0]
	},
	{
		"bufferView":1,
		"type":"VEC2",
		"max":[1.0,
		1.0],
		"componentType":5126,
		"count":16,
		"byteOffset":24,
		"min":[0.0,
		0.0]
	},
	{
		"bufferView":2,
		"type":"SCALAR",
		"max":[4],
		"componentType":5123,
		"count":6,
		"byteOffset":0,
		"min":[0]
	},
	{
		"bufferView":3,
		"type":"VEC3",
		"max":[0.0,
		589.5164184570313,
		2566.986083984375],
		"componentType":5126,
		"count":5,
		"byteOffset":0,
		"min":[0.0,
		0.0,
		2374.001953125]
	},
	{
		"bufferView":3,
		"type":"VEC3",
		"max":[-1.0,
		0.0,
		0.0],
		"componentType":5126,
		"count":5,
		"byteOffset":12,
		"min":[-1.0,
		0.0,
		0.0]
	},
	{
		"bufferView":3,
		"type":"VEC2",
		"max":[0.4999998211860657,
		1.0],
		"componentType":5126,
		"count":5,
		"byteOffset":24,
		"min":[0.0,
		0.0]
	},
	{
		"bufferView":4,
		"type":"SCALAR",
		"max":[4],
		"componentType":5123,
		"count":6,
		"byteOffset":0,
		"min":[0]
	},
	{
		"bufferView":5,
		"type":"VEC3",
		"max":[200.0,
		589.5164184570313,
		2566.986083984375],
		"componentType":5126,
		"count":5,
		"byteOffset":0,
		"min":[200.0,
		0.0,
		2374.001953125]
	},
	{
		"bufferView":5,
		"type":"VEC3",
		"max":[1.0,
		0.0,
		0.0],
		"componentType":5126,
		"count":5,
		"byteOffset":12,
		"min":[1.0,
		0.0,
		0.0]
	},
	{
		"bufferView":5,
		"type":"VEC2",
		"max":[0.4999998211860657,
		1.0],
		"componentType":5126,
		"count":5,
		"byteOffset":24,
		"min":[0.0,
		0.0]
	}],
	"bufferViews":[{
		"buffer":0,
		"byteOffset":0,
		"byteLength":48,
		"target":34963
	},
	{
		"buffer":0,
		"byteOffset":48,
		"byteLength":512,
		"target":34962,
		"byteStride":32
	},
	{
		"buffer":1,
		"byteOffset":0,
		"byteLength":12,
		"target":34963
	},
	{
		"buffer":1,
		"byteOffset":12,
		"byteLength":160,
		"target":34962,
		"byteStride":32
	},
	{
		"buffer":2,
		"byteOffset":0,
		"byteLength":12,
		"target":34963
	},
	{
		"buffer":2,
		"byteOffset":12,
		"byteLength":160,
		"target":34962,
		"byteStride":32
	}],
	"materials":[{
		"pbrMetallicRoughness":{
			"baseColorFactor":[0.8,
			0.8,
			0.8,
			1.0],
			"metallicFactor":0.13,
			"roughnessFactor":0.46
		},
		"emissiveFactor":[0.0,
		0.0,
		0.0],
		"alphaMode":"OPAQUE",
		"doubleSided":true,
		"name":"Mat.4"
	}]
}