{
	"asset":{
		"version":"2.0",
		"generator":"Created using the official Cinema 4D glTF Exporter 1.000x284978"
	},
	"scenes":[{
		"nodes":[0]
	}],
	"bufferViews":[{
		"buffer":0,
		"byteOffset":0,
		"byteLength":6020
	},
	{
		"buffer":1,
		"byteOffset":0,
		"byteLength":15960,
		"target":34963
	},
	{
		"buffer":1,
		"byteOffset":15960,
		"byteLength":47264,
		"target":34962,
		"byteStride":32
	},
	{
		"buffer":2,
		"byteOffset":0,
		"byteLength":19968,
		"target":34963
	},
	{
		"buffer":2,
		"byteOffset":19968,
		"byteLength":60000,
		"target":34962,
		"byteStride":32
	},
	{
		"buffer":3,
		"byteOffset":0,
		"byteLength":35328,
		"target":34963
	},
	{
		"buffer":3,
		"byteOffset":35328,
		"byteLength":101184,
		"target":34962,
		"byteStride":32
	}],
	"nodes":[{
		"name":"Null",
		"translation":[0.0,
		0.0,
		0.0],
		"rotation":[0.0,
		-0.80901700258255,
		0.0,
		-0.5877852439880371],
		"scale":[1.0,
		1.0,
		1.0],
		"children":[1,
		2,
		3]
	},
	{
		"name":"Sweep",
		"translation":[0.0,
		0.0,
		0.0],
		"rotation":[0.0,
		0.0,
		0.0,
		-1.0],
		"scale":[1.0,
		1.0,
		1.0],
		"mesh":0
	},
	{
		"name":"Lathe.1",
		"translation":[0.0,
		0.0,
		0.0],
		"rotation":[0.0,
		0.0,
		0.0,
		-1.0],
		"scale":[1.0,
		1.0,
		1.0],
		"mesh":1
	},
	{
		"name":"Lathe",
		"translation":[0.0,
		0.0,
		0.0],
		"rotation":[0.0,
		0.0,
		0.0,
		-1.0],
		"scale":[1.0,
		1.0,
		1.0],
		"mesh":2
	}],
	"meshes":[{
		"name":"Sweep",
		"primitives":[{
			"attributes":{
				"POSITION":3,
				"NORMAL":4,
				"TEXCOORD_0":5
			},
			"indices":2,
			"material":0
		}]
	},
	{
		"name":"Lathe.1",
		"primitives":[{
			"attributes":{
				"POSITION":7,
				"NORMAL":8,
				"TEXCOORD_0":9
			},
			"indices":6,
			"material":0
		}]
	},
	{
		"name":"Lathe",
		"primitives":[{
			"attributes":{
				"POSITION":11,
				"NORMAL":12,
				"TEXCOORD_0":13
			},
			"indices":10,
			"material":0
		}]
	}],
	"accessors":[{
		"min":[0.0],
		"count":301,
		"bufferView":0,
		"type":"SCALAR",
		"componentType":5126,
		"byteOffset":0,
		"max":[10.0]
	},
	{
		"min":[0.0,
		-1.0,
		0.0,
		-1.0],
		"count":301,
		"bufferView":0,
		"type":"VEC4",
		"componentType":5126,
		"byteOffset":1204,
		"max":[0.0,
		0.0,
		0.0,
		1.0]
	},
	{
		"min":[0],
		"count":7980,
		"bufferView":1,
		"type":"SCALAR",
		"componentType":5123,
		"byteOffset":0,
		"max":[1476]
	},
	{
		"min":[293.50091552734377,
		238.12057495117188,
		-25.180152893066408],
		"count":1477,
		"bufferView":2,
		"type":"VEC3",
		"componentType":5126,
		"byteOffset":0,
		"max":[518.3822631835938,
		578.68212890625,
		24.908428192138673]
	},
	{
		"min":[-0.9995359182357788,
		-0.9997732043266296,
		-0.9999997615814209],
		"count":1477,
		"bufferView":2,
		"type":"VEC3",
		"componentType":5126,
		"byteOffset":12,
		"max":[0.9995359778404236,
		0.9999814629554749,
		0.9999997615814209]
	},
	{
		"min":[0.0,
		0.0],
		"count":1477,
		"bufferView":2,
		"type":"VEC2",
		"componentType":5126,
		"byteOffset":24,
		"max":[1.0,
		1.0]
	},
	{
		"min":[0],
		"count":9984,
		"bufferView":3,
		"type":"SCALAR",
		"componentType":5123,
		"byteOffset":0,
		"max":[1874]
	},
	{
		"min":[-362.1251220703125,
		46.083473205566409,
		-362.1251220703125],
		"count":1875,
		"bufferView":4,
		"type":"VEC3",
		"componentType":5126,
		"byteOffset":0,
		"max":[362.1251220703125,
		689.7193603515625,
		362.1251220703125]
	},
	{
		"min":[-0.9993466734886169,
		-0.9999983906745911,
		-0.9993466734886169],
		"count":1875,
		"bufferView":4,
		"type":"VEC3",
		"componentType":5126,
		"byteOffset":12,
		"max":[0.9993466734886169,
		0.9996286034584045,
		0.9993466734886169]
	},
	{
		"min":[0.0,
		0.0],
		"count":1875,
		"bufferView":4,
		"type":"VEC2",
		"componentType":5126,
		"byteOffset":24,
		"max":[1.0,
		1.0]
	},
	{
		"min":[0],
		"count":17664,
		"bufferView":5,
		"type":"SCALAR",
		"componentType":5123,
		"byteOffset":0,
		"max":[3161]
	},
	{
		"min":[-357.9503173828125,
		1.6109691858291627,
		-357.9503173828125],
		"count":3162,
		"bufferView":6,
		"type":"VEC3",
		"componentType":5126,
		"byteOffset":0,
		"max":[357.9503173828125,
		49.7894401550293,
		357.9503173828125]
	},
	{
		"min":[-0.999042809009552,
		-0.9999904632568359,
		-0.9990426898002625],
		"count":3162,
		"bufferView":6,
		"type":"VEC3",
		"componentType":5126,
		"byteOffset":12,
		"max":[0.999042809009552,
		0.9999914169311523,
		0.9990426898002625]
	},
	{
		"min":[0.0,
		0.0],
		"count":3162,
		"bufferView":6,
		"type":"VEC2",
		"componentType":5126,
		"byteOffset":24,
		"max":[1.0,
		1.0]
	}],
	"buffers":[{
		"uri":"data:application/octet-stream;base64,",
		"byteLength":6020
	},
	{
		"uri":"data:application/octet-stream;base64,",
		"byteLength":63224
	},
	{
		"uri":"data:application/octet-stream;base64,",
		"byteLength":79968
	},
	{
		"uri":"data:application/octet-stream;base64,",
		"byteLength":136512
	}],
	"materials":[{
		"pbrMetallicRoughness":{
			"baseColorFactor":[1.0,
			0.5735,
			0.0,
			1.0],
			"metallicFactor":0.5994,
			"roughnessFactor":0.38850000000000009
		},
		"emissiveFactor":[0.0,
		0.0,
		0.0],
		"alphaMode":"OPAQUE",
		"doubleSided":true,
		"name":"Mat"
	}],
	"animations":[{
		"samplers":[{
			"input":0,
			"interpolation":"LINEAR",
			"output":1
		}],
		"channels":[{
			"sampler":0,
			"target":{
				"node":0,
				"path":"rotation"
			}
		}]
	}]
}