{
	"materials":[{
		"pbrMetallicRoughness":{
			"baseColorFactor":[1.0,
			0.0,
			0.9990000000000004,
			1.0],
			"metallicFactor":0.5994,
			"roughnessFactor":0.38850000000000009
		},
		"emissiveFactor":[0.0,
		0.0,
		0.0],
		"alphaMode":"OPAQUE",
		"doubleSided":true,
		"name":"Mat"
	}],
	"asset":{
		"version":"2.0",
		"generator":"Created using the official Cinema 4D glTF Exporter 1.000x284978"
	},
	"scenes":[{
		"nodes":[0,
		2]
	}],
	"nodes":[{
		"name":"BALL",
		"translation":[0.0,
		951.8629760742188,
		0.0],
		"rotation":[0.0,
		0.0,
		0.0,
		-1.0],
		"scale":[1.0,
		1.0,
		1.0],
		"children":[1]
	},
	{
		"name":"Sphere.311",
		"translation":[145.45045471191407,
		0.0,
		-169.22023010253907],
		"rotation":[0.0,
		-1.2246468525851679e-16,
		0.0,
		1.0],
		"scale":[1.0,
		1.0,
		1.0],
		"mesh":0
	},
	{
		"name":"Null23",
		"translation":[0.0,
		0.0,
		0.0],
		"rotation":[0.0,
		0.0,
		0.0,
		-1.0],
		"scale":[1.0,
		1.0,
		1.0],
		"children":[3]
	},
	{
		"name":"Metaball",
		"translation":[0.0,
		0.0,
		0.0],
		"rotation":[0.0,
		-5.665538686387998e-16,
		0.0,
		1.0],
		"scale":[1.0,
		1.0,
		1.0],
		"mesh":1
	}],
	"meshes":[{
		"name":"Sphere.311",
		"primitives":[{
			"attributes":{
				"POSITION":3,
				"NORMAL":4,
				"TEXCOORD_0":5
			},
			"indices":2
		}]
	},
	{
		"name":"Metaball",
		"primitives":[{
			"attributes":{
				"POSITION":11,
				"NORMAL":12
			},
			"indices":10,
			"material":0
		}]
	}],
	"accessors":[{
		"min":[0.0],
		"bufferView":0,
		"type":"SCALAR",
		"componentType":5126,
		"count":301,
		"byteOffset":0,
		"max":[10.0]
	},
	{
		"min":[0.0,
		-1.0,
		-6.955716003176349e-9,
		-1.0],
		"bufferView":0,
		"type":"VEC4",
		"componentType":5126,
		"count":301,
		"byteOffset":1204,
		"max":[6.955716003176349e-9,
		0.0,
		2.670049292774479e-9,
		1.0]
	},
	{
		"min":[0],
		"bufferView":1,
		"type":"SCALAR",
		"componentType":5123,
		"count":672,
		"byteOffset":0,
		"max":[150]
	},
	{
		"min":[-21.693546295166017,
		-21.693546295166017,
		-21.693546295166017],
		"bufferView":2,
		"type":"VEC3",
		"componentType":5126,
		"count":151,
		"byteOffset":0,
		"max":[21.693546295166017,
		21.693546295166017,
		21.693546295166017]
	},
	{
		"min":[-0.9999999403953552,
		-1.0,
		-0.9999999403953552],
		"bufferView":2,
		"type":"VEC3",
		"componentType":5126,
		"count":151,
		"byteOffset":12,
		"max":[0.9999999403953552,
		1.0,
		0.9999999403953552]
	},
	{
		"min":[0.0,
		0.0],
		"bufferView":2,
		"type":"VEC2",
		"componentType":5126,
		"count":151,
		"byteOffset":24,
		"max":[1.0,
		1.0]
	},
	{
		"min":[0.0],
		"bufferView":3,
		"type":"SCALAR",
		"componentType":5126,
		"count":301,
		"byteOffset":0,
		"max":[10.0]
	},
	{
		"min":[145.45045471191407,
		0.0,
		-169.22023010253907],
		"bufferView":3,
		"type":"VEC3",
		"componentType":5126,
		"count":301,
		"byteOffset":1204,
		"max":[145.45045471191407,
		53.00699996948242,
		-169.22023010253907]
	},
	{
		"min":[0.0],
		"bufferView":4,
		"type":"SCALAR",
		"componentType":5126,
		"count":301,
		"byteOffset":0,
		"max":[10.0]
	},
	{
		"min":[0.0,
		-1.0,
		0.0,
		-1.0],
		"bufferView":4,
		"type":"VEC4",
		"componentType":5126,
		"count":301,
		"byteOffset":1204,
		"max":[0.0,
		0.0,
		0.0,
		1.0]
	},
	{
		"min":[0],
		"bufferView":5,
		"type":"SCALAR",
		"componentType":5123,
		"count":6666,
		"byteOffset":0,
		"max":[1515]
	},
	{
		"min":[-321.9605712890625,
		403.60870361328127,
		-323.7595520019531],
		"bufferView":6,
		"type":"VEC3",
		"componentType":5126,
		"count":1516,
		"byteOffset":0,
		"max":[323.17730712890627,
		872.596435546875,
		322.5726013183594]
	},
	{
		"min":[-0.9935625195503235,
		-0.9994062781333923,
		-0.9973750710487366],
		"bufferView":6,
		"type":"VEC3",
		"componentType":5126,
		"count":1516,
		"byteOffset":12,
		"max":[0.995343804359436,
		0.9877188205718994,
		0.9965313076972961]
	}],
	"bufferViews":[{
		"buffer":0,
		"byteOffset":0,
		"byteLength":6020
	},
	{
		"buffer":1,
		"byteOffset":0,
		"byteLength":1344,
		"target":34963
	},
	{
		"buffer":1,
		"byteOffset":1344,
		"byteLength":4832,
		"target":34962,
		"byteStride":32
	},
	{
		"buffer":2,
		"byteOffset":0,
		"byteLength":4816
	},
	{
		"buffer":3,
		"byteOffset":0,
		"byteLength":6020
	},
	{
		"buffer":4,
		"byteOffset":0,
		"byteLength":13332,
		"target":34963
	},
	{
		"buffer":4,
		"byteOffset":13332,
		"byteLength":36384,
		"target":34962,
		"byteStride":24
	}],
	"buffers":[{
		"uri":"data:application/octet-stream;base64,",
		"byteLength":6020
	},
	{
		"uri":"data:application/octet-stream;base64,",
		"byteLength":6176
	},
	{
		"uri":"data:application/octet-stream;base64,",
		"byteLength":4816
	},
	{
		"uri":"data:application/octet-stream;base64,",
		"byteLength":6020
	},
	{
		"uri":"data:application/octet-stream;base64,",
		"byteLength":49716
	}],
	"animations":[{
		"samplers":[{
			"input":0,
			"interpolation":"LINEAR",
			"output":1
		},
		{
			"input":6,
			"interpolation":"LINEAR",
			"output":7
		},
		{
			"input":8,
			"interpolation":"LINEAR",
			"output":9
		}],
		"channels":[{
			"sampler":0,
			"target":{
				"node":0,
				"path":"rotation"
			}
		},
		{
			"sampler":1,
			"target":{
				"node":1,
				"path":"translation"
			}
		},
		{
			"sampler":2,
			"target":{
				"node":2,
				"path":"rotation"
			}
		}]
	}]
}