{
	"asset":{
		"version":"2.0",
		"generator":"Created using the official Cinema 4D glTF Exporter 1.000x284978"
	},
	"bufferViews":[{
		"buffer":0,
		"byteOffset":0,
		"byteLength":60
	},
	{
		"buffer":1,
		"byteOffset":0,
		"byteLength":32
	},
	{
		"buffer":2,
		"byteOffset":0,
		"byteLength":5976,
		"target":34963
	},
	{
		"buffer":2,
		"byteOffset":5976,
		"byteLength":12168,
		"target":34962,
		"byteStride":24
	},
	{
		"buffer":3,
		"byteOffset":0,
		"byteLength":6000,
		"target":34963
	},
	{
		"buffer":3,
		"byteOffset":6000,
		"byteLength":12144,
		"target":34962,
		"byteStride":24
	},
	{
		"buffer":4,
		"byteOffset":0,
		"byteLength":6000,
		"target":34963
	},
	{
		"buffer":4,
		"byteOffset":6000,
		"byteLength":12144,
		"target":34962,
		"byteStride":24
	},
	{
		"buffer":5,
		"byteOffset":0,
		"byteLength":6000,
		"target":34963
	},
	{
		"buffer":5,
		"byteOffset":6000,
		"byteLength":12192,
		"target":34962,
		"byteStride":24
	},
	{
		"buffer":6,
		"byteOffset":0,
		"byteLength":32
	},
	{
		"buffer":7,
		"byteOffset":0,
		"byteLength":5976,
		"target":34963
	},
	{
		"buffer":7,
		"byteOffset":5976,
		"byteLength":12168,
		"target":34962,
		"byteStride":24
	},
	{
		"buffer":8,
		"byteOffset":0,
		"byteLength":6000,
		"target":34963
	},
	{
		"buffer":8,
		"byteOffset":6000,
		"byteLength":12144,
		"target":34962,
		"byteStride":24
	},
	{
		"buffer":9,
		"byteOffset":0,
		"byteLength":6000,
		"target":34963
	},
	{
		"buffer":9,
		"byteOffset":6000,
		"byteLength":12144,
		"target":34962,
		"byteStride":24
	},
	{
		"buffer":10,
		"byteOffset":0,
		"byteLength":6000,
		"target":34963
	},
	{
		"buffer":10,
		"byteOffset":6000,
		"byteLength":12192,
		"target":34962,
		"byteStride":24
	}],
	"scenes":[{
		"nodes":[0]
	}],
	"nodes":[{
		"name":"אנשים",
		"translation":[41.691551208496097,
		989.5128784179688,
		11.898392677307129],
		"rotation":[0.0,
		0.0,
		0.0,
		-1.0],
		"children":[1,
		10],
		"scale":[1.0,
		1.0,
		1.0]
	},
	{
		"name":"אנשים 2",
		"translation":[0.0,
		1500.0001220703126,
		0.0],
		"rotation":[0.0,
		0.0,
		0.0,
		-1.0],
		"children":[2,
		4,
		6,
		8],
		"scale":[1.0,
		1.0,
		1.0]
	},
	{
		"name":"Polygon Reduction.2",
		"translation":[-53.046905517578128,
		-1969.0406494140626,
		-0.19893917441368104],
		"rotation":[0.005639722105115652,
		-0.005704065784811974,
		0.005704065784811974,
		-0.9999515414237976],
		"children":[3],
		"scale":[1.0,
		1.0,
		1.0]
	},
	{
		"name":"4",
		"translation":[95.07367706298828,
		2256.889404296875,
		-75.65220642089844],
		"rotation":[0.9794784188270569,
		0.02629201114177704,
		0.13973554968833924,
		0.1428450345993042],
		"scale":[1.0,
		1.0,
		1.0],
		"mesh":0
	},
	{
		"name":"Polygon Reduction",
		"translation":[-41.691551208496097,
		-2489.512939453125,
		-11.898392677307129],
		"rotation":[0.0,
		0.0,
		0.0,
		-1.0],
		"children":[5],
		"scale":[1.0,
		1.0,
		1.0]
	},
	{
		"name":"2",
		"translation":[-136.15711975097657,
		2487.70654296875,
		-181.5600128173828],
		"rotation":[0.539518415927887,
		-0.08509553223848343,
		0.8370696902275086,
		0.03151100128889084],
		"scale":[1.0,
		1.0,
		1.0],
		"mesh":1
	},
	{
		"name":"Polygon Reduction",
		"translation":[-41.691551208496097,
		-2489.512939453125,
		-11.898392677307129],
		"rotation":[0.0,
		0.0,
		0.0,
		-1.0],
		"children":[7],
		"scale":[1.0,
		1.0,
		1.0]
	},
	{
		"name":"1",
		"translation":[212.4600067138672,
		2487.70654296875,
		159.88856506347657],
		"rotation":[0.9802778363227844,
		-0.003688913071528077,
		-0.1755596548318863,
		0.09066744148731232],
		"scale":[1.0,
		1.0,
		1.0],
		"mesh":2
	},
	{
		"name":"Polygon Reduction",
		"translation":[-41.691551208496097,
		-2489.512939453125,
		-11.898392677307129],
		"rotation":[0.0,
		0.0,
		0.0,
		-1.0],
		"children":[9],
		"scale":[1.0,
		1.0,
		1.0]
	},
	{
		"name":"1",
		"translation":[-17.97519874572754,
		2207.50634765625,
		159.88856506347657],
		"rotation":[0.4536512792110443,
		0.22137175500392915,
		-0.8521474003791809,
		0.13798491656780244],
		"scale":[1.0,
		1.0,
		1.0],
		"mesh":3
	},
	{
		"name":"אנשים 1",
		"translation":[0.0,
		499.9998779296875,
		0.0],
		"rotation":[0.0,
		0.0,
		0.0,
		-1.0],
		"children":[11,
		13,
		15,
		17],
		"scale":[1.0,
		1.0,
		1.0]
	},
	{
		"name":"Polygon Reduction",
		"translation":[-41.691551208496097,
		-1489.5126953125,
		-11.898392677307129],
		"rotation":[0.0,
		0.0,
		0.0,
		-1.0],
		"children":[12],
		"scale":[1.0,
		1.0,
		1.0]
	},
	{
		"name":"Default.3",
		"translation":[108.43851470947266,
		1775.132080078125,
		-90.62355041503906],
		"rotation":[0.9795724153518677,
		0.022306596860289575,
		0.1331786960363388,
		0.14900918304920197],
		"scale":[1.0,
		1.0,
		1.0],
		"mesh":4
	},
	{
		"name":"Polygon Reduction",
		"translation":[-60.79553985595703,
		-7.806000232696533,
		-3.5502233505249025],
		"rotation":[0.004030988551676273,
		-0.004063752014189959,
		0.004063752014189959,
		-0.9999753832817078],
		"children":[14],
		"scale":[1.0,
		1.0,
		1.0]
	},
	{
		"name":"Default.2",
		"translation":[-134.93458557128907,
		0.0,
		-182.64913940429688],
		"rotation":[0.539518415927887,
		-0.08509553223848343,
		0.8370696902275086,
		0.03151100128889084],
		"scale":[1.0,
		1.0,
		1.0],
		"mesh":5
	},
	{
		"name":"Polygon Reduction",
		"translation":[-41.691551208496097,
		-1.805999994277954,
		-11.898392677307129],
		"rotation":[0.0,
		0.0,
		0.0,
		-1.0],
		"children":[16],
		"scale":[1.0,
		1.0,
		1.0]
	},
	{
		"name":"Default.1",
		"translation":[212.4600067138672,
		-1.8063398599624634,
		159.88856506347657],
		"rotation":[0.9802778363227844,
		-0.003688913071528077,
		-0.1755596548318863,
		0.09066744148731232],
		"scale":[1.0,
		1.0,
		1.0],
		"mesh":6
	},
	{
		"name":"Polygon Reduction",
		"translation":[-41.70695877075195,
		-1474.8455810546876,
		-11.882526397705079],
		"rotation":[0.00000769295911595691,
		-0.00000769307735026814,
		0.000007693082807236351,
		-1.0],
		"children":[18],
		"scale":[1.0,
		1.0,
		1.0]
	},
	{
		"name":"Default",
		"translation":[-17.98060417175293,
		1192.836181640625,
		159.89077758789063],
		"rotation":[0.45365142822265627,
		0.22137044370174409,
		-0.8521477580070496,
		0.1379842460155487],
		"scale":[1.0,
		1.0,
		1.0],
		"mesh":7
	}],
	"meshes":[{
		"name":"4",
		"primitives":[{
			"attributes":{
				"POSITION":5,
				"NORMAL":6
			},
			"indices":4,
			"material":0
		}]
	},
	{
		"name":"2",
		"primitives":[{
			"attributes":{
				"POSITION":8,
				"NORMAL":9
			},
			"indices":7,
			"material":0
		}]
	},
	{
		"name":"1",
		"primitives":[{
			"attributes":{
				"POSITION":11,
				"NORMAL":12
			},
			"indices":10,
			"material":0
		}]
	},
	{
		"name":"1",
		"primitives":[{
			"attributes":{
				"POSITION":14,
				"NORMAL":15
			},
			"indices":13,
			"material":0
		}]
	},
	{
		"name":"Default.3",
		"primitives":[{
			"attributes":{
				"POSITION":19,
				"NORMAL":20
			},
			"indices":18,
			"material":0
		}]
	},
	{
		"name":"Default.2",
		"primitives":[{
			"attributes":{
				"POSITION":22,
				"NORMAL":23
			},
			"indices":21,
			"material":0
		}]
	},
	{
		"name":"Default.1",
		"primitives":[{
			"attributes":{
				"POSITION":25,
				"NORMAL":26
			},
			"indices":24,
			"material":0
		}]
	},
	{
		"name":"Default",
		"primitives":[{
			"attributes":{
				"POSITION":28,
				"NORMAL":29
			},
			"indices":27,
			"material":0
		}]
	}],
	"accessors":[{
		"min":[0.0],
		"bufferView":0,
		"type":"SCALAR",
		"componentType":5126,
		"count":3,
		"byteOffset":0,
		"max":[5.0]
	},
	{
		"min":[-0.00864972174167633,
		0.0,
		-0.0088020209223032,
		-1.0],
		"bufferView":0,
		"type":"VEC4",
		"componentType":5126,
		"count":3,
		"byteOffset":12,
		"max":[0.0,
		0.0088020209223032,
		0.0,
		-0.999885082244873]
	},
	{
		"min":[0.0],
		"bufferView":1,
		"type":"SCALAR",
		"componentType":5126,
		"count":2,
		"byteOffset":0,
		"max":[5.0]
	},
	{
		"min":[0.0,
		499.9998779296875,
		0.0],
		"bufferView":1,
		"type":"VEC3",
		"componentType":5126,
		"count":2,
		"byteOffset":8,
		"max":[0.0,
		1500.0001220703126,
		0.0]
	},
	{
		"min":[0],
		"bufferView":2,
		"type":"SCALAR",
		"componentType":5123,
		"count":2988,
		"byteOffset":0,
		"max":[506]
	},
	{
		"min":[-54.723663330078128,
		-12.572246551513672,
		-17.28205680847168],
		"bufferView":3,
		"type":"VEC3",
		"componentType":5126,
		"count":507,
		"byteOffset":0,
		"max":[54.65969467163086,
		193.7734832763672,
		12.197417259216309]
	},
	{
		"min":[-0.9924375414848328,
		-0.9896875619888306,
		-0.9995312690734863],
		"bufferView":3,
		"type":"VEC3",
		"componentType":5126,
		"count":507,
		"byteOffset":12,
		"max":[0.9943438172340393,
		0.9490938186645508,
		0.9973750710487366]
	},
	{
		"min":[0],
		"bufferView":4,
		"type":"SCALAR",
		"componentType":5123,
		"count":3000,
		"byteOffset":0,
		"max":[505]
	},
	{
		"min":[-66.74031066894531,
		-15.401263236999512,
		-21.040264129638673],
		"bufferView":5,
		"type":"VEC3",
		"componentType":5126,
		"count":506,
		"byteOffset":0,
		"max":[66.78926849365235,
		236.8260955810547,
		14.880759239196778]
	},
	{
		"min":[-0.9874375462532044,
		-0.9746250510215759,
		-0.9995312690734863],
		"bufferView":5,
		"type":"VEC3",
		"componentType":5126,
		"count":506,
		"byteOffset":12,
		"max":[0.9943438172340393,
		0.9895625710487366,
		0.9937188029289246]
	},
	{
		"min":[0],
		"bufferView":6,
		"type":"SCALAR",
		"componentType":5123,
		"count":3000,
		"byteOffset":0,
		"max":[505]
	},
	{
		"min":[-66.74031066894531,
		-15.401263236999512,
		-21.040264129638673],
		"bufferView":7,
		"type":"VEC3",
		"componentType":5126,
		"count":506,
		"byteOffset":0,
		"max":[66.78926849365235,
		236.8260955810547,
		14.880759239196778]
	},
	{
		"min":[-0.9874375462532044,
		-0.9746250510215759,
		-0.9995312690734863],
		"bufferView":7,
		"type":"VEC3",
		"componentType":5126,
		"count":506,
		"byteOffset":12,
		"max":[0.9943438172340393,
		0.9895625710487366,
		0.9937188029289246]
	},
	{
		"min":[0],
		"bufferView":8,
		"type":"SCALAR",
		"componentType":5123,
		"count":3000,
		"byteOffset":0,
		"max":[507]
	},
	{
		"min":[-74.6607666015625,
		-16.68210220336914,
		-23.454601287841798],
		"bufferView":9,
		"type":"VEC3",
		"componentType":5126,
		"count":508,
		"byteOffset":0,
		"max":[74.61288452148438,
		264.57244873046877,
		16.646745681762697]
	},
	{
		"min":[-0.9902188181877136,
		-0.9649062752723694,
		-0.9934688210487366],
		"bufferView":9,
		"type":"VEC3",
		"componentType":5126,
		"count":508,
		"byteOffset":12,
		"max":[0.9877500534057617,
		0.9641562700271606,
		0.9927188158035278]
	},
	{
		"min":[0.0],
		"bufferView":10,
		"type":"SCALAR",
		"componentType":5126,
		"count":2,
		"byteOffset":0,
		"max":[5.0]
	},
	{
		"min":[0.0,
		-600.0,
		0.0],
		"bufferView":10,
		"type":"VEC3",
		"componentType":5126,
		"count":2,
		"byteOffset":8,
		"max":[0.0,
		499.9998779296875,
		0.0]
	},
	{
		"min":[0],
		"bufferView":11,
		"type":"SCALAR",
		"componentType":5123,
		"count":2988,
		"byteOffset":0,
		"max":[506]
	},
	{
		"min":[-54.723663330078128,
		-12.572246551513672,
		-17.28205680847168],
		"bufferView":12,
		"type":"VEC3",
		"componentType":5126,
		"count":507,
		"byteOffset":0,
		"max":[54.65969467163086,
		193.7734832763672,
		12.197417259216309]
	},
	{
		"min":[-0.9924375414848328,
		-0.9896875619888306,
		-0.9995312690734863],
		"bufferView":12,
		"type":"VEC3",
		"componentType":5126,
		"count":507,
		"byteOffset":12,
		"max":[0.9943438172340393,
		0.9490938186645508,
		0.9973750710487366]
	},
	{
		"min":[0],
		"bufferView":13,
		"type":"SCALAR",
		"componentType":5123,
		"count":3000,
		"byteOffset":0,
		"max":[505]
	},
	{
		"min":[-66.74031066894531,
		-15.401263236999512,
		-21.040264129638673],
		"bufferView":14,
		"type":"VEC3",
		"componentType":5126,
		"count":506,
		"byteOffset":0,
		"max":[66.78926849365235,
		236.8260955810547,
		14.880759239196778]
	},
	{
		"min":[-0.9874375462532044,
		-0.9746250510215759,
		-0.9995312690734863],
		"bufferView":14,
		"type":"VEC3",
		"componentType":5126,
		"count":506,
		"byteOffset":12,
		"max":[0.9943438172340393,
		0.9895625710487366,
		0.9937188029289246]
	},
	{
		"min":[0],
		"bufferView":15,
		"type":"SCALAR",
		"componentType":5123,
		"count":3000,
		"byteOffset":0,
		"max":[505]
	},
	{
		"min":[-66.74031066894531,
		-15.401263236999512,
		-21.040264129638673],
		"bufferView":16,
		"type":"VEC3",
		"componentType":5126,
		"count":506,
		"byteOffset":0,
		"max":[66.78926849365235,
		236.8260955810547,
		14.880759239196778]
	},
	{
		"min":[-0.9874375462532044,
		-0.9746250510215759,
		-0.9995312690734863],
		"bufferView":16,
		"type":"VEC3",
		"componentType":5126,
		"count":506,
		"byteOffset":12,
		"max":[0.9943438172340393,
		0.9895625710487366,
		0.9937188029289246]
	},
	{
		"min":[0],
		"bufferView":17,
		"type":"SCALAR",
		"componentType":5123,
		"count":3000,
		"byteOffset":0,
		"max":[507]
	},
	{
		"min":[-74.6607666015625,
		-16.68210220336914,
		-23.454601287841798],
		"bufferView":18,
		"type":"VEC3",
		"componentType":5126,
		"count":508,
		"byteOffset":0,
		"max":[74.61288452148438,
		264.57244873046877,
		16.646745681762697]
	},
	{
		"min":[-0.9902188181877136,
		-0.9649062752723694,
		-0.9934688210487366],
		"bufferView":18,
		"type":"VEC3",
		"componentType":5126,
		"count":508,
		"byteOffset":12,
		"max":[0.9877500534057617,
		0.9641562700271606,
		0.9927188158035278]
	}],
	"materials":[{
		"pbrMetallicRoughness":{
			"baseColorFactor":[1.0,
			0.0,
			0.9666666666666668,
			1.0],
			"metallicFactor":1.0,
			"roughnessFactor":1.0
		},
		"emissiveFactor":[0.0,
		0.0,
		0.0],
		"alphaMode":"OPAQUE",
		"doubleSided":true,
		"name":"default"
	}],
	"buffers":[{
		"uri":"data:application/octet-stream;base64,",
		"byteLength":60
	},
	{
		"uri":"data:application/octet-stream;base64,",
		"byteLength":32
	},
	{
		"uri":"data:application/octet-stream;base64,",
		"byteLength":18144
	},
	{
		"uri":"data:application/octet-stream;base64,",
		"byteLength":18144
	},
	{
		"uri":"data:application/octet-stream;base64,",
		"byteLength":18144
	},
	{
		"uri":"data:application/octet-stream;base64,",
		"byteLength":18192
	},
	{
		"uri":"data:application/octet-stream;base64,",
		"byteLength":32
	},
	{
		"uri":"data:application/octet-stream;base64,",
		"byteLength":18144
	},
	{
		"uri":"data:application/octet-stream;base64,",
		"byteLength":18144
	},
	{
		"uri":"data:application/octet-stream;base64,",
		"byteLength":18144
	},
	{
		"uri":"data:application/octet-stream;base64,",
		"byteLength":18192
	}],
	"animations":[{
		"samplers":[{
			"input":0,
			"interpolation":"LINEAR",
			"output":1
		},
		{
			"input":2,
			"interpolation":"LINEAR",
			"output":3
		},
		{
			"input":16,
			"interpolation":"LINEAR",
			"output":17
		}],
		"channels":[{
			"sampler":0,
			"target":{
				"node":0,
				"path":"rotation"
			}
		},
		{
			"sampler":1,
			"target":{
				"node":1,
				"path":"translation"
			}
		},
		{
			"sampler":2,
			"target":{
				"node":10,
				"path":"translation"
			}
		}]
	}]
}