{
	"nodes":[{
		"rotation":[0.0,
		-0.14797985553741456,
		0.0,
		0.9889903664588928],
		"name":"נפח",
		"translation":[1061.5294189453126,
		0.0,
		304.734375],
		"scale":[1.0,
		1.0,
		1.0],
		"mesh":0,
		"children":[1,
		2]
	},
	{
		"rotation":[0.0,
		0.0,
		0.0,
		-1.0],
		"name":"Cap 1",
		"translation":[0.0,
		0.0,
		1420.759765625],
		"scale":[1.0,
		1.0,
		1.0],
		"mesh":1
	},
	{
		"rotation":[0.0,
		0.0,
		0.0,
		-1.0],
		"name":"Cap 2",
		"translation":[0.0,
		0.0,
		1420.759765625],
		"scale":[1.0,
		1.0,
		1.0],
		"mesh":2
	}],
	"asset":{
		"version":"2.0",
		"generator":"Created using the official Cinema 4D glTF Exporter 1.000x284978"
	},
	"scenes":[{
		"nodes":[0]
	}],
	"meshes":[{
		"name":"נפח",
		"primitives":[{
			"attributes":{
				"POSITION":1,
				"NORMAL":2,
				"TEXCOORD_0":3
			},
			"indices":0,
			"material":0
		}]
	},
	{
		"name":"Cap 1",
		"primitives":[{
			"attributes":{
				"POSITION":5,
				"NORMAL":6,
				"TEXCOORD_0":7
			},
			"indices":4,
			"material":0
		}]
	},
	{
		"name":"Cap 2",
		"primitives":[{
			"attributes":{
				"POSITION":9,
				"NORMAL":10,
				"TEXCOORD_0":11
			},
			"indices":8,
			"material":0
		}]
	}],
	"accessors":[{
		"bufferView":0,
		"type":"SCALAR",
		"componentType":5123,
		"max":[15],
		"count":24,
		"byteOffset":0,
		"min":[0]
	},
	{
		"bufferView":1,
		"type":"VEC3",
		"componentType":5126,
		"max":[200.0,
		589.5164184570313,
		3987.745849609375],
		"count":16,
		"byteOffset":0,
		"min":[0.0,
		0.0,
		3794.76171875]
	},
	{
		"bufferView":1,
		"type":"VEC3",
		"componentType":5126,
		"max":[0.0,
		1.0,
		1.0],
		"count":16,
		"byteOffset":12,
		"min":[0.0,
		-1.0,
		-1.0]
	},
	{
		"bufferView":1,
		"type":"VEC2",
		"componentType":5126,
		"max":[1.0,
		1.0],
		"count":16,
		"byteOffset":24,
		"min":[0.0,
		0.0]
	},
	{
		"bufferView":2,
		"type":"SCALAR",
		"componentType":5123,
		"max":[4],
		"count":6,
		"byteOffset":0,
		"min":[0]
	},
	{
		"bufferView":3,
		"type":"VEC3",
		"componentType":5126,
		"max":[0.0,
		589.5164184570313,
		2566.986083984375],
		"count":5,
		"byteOffset":0,
		"min":[0.0,
		0.0,
		2374.001953125]
	},
	{
		"bufferView":3,
		"type":"VEC3",
		"componentType":5126,
		"max":[-1.0,
		0.0,
		0.0],
		"count":5,
		"byteOffset":12,
		"min":[-1.0,
		0.0,
		0.0]
	},
	{
		"bufferView":3,
		"type":"VEC2",
		"componentType":5126,
		"max":[0.4999998211860657,
		1.0],
		"count":5,
		"byteOffset":24,
		"min":[0.0,
		0.0]
	},
	{
		"bufferView":4,
		"type":"SCALAR",
		"componentType":5123,
		"max":[4],
		"count":6,
		"byteOffset":0,
		"min":[0]
	},
	{
		"bufferView":5,
		"type":"VEC3",
		"componentType":5126,
		"max":[200.0,
		589.5164184570313,
		2566.986083984375],
		"count":5,
		"byteOffset":0,
		"min":[200.0,
		0.0,
		2374.001953125]
	},
	{
		"bufferView":5,
		"type":"VEC3",
		"componentType":5126,
		"max":[1.0,
		0.0,
		0.0],
		"count":5,
		"byteOffset":12,
		"min":[1.0,
		0.0,
		0.0]
	},
	{
		"bufferView":5,
		"type":"VEC2",
		"componentType":5126,
		"max":[0.4999998211860657,
		1.0],
		"count":5,
		"byteOffset":24,
		"min":[0.0,
		0.0]
	}],
	"bufferViews":[{
		"byteLength":48,
		"buffer":0,
		"byteOffset":0,
		"target":34963
	},
	{
		"byteLength":512,
		"buffer":0,
		"byteOffset":48,
		"target":34962,
		"byteStride":32
	},
	{
		"byteLength":12,
		"buffer":1,
		"byteOffset":0,
		"target":34963
	},
	{
		"byteLength":160,
		"buffer":1,
		"byteOffset":12,
		"target":34962,
		"byteStride":32
	},
	{
		"byteLength":12,
		"buffer":2,
		"byteOffset":0,
		"target":34963
	},
	{
		"byteLength":160,
		"buffer":2,
		"byteOffset":12,
		"target":34962,
		"byteStride":32
	}],
	"buffers":[{
		"uri":"data:application/octet-stream;base64,",
		"byteLength":560
	},
	{
		"uri":"data:application/octet-stream;base64,",
		"byteLength":172
	},
	{
		"uri":"data:application/octet-stream;base64,",
		"byteLength":172
	}],
	"materials":[{
		"pbrMetallicRoughness":{
			"baseColorFactor":[0.8,
			0.8,
			0.8,
			1.0],
			"metallicFactor":0.13,
			"roughnessFactor":0.46
		},
		"emissiveFactor":[0.0,
		0.0,
		0.0],
		"alphaMode":"OPAQUE",
		"doubleSided":true,
		"name":"Mat.4"
	}]
}