{
	"asset":{
		"version":"2.0",
		"generator":"Created using the official Cinema 4D glTF Exporter 1.000x284978"
	},
	"scenes":[{
		"nodes":[0]
	}],
	"nodes":[{
		"name":"Subdivision Surface.1",
		"translation":[5.370445642454401e-16,
		59.23980712890625,
		1.776147728141397e-15],
		"rotation":[0.6389914751052856,
		0.03398149088025093,
		-0.033532459288835528,
		-0.7677308917045593],
		"scale":[1.0,
		1.0,
		1.0],
		"mesh":0
	}],
	"meshes":[{
		"name":"Subdivision Surface.1",
		"primitives":[{
			"attributes":{
				"POSITION":1,
				"NORMAL":2,
				"TEXCOORD_0":3
			},
			"indices":0,
			"material":0
		}]
	}],
	"accessors":[{
		"bufferView":0,
		"type":"SCALAR",
		"componentType":5123,
		"min":[0],
		"count":18960,
		"byteOffset":0,
		"max":[3444]
	},
	{
		"bufferView":1,
		"type":"VEC3",
		"componentType":5126,
		"min":[-56.652183532714847,
		-105.80244445800781,
		-87.83821105957031],
		"count":3445,
		"byteOffset":0,
		"max":[51.1658935546875,
		129.9563446044922,
		28.662189483642579]
	},
	{
		"bufferView":1,
		"type":"VEC3",
		"componentType":5126,
		"min":[-0.9999313950538635,
		-0.9991758465766907,
		-0.9997341632843018],
		"count":3445,
		"byteOffset":12,
		"max":[0.9999263882637024,
		0.999999463558197,
		0.9995246529579163]
	},
	{
		"bufferView":1,
		"type":"VEC2",
		"componentType":5126,
		"min":[0.0,
		0.0],
		"count":3445,
		"byteOffset":24,
		"max":[1.0,
		1.0]
	}],
	"bufferViews":[{
		"buffer":0,
		"byteOffset":0,
		"byteLength":37920,
		"target":34963
	},
	{
		"buffer":0,
		"byteOffset":37920,
		"byteLength":110240,
		"target":34962,
		"byteStride":32
	}],
	"buffers":[{
		"uri":"data:application/octet-stream;base64,",
		"byteLength":148160
	}],
	"materials":[{
		"pbrMetallicRoughness":{
			"baseColorFactor":[1.0,
			0.5735,
			0.0,
			1.0],
			"metallicFactor":1.0,
			"roughnessFactor":1.0
		},
		"emissiveFactor":[0.0,
		0.0,
		0.0],
		"alphaMode":"OPAQUE",
		"doubleSided":true,
		"name":"Mat"
	}]
}