{
	"asset":{
		"version":"2.0",
		"generator":"Created using the official Cinema 4D glTF Exporter 1.000x284978"
	},
	"accessors":[{
		"bufferView":0,
		"type":"SCALAR",
		"componentType":5123,
		"max":[15],
		"count":24,
		"byteOffset":0,
		"min":[0]
	},
	{
		"bufferView":1,
		"type":"VEC3",
		"componentType":5126,
		"max":[50.0,
		147.3791046142578,
		544.323486328125],
		"count":16,
		"byteOffset":0,
		"min":[0.0,
		0.0,
		496.07745361328127]
	},
	{
		"bufferView":1,
		"type":"VEC3",
		"componentType":5126,
		"max":[0.0,
		1.0,
		1.0],
		"count":16,
		"byteOffset":12,
		"min":[0.0,
		-1.0,
		-1.0]
	},
	{
		"bufferView":1,
		"type":"VEC2",
		"componentType":5126,
		"max":[1.0,
		1.0],
		"count":16,
		"byteOffset":24,
		"min":[0.0,
		0.0]
	},
	{
		"bufferView":2,
		"type":"SCALAR",
		"componentType":5123,
		"max":[4],
		"count":6,
		"byteOffset":0,
		"min":[0]
	},
	{
		"bufferView":3,
		"type":"VEC3",
		"componentType":5126,
		"max":[0.0,
		147.3791046142578,
		641.7465209960938],
		"count":5,
		"byteOffset":0,
		"min":[0.0,
		0.0,
		593.50048828125]
	},
	{
		"bufferView":3,
		"type":"VEC3",
		"componentType":5126,
		"max":[-1.0,
		0.0,
		0.0],
		"count":5,
		"byteOffset":12,
		"min":[-1.0,
		0.0,
		0.0]
	},
	{
		"bufferView":3,
		"type":"VEC2",
		"componentType":5126,
		"max":[0.4999998211860657,
		1.0],
		"count":5,
		"byteOffset":24,
		"min":[0.0,
		0.0]
	},
	{
		"bufferView":4,
		"type":"SCALAR",
		"componentType":5123,
		"max":[4],
		"count":6,
		"byteOffset":0,
		"min":[0]
	},
	{
		"bufferView":5,
		"type":"VEC3",
		"componentType":5126,
		"max":[50.0,
		147.3791046142578,
		641.7465209960938],
		"count":5,
		"byteOffset":0,
		"min":[50.0,
		0.0,
		593.50048828125]
	},
	{
		"bufferView":5,
		"type":"VEC3",
		"componentType":5126,
		"max":[1.0,
		0.0,
		0.0],
		"count":5,
		"byteOffset":12,
		"min":[1.0,
		0.0,
		0.0]
	},
	{
		"bufferView":5,
		"type":"VEC2",
		"componentType":5126,
		"max":[0.4999998211860657,
		1.0],
		"count":5,
		"byteOffset":24,
		"min":[0.0,
		0.0]
	},
	{
		"bufferView":6,
		"type":"SCALAR",
		"componentType":5123,
		"max":[15],
		"count":24,
		"byteOffset":0,
		"min":[0]
	},
	{
		"bufferView":7,
		"type":"VEC3",
		"componentType":5126,
		"max":[50.0,
		147.3791046142578,
		959.466796875],
		"count":16,
		"byteOffset":0,
		"min":[0.0,
		0.0,
		911.2208251953125]
	},
	{
		"bufferView":7,
		"type":"VEC3",
		"componentType":5126,
		"max":[0.0,
		1.0,
		1.0],
		"count":16,
		"byteOffset":12,
		"min":[0.0,
		-1.0,
		-1.0]
	},
	{
		"bufferView":7,
		"type":"VEC2",
		"componentType":5126,
		"max":[1.0,
		1.0],
		"count":16,
		"byteOffset":24,
		"min":[0.0,
		0.0]
	},
	{
		"bufferView":8,
		"type":"SCALAR",
		"componentType":5123,
		"max":[4],
		"count":6,
		"byteOffset":0,
		"min":[0]
	},
	{
		"bufferView":9,
		"type":"VEC3",
		"componentType":5126,
		"max":[0.0,
		147.3791046142578,
		641.7465209960938],
		"count":5,
		"byteOffset":0,
		"min":[0.0,
		0.0,
		593.50048828125]
	},
	{
		"bufferView":9,
		"type":"VEC3",
		"componentType":5126,
		"max":[-1.0,
		0.0,
		0.0],
		"count":5,
		"byteOffset":12,
		"min":[-1.0,
		0.0,
		0.0]
	},
	{
		"bufferView":9,
		"type":"VEC2",
		"componentType":5126,
		"max":[0.4999998211860657,
		1.0],
		"count":5,
		"byteOffset":24,
		"min":[0.0,
		0.0]
	},
	{
		"bufferView":10,
		"type":"SCALAR",
		"componentType":5123,
		"max":[4],
		"count":6,
		"byteOffset":0,
		"min":[0]
	},
	{
		"bufferView":11,
		"type":"VEC3",
		"componentType":5126,
		"max":[50.0,
		147.3791046142578,
		641.7465209960938],
		"count":5,
		"byteOffset":0,
		"min":[50.0,
		0.0,
		593.50048828125]
	},
	{
		"bufferView":11,
		"type":"VEC3",
		"componentType":5126,
		"max":[1.0,
		0.0,
		0.0],
		"count":5,
		"byteOffset":12,
		"min":[1.0,
		0.0,
		0.0]
	},
	{
		"bufferView":11,
		"type":"VEC2",
		"componentType":5126,
		"max":[0.4999998211860657,
		1.0],
		"count":5,
		"byteOffset":24,
		"min":[0.0,
		0.0]
	},
	{
		"bufferView":12,
		"type":"SCALAR",
		"componentType":5123,
		"max":[15],
		"count":24,
		"byteOffset":0,
		"min":[0]
	},
	{
		"bufferView":13,
		"type":"VEC3",
		"componentType":5126,
		"max":[50.0,
		147.3791046142578,
		1201.996826171875],
		"count":16,
		"byteOffset":0,
		"min":[0.0,
		0.0,
		1153.7508544921876]
	},
	{
		"bufferView":13,
		"type":"VEC3",
		"componentType":5126,
		"max":[0.0,
		1.0,
		1.0],
		"count":16,
		"byteOffset":12,
		"min":[0.0,
		-1.0,
		-1.0]
	},
	{
		"bufferView":13,
		"type":"VEC2",
		"componentType":5126,
		"max":[1.0,
		1.0],
		"count":16,
		"byteOffset":24,
		"min":[0.0,
		0.0]
	},
	{
		"bufferView":14,
		"type":"SCALAR",
		"componentType":5123,
		"max":[4],
		"count":6,
		"byteOffset":0,
		"min":[0]
	},
	{
		"bufferView":15,
		"type":"VEC3",
		"componentType":5126,
		"max":[0.0,
		147.3791046142578,
		641.7465209960938],
		"count":5,
		"byteOffset":0,
		"min":[0.0,
		0.0,
		593.50048828125]
	},
	{
		"bufferView":15,
		"type":"VEC3",
		"componentType":5126,
		"max":[-1.0,
		0.0,
		0.0],
		"count":5,
		"byteOffset":12,
		"min":[-1.0,
		0.0,
		0.0]
	},
	{
		"bufferView":15,
		"type":"VEC2",
		"componentType":5126,
		"max":[0.4999998211860657,
		1.0],
		"count":5,
		"byteOffset":24,
		"min":[0.0,
		0.0]
	},
	{
		"bufferView":16,
		"type":"SCALAR",
		"componentType":5123,
		"max":[4],
		"count":6,
		"byteOffset":0,
		"min":[0]
	},
	{
		"bufferView":17,
		"type":"VEC3",
		"componentType":5126,
		"max":[50.0,
		147.3791046142578,
		641.7465209960938],
		"count":5,
		"byteOffset":0,
		"min":[50.0,
		0.0,
		593.50048828125]
	},
	{
		"bufferView":17,
		"type":"VEC3",
		"componentType":5126,
		"max":[1.0,
		0.0,
		0.0],
		"count":5,
		"byteOffset":12,
		"min":[1.0,
		0.0,
		0.0]
	},
	{
		"bufferView":17,
		"type":"VEC2",
		"componentType":5126,
		"max":[0.4999998211860657,
		1.0],
		"count":5,
		"byteOffset":24,
		"min":[0.0,
		0.0]
	}],
	"scenes":[{
		"nodes":[0,
		3,
		6]
	}],
	"nodes":[{
		"name":"נפח.10",
		"rotation":[0.0,
		-0.07100781798362732,
		0.0,
		0.9974757432937622],
		"translation":[77.67802429199219,
		0.0,
		-27.399084091186525],
		"scale":[1.0,
		1.0,
		1.0],
		"mesh":0,
		"children":[1,
		2]
	},
	{
		"name":"Cap 1",
		"rotation":[0.0,
		0.0,
		0.0,
		-1.0],
		"translation":[0.0,
		0.0,
		-97.42304229736328],
		"scale":[1.0,
		1.0,
		1.0],
		"mesh":1
	},
	{
		"name":"Cap 2",
		"rotation":[0.0,
		0.0,
		0.0,
		-1.0],
		"translation":[0.0,
		0.0,
		-97.42304229736328],
		"scale":[1.0,
		1.0,
		1.0],
		"mesh":2
	},
	{
		"name":"נפח.11",
		"rotation":[0.0,
		-0.07383652776479721,
		0.0,
		0.9972703456878662],
		"translation":[228.0713653564453,
		0.0,
		-152.91455078125],
		"scale":[1.0,
		1.0,
		1.0],
		"mesh":3,
		"children":[4,
		5]
	},
	{
		"name":"Cap 1",
		"rotation":[0.0,
		0.0,
		0.0,
		-1.0],
		"translation":[0.0,
		0.0,
		317.7203063964844],
		"scale":[1.0,
		1.0,
		1.0],
		"mesh":4
	},
	{
		"name":"Cap 2",
		"rotation":[0.0,
		0.0,
		0.0,
		-1.0],
		"translation":[0.0,
		0.0,
		317.7203063964844],
		"scale":[1.0,
		1.0,
		1.0],
		"mesh":5
	},
	{
		"name":"נפח.12",
		"rotation":[0.0,
		0.0,
		0.0,
		-1.0],
		"translation":[54.01388931274414,
		0.0,
		-165.88792419433595],
		"scale":[1.0,
		1.0,
		1.0],
		"mesh":6,
		"children":[7,
		8]
	},
	{
		"name":"Cap 1",
		"rotation":[0.0,
		0.0,
		0.0,
		-1.0],
		"translation":[0.0,
		0.0,
		560.2503662109375],
		"scale":[1.0,
		1.0,
		1.0],
		"mesh":7
	},
	{
		"name":"Cap 2",
		"rotation":[0.0,
		0.0,
		0.0,
		-1.0],
		"translation":[0.0,
		0.0,
		560.2503662109375],
		"scale":[1.0,
		1.0,
		1.0],
		"mesh":8
	}],
	"meshes":[{
		"name":"נפח.10",
		"primitives":[{
			"attributes":{
				"POSITION":1,
				"NORMAL":2,
				"TEXCOORD_0":3
			},
			"indices":0,
			"material":0
		}]
	},
	{
		"name":"Cap 1",
		"primitives":[{
			"attributes":{
				"POSITION":5,
				"NORMAL":6,
				"TEXCOORD_0":7
			},
			"indices":4,
			"material":0
		}]
	},
	{
		"name":"Cap 2",
		"primitives":[{
			"attributes":{
				"POSITION":9,
				"NORMAL":10,
				"TEXCOORD_0":11
			},
			"indices":8,
			"material":0
		}]
	},
	{
		"name":"נפח.11",
		"primitives":[{
			"attributes":{
				"POSITION":13,
				"NORMAL":14,
				"TEXCOORD_0":15
			},
			"indices":12,
			"material":0
		}]
	},
	{
		"name":"Cap 1",
		"primitives":[{
			"attributes":{
				"POSITION":17,
				"NORMAL":18,
				"TEXCOORD_0":19
			},
			"indices":16,
			"material":0
		}]
	},
	{
		"name":"Cap 2",
		"primitives":[{
			"attributes":{
				"POSITION":21,
				"NORMAL":22,
				"TEXCOORD_0":23
			},
			"indices":20,
			"material":0
		}]
	},
	{
		"name":"נפח.12",
		"primitives":[{
			"attributes":{
				"POSITION":25,
				"NORMAL":26,
				"TEXCOORD_0":27
			},
			"indices":24,
			"material":0
		}]
	},
	{
		"name":"Cap 1",
		"primitives":[{
			"attributes":{
				"POSITION":29,
				"NORMAL":30,
				"TEXCOORD_0":31
			},
			"indices":28,
			"material":0
		}]
	},
	{
		"name":"Cap 2",
		"primitives":[{
			"attributes":{
				"POSITION":33,
				"NORMAL":34,
				"TEXCOORD_0":35
			},
			"indices":32,
			"material":0
		}]
	}],
	"bufferViews":[{
		"buffer":0,
		"byteOffset":0,
		"byteLength":48,
		"target":34963
	},
	{
		"buffer":0,
		"byteOffset":48,
		"byteLength":512,
		"target":34962,
		"byteStride":32
	},
	{
		"buffer":1,
		"byteOffset":0,
		"byteLength":12,
		"target":34963
	},
	{
		"buffer":1,
		"byteOffset":12,
		"byteLength":160,
		"target":34962,
		"byteStride":32
	},
	{
		"buffer":2,
		"byteOffset":0,
		"byteLength":12,
		"target":34963
	},
	{
		"buffer":2,
		"byteOffset":12,
		"byteLength":160,
		"target":34962,
		"byteStride":32
	},
	{
		"buffer":3,
		"byteOffset":0,
		"byteLength":48,
		"target":34963
	},
	{
		"buffer":3,
		"byteOffset":48,
		"byteLength":512,
		"target":34962,
		"byteStride":32
	},
	{
		"buffer":4,
		"byteOffset":0,
		"byteLength":12,
		"target":34963
	},
	{
		"buffer":4,
		"byteOffset":12,
		"byteLength":160,
		"target":34962,
		"byteStride":32
	},
	{
		"buffer":5,
		"byteOffset":0,
		"byteLength":12,
		"target":34963
	},
	{
		"buffer":5,
		"byteOffset":12,
		"byteLength":160,
		"target":34962,
		"byteStride":32
	},
	{
		"buffer":6,
		"byteOffset":0,
		"byteLength":48,
		"target":34963
	},
	{
		"buffer":6,
		"byteOffset":48,
		"byteLength":512,
		"target":34962,
		"byteStride":32
	},
	{
		"buffer":7,
		"byteOffset":0,
		"byteLength":12,
		"target":34963
	},
	{
		"buffer":7,
		"byteOffset":12,
		"byteLength":160,
		"target":34962,
		"byteStride":32
	},
	{
		"buffer":8,
		"byteOffset":0,
		"byteLength":12,
		"target":34963
	},
	{
		"buffer":8,
		"byteOffset":12,
		"byteLength":160,
		"target":34962,
		"byteStride":32
	}],
	"materials":[{
		"pbrMetallicRoughness":{
			"baseColorFactor":[0.8,
			0.8,
			0.8,
			1.0],
			"metallicFactor":0.13,
			"roughnessFactor":0.46
		},
		"emissiveFactor":[0.0,
		0.0,
		0.0],
		"alphaMode":"OPAQUE",
		"doubleSided":true,
		"name":"Mat.4"
	}],
	"buffers":[{
		"uri":"data:application/octet-stream;base64,",
		"byteLength":560
	},
	{
		"uri":"data:application/octet-stream;base64,",
		"byteLength":172
	},
	{
		"uri":"data:application/octet-stream;base64,",
		"byteLength":172
	},
	{
		"uri":"data:application/octet-stream;base64,",
		"byteLength":560
	},
	{
		"uri":"data:application/octet-stream;base64,",
		"byteLength":172
	},
	{
		"uri":"data:application/octet-stream;base64,",
		"byteLength":172
	},
	{
		"uri":"data:application/octet-stream;base64,",
		"byteLength":560
	},
	{
		"uri":"data:application/octet-stream;base64,",
		"byteLength":172
	},
	{
		"uri":"data:application/octet-stream;base64,",
		"byteLength":172
	}]
}