{
	"asset":{
		"version":"2.0",
		"generator":"Created using the official Cinema 4D glTF Exporter 1.000x284978"
	},
	"scenes":[{
		"nodes":[0,
		4,
		8]
	}],
	"nodes":[{
		"name":"יוד",
		"translation":[-87.03089141845703,
		965.7103881835938,
		5694.8212890625],
		"rotation":[0.0,
		-0.08673085272312164,
		0.0,
		-0.9962317943572998],
		"scale":[1.0,
		1.0,
		1.0],
		"children":[1]
	},
	{
		"name":"נפח",
		"translation":[0.0,
		0.0,
		0.0],
		"rotation":[0.0,
		0.0,
		0.0,
		-1.0],
		"scale":[1.0,
		1.0,
		1.0],
		"mesh":0,
		"children":[2,
		3]
	},
	{
		"name":"Cap 1",
		"translation":[0.0,
		0.0,
		-2486.5],
		"rotation":[0.0,
		0.0,
		0.0,
		-1.0],
		"scale":[1.0,
		1.0,
		1.0],
		"mesh":1
	},
	{
		"name":"Cap 2",
		"translation":[0.0,
		0.0,
		-2486.5],
		"rotation":[0.0,
		0.0,
		0.0,
		-1.0],
		"scale":[1.0,
		1.0,
		1.0],
		"mesh":2
	},
	{
		"name":"יוד.1",
		"translation":[-42.78827667236328,
		965.7103881835938,
		5978.05029296875],
		"rotation":[0.0,
		-0.253874272108078,
		0.0,
		0.9672372341156006],
		"scale":[1.0,
		1.0,
		1.0],
		"children":[5]
	},
	{
		"name":"נפח",
		"translation":[-91.14850616455078,
		0.0,
		4.832704544067383],
		"rotation":[0.0,
		0.0,
		0.0,
		-1.0],
		"scale":[1.0,
		1.0,
		1.0],
		"mesh":3,
		"children":[6,
		7]
	},
	{
		"name":"Cap 1",
		"translation":[0.0,
		0.0,
		-2486.5],
		"rotation":[0.0,
		0.0,
		0.0,
		-1.0],
		"scale":[1.0,
		1.0,
		1.0],
		"mesh":4
	},
	{
		"name":"Cap 2",
		"translation":[0.0,
		0.0,
		-2486.5],
		"rotation":[0.0,
		0.0,
		0.0,
		-1.0],
		"scale":[1.0,
		1.0,
		1.0],
		"mesh":5
	},
	{
		"name":"יוד.2",
		"translation":[-231.68775939941407,
		0.0,
		6279.73046875],
		"rotation":[0.0,
		-0.1994977742433548,
		0.0,
		-0.9798982739448547],
		"scale":[1.0,
		1.0,
		1.0],
		"children":[9]
	},
	{
		"name":"נפח",
		"translation":[0.0,
		0.0,
		0.0],
		"rotation":[0.0,
		0.0,
		0.0,
		-1.0],
		"scale":[1.0,
		1.0,
		1.0],
		"mesh":6,
		"children":[10,
		11]
	},
	{
		"name":"Cap 1",
		"translation":[0.0,
		0.0,
		-2486.5],
		"rotation":[0.0,
		0.0,
		0.0,
		-1.0],
		"scale":[1.0,
		1.0,
		1.0],
		"mesh":7
	},
	{
		"name":"Cap 2",
		"translation":[0.0,
		0.0,
		-2486.5],
		"rotation":[0.0,
		0.0,
		0.0,
		-1.0],
		"scale":[1.0,
		1.0,
		1.0],
		"mesh":8
	}],
	"meshes":[{
		"name":"נפח",
		"primitives":[{
			"attributes":{
				"POSITION":1,
				"NORMAL":2,
				"TEXCOORD_0":3
			},
			"indices":0,
			"material":0
		}]
	},
	{
		"name":"Cap 1",
		"primitives":[{
			"attributes":{
				"POSITION":5,
				"NORMAL":6,
				"TEXCOORD_0":7
			},
			"indices":4,
			"material":0
		}]
	},
	{
		"name":"Cap 2",
		"primitives":[{
			"attributes":{
				"POSITION":9,
				"NORMAL":10,
				"TEXCOORD_0":11
			},
			"indices":8,
			"material":0
		}]
	},
	{
		"name":"נפח",
		"primitives":[{
			"attributes":{
				"POSITION":13,
				"NORMAL":14,
				"TEXCOORD_0":15
			},
			"indices":12,
			"material":0
		}]
	},
	{
		"name":"Cap 1",
		"primitives":[{
			"attributes":{
				"POSITION":17,
				"NORMAL":18,
				"TEXCOORD_0":19
			},
			"indices":16,
			"material":0
		}]
	},
	{
		"name":"Cap 2",
		"primitives":[{
			"attributes":{
				"POSITION":21,
				"NORMAL":22,
				"TEXCOORD_0":23
			},
			"indices":20,
			"material":0
		}]
	},
	{
		"name":"נפח",
		"primitives":[{
			"attributes":{
				"POSITION":25,
				"NORMAL":26,
				"TEXCOORD_0":27
			},
			"indices":24,
			"material":0
		}]
	},
	{
		"name":"Cap 1",
		"primitives":[{
			"attributes":{
				"POSITION":29,
				"NORMAL":30,
				"TEXCOORD_0":31
			},
			"indices":28,
			"material":0
		}]
	},
	{
		"name":"Cap 2",
		"primitives":[{
			"attributes":{
				"POSITION":33,
				"NORMAL":34,
				"TEXCOORD_0":35
			},
			"indices":32,
			"material":0
		}]
	}],
	"accessors":[{
		"bufferView":0,
		"type":"SCALAR",
		"componentType":5123,
		"min":[0],
		"count":24,
		"byteOffset":0,
		"max":[15]
	},
	{
		"bufferView":1,
		"type":"VEC3",
		"componentType":5126,
		"min":[0.0,
		0.0,
		-112.49791717529297],
		"count":16,
		"byteOffset":0,
		"max":[200.0,
		589.5164184570313,
		80.486083984375]
	},
	{
		"bufferView":1,
		"type":"VEC3",
		"componentType":5126,
		"min":[0.0,
		-1.0,
		-1.0],
		"count":16,
		"byteOffset":12,
		"max":[0.0,
		1.0,
		1.0]
	},
	{
		"bufferView":1,
		"type":"VEC2",
		"componentType":5126,
		"min":[0.0,
		0.0],
		"count":16,
		"byteOffset":24,
		"max":[1.0,
		1.0]
	},
	{
		"bufferView":2,
		"type":"SCALAR",
		"componentType":5123,
		"min":[0],
		"count":6,
		"byteOffset":0,
		"max":[4]
	},
	{
		"bufferView":3,
		"type":"VEC3",
		"componentType":5126,
		"min":[0.0,
		0.0,
		2374.001953125],
		"count":5,
		"byteOffset":0,
		"max":[0.0,
		589.5164184570313,
		2566.986083984375]
	},
	{
		"bufferView":3,
		"type":"VEC3",
		"componentType":5126,
		"min":[-1.0,
		0.0,
		0.0],
		"count":5,
		"byteOffset":12,
		"max":[-1.0,
		0.0,
		0.0]
	},
	{
		"bufferView":3,
		"type":"VEC2",
		"componentType":5126,
		"min":[0.0,
		0.0],
		"count":5,
		"byteOffset":24,
		"max":[0.4999998211860657,
		1.0]
	},
	{
		"bufferView":4,
		"type":"SCALAR",
		"componentType":5123,
		"min":[0],
		"count":6,
		"byteOffset":0,
		"max":[4]
	},
	{
		"bufferView":5,
		"type":"VEC3",
		"componentType":5126,
		"min":[200.0,
		0.0,
		2374.001953125],
		"count":5,
		"byteOffset":0,
		"max":[200.0,
		589.5164184570313,
		2566.986083984375]
	},
	{
		"bufferView":5,
		"type":"VEC3",
		"componentType":5126,
		"min":[1.0,
		0.0,
		0.0],
		"count":5,
		"byteOffset":12,
		"max":[1.0,
		0.0,
		0.0]
	},
	{
		"bufferView":5,
		"type":"VEC2",
		"componentType":5126,
		"min":[0.0,
		0.0],
		"count":5,
		"byteOffset":24,
		"max":[0.4999998211860657,
		1.0]
	},
	{
		"bufferView":6,
		"type":"SCALAR",
		"componentType":5123,
		"min":[0],
		"count":24,
		"byteOffset":0,
		"max":[15]
	},
	{
		"bufferView":7,
		"type":"VEC3",
		"componentType":5126,
		"min":[0.0,
		0.0,
		-112.49791717529297],
		"count":16,
		"byteOffset":0,
		"max":[200.0,
		589.5164184570313,
		80.486083984375]
	},
	{
		"bufferView":7,
		"type":"VEC3",
		"componentType":5126,
		"min":[0.0,
		-1.0,
		-1.0],
		"count":16,
		"byteOffset":12,
		"max":[0.0,
		1.0,
		1.0]
	},
	{
		"bufferView":7,
		"type":"VEC2",
		"componentType":5126,
		"min":[0.0,
		0.0],
		"count":16,
		"byteOffset":24,
		"max":[1.0,
		1.0]
	},
	{
		"bufferView":8,
		"type":"SCALAR",
		"componentType":5123,
		"min":[0],
		"count":6,
		"byteOffset":0,
		"max":[4]
	},
	{
		"bufferView":9,
		"type":"VEC3",
		"componentType":5126,
		"min":[0.0,
		0.0,
		2374.001953125],
		"count":5,
		"byteOffset":0,
		"max":[0.0,
		589.5164184570313,
		2566.986083984375]
	},
	{
		"bufferView":9,
		"type":"VEC3",
		"componentType":5126,
		"min":[-1.0,
		0.0,
		0.0],
		"count":5,
		"byteOffset":12,
		"max":[-1.0,
		0.0,
		0.0]
	},
	{
		"bufferView":9,
		"type":"VEC2",
		"componentType":5126,
		"min":[0.0,
		0.0],
		"count":5,
		"byteOffset":24,
		"max":[0.4999998211860657,
		1.0]
	},
	{
		"bufferView":10,
		"type":"SCALAR",
		"componentType":5123,
		"min":[0],
		"count":6,
		"byteOffset":0,
		"max":[4]
	},
	{
		"bufferView":11,
		"type":"VEC3",
		"componentType":5126,
		"min":[200.0,
		0.0,
		2374.001953125],
		"count":5,
		"byteOffset":0,
		"max":[200.0,
		589.5164184570313,
		2566.986083984375]
	},
	{
		"bufferView":11,
		"type":"VEC3",
		"componentType":5126,
		"min":[1.0,
		0.0,
		0.0],
		"count":5,
		"byteOffset":12,
		"max":[1.0,
		0.0,
		0.0]
	},
	{
		"bufferView":11,
		"type":"VEC2",
		"componentType":5126,
		"min":[0.0,
		0.0],
		"count":5,
		"byteOffset":24,
		"max":[0.4999998211860657,
		1.0]
	},
	{
		"bufferView":12,
		"type":"SCALAR",
		"componentType":5123,
		"min":[0],
		"count":24,
		"byteOffset":0,
		"max":[15]
	},
	{
		"bufferView":13,
		"type":"VEC3",
		"componentType":5126,
		"min":[0.0,
		0.0,
		-112.49791717529297],
		"count":16,
		"byteOffset":0,
		"max":[200.0,
		589.5164184570313,
		80.486083984375]
	},
	{
		"bufferView":13,
		"type":"VEC3",
		"componentType":5126,
		"min":[0.0,
		-1.0,
		-1.0],
		"count":16,
		"byteOffset":12,
		"max":[0.0,
		1.0,
		1.0]
	},
	{
		"bufferView":13,
		"type":"VEC2",
		"componentType":5126,
		"min":[0.0,
		0.0],
		"count":16,
		"byteOffset":24,
		"max":[1.0,
		1.0]
	},
	{
		"bufferView":14,
		"type":"SCALAR",
		"componentType":5123,
		"min":[0],
		"count":6,
		"byteOffset":0,
		"max":[4]
	},
	{
		"bufferView":15,
		"type":"VEC3",
		"componentType":5126,
		"min":[0.0,
		0.0,
		2374.001953125],
		"count":5,
		"byteOffset":0,
		"max":[0.0,
		589.5164184570313,
		2566.986083984375]
	},
	{
		"bufferView":15,
		"type":"VEC3",
		"componentType":5126,
		"min":[-1.0,
		0.0,
		0.0],
		"count":5,
		"byteOffset":12,
		"max":[-1.0,
		0.0,
		0.0]
	},
	{
		"bufferView":15,
		"type":"VEC2",
		"componentType":5126,
		"min":[0.0,
		0.0],
		"count":5,
		"byteOffset":24,
		"max":[0.4999998211860657,
		1.0]
	},
	{
		"bufferView":16,
		"type":"SCALAR",
		"componentType":5123,
		"min":[0],
		"count":6,
		"byteOffset":0,
		"max":[4]
	},
	{
		"bufferView":17,
		"type":"VEC3",
		"componentType":5126,
		"min":[200.0,
		0.0,
		2374.001953125],
		"count":5,
		"byteOffset":0,
		"max":[200.0,
		589.5164184570313,
		2566.986083984375]
	},
	{
		"bufferView":17,
		"type":"VEC3",
		"componentType":5126,
		"min":[1.0,
		0.0,
		0.0],
		"count":5,
		"byteOffset":12,
		"max":[1.0,
		0.0,
		0.0]
	},
	{
		"bufferView":17,
		"type":"VEC2",
		"componentType":5126,
		"min":[0.0,
		0.0],
		"count":5,
		"byteOffset":24,
		"max":[0.4999998211860657,
		1.0]
	}],
	"bufferViews":[{
		"buffer":0,
		"byteOffset":0,
		"byteLength":48,
		"target":34963
	},
	{
		"buffer":0,
		"byteOffset":48,
		"byteLength":512,
		"target":34962,
		"byteStride":32
	},
	{
		"buffer":1,
		"byteOffset":0,
		"byteLength":12,
		"target":34963
	},
	{
		"buffer":1,
		"byteOffset":12,
		"byteLength":160,
		"target":34962,
		"byteStride":32
	},
	{
		"buffer":2,
		"byteOffset":0,
		"byteLength":12,
		"target":34963
	},
	{
		"buffer":2,
		"byteOffset":12,
		"byteLength":160,
		"target":34962,
		"byteStride":32
	},
	{
		"buffer":3,
		"byteOffset":0,
		"byteLength":48,
		"target":34963
	},
	{
		"buffer":3,
		"byteOffset":48,
		"byteLength":512,
		"target":34962,
		"byteStride":32
	},
	{
		"buffer":4,
		"byteOffset":0,
		"byteLength":12,
		"target":34963
	},
	{
		"buffer":4,
		"byteOffset":12,
		"byteLength":160,
		"target":34962,
		"byteStride":32
	},
	{
		"buffer":5,
		"byteOffset":0,
		"byteLength":12,
		"target":34963
	},
	{
		"buffer":5,
		"byteOffset":12,
		"byteLength":160,
		"target":34962,
		"byteStride":32
	},
	{
		"buffer":6,
		"byteOffset":0,
		"byteLength":48,
		"target":34963
	},
	{
		"buffer":6,
		"byteOffset":48,
		"byteLength":512,
		"target":34962,
		"byteStride":32
	},
	{
		"buffer":7,
		"byteOffset":0,
		"byteLength":12,
		"target":34963
	},
	{
		"buffer":7,
		"byteOffset":12,
		"byteLength":160,
		"target":34962,
		"byteStride":32
	},
	{
		"buffer":8,
		"byteOffset":0,
		"byteLength":12,
		"target":34963
	},
	{
		"buffer":8,
		"byteOffset":12,
		"byteLength":160,
		"target":34962,
		"byteStride":32
	}],
	"buffers":[{
		"uri":"data:application/octet-stream;base64,",
		"byteLength":560
	},
	{
		"uri":"data:application/octet-stream;base64,",
		"byteLength":172
	},
	{
		"uri":"data:application/octet-stream;base64,",
		"byteLength":172
	},
	{
		"uri":"data:application/octet-stream;base64,",
		"byteLength":560
	},
	{
		"uri":"data:application/octet-stream;base64,",
		"byteLength":172
	},
	{
		"uri":"data:application/octet-stream;base64,",
		"byteLength":172
	},
	{
		"uri":"data:application/octet-stream;base64,",
		"byteLength":560
	},
	{
		"uri":"data:application/octet-stream;base64,",
		"byteLength":172
	},
	{
		"uri":"data:application/octet-stream;base64,",
		"byteLength":172
	}],
	"materials":[{
		"pbrMetallicRoughness":{
			"baseColorFactor":[0.8,
			0.8,
			0.8,
			1.0],
			"metallicFactor":0.13,
			"roughnessFactor":0.46
		},
		"emissiveFactor":[0.0,
		0.0,
		0.0],
		"alphaMode":"OPAQUE",
		"doubleSided":true,
		"name":"Mat.4"
	}]
}