{
	"asset":{
		"version":"2.0",
		"generator":"Created using the official Cinema 4D glTF Exporter 1.000x284978"
	},
	"scenes":[{
		"nodes":[0]
	}],
	"nodes":[{
		"name":"הכל",
		"translation":[2.8443562984466554,
		2069.561767578125,
		-36.550662994384769],
		"rotation":[-0.03470831364393234,
		-0.10446478426456452,
		-0.003647990757599473,
		0.9939160346984863],
		"scale":[1.0,
		1.0,
		1.0],
		"children":[1,
		2,
		5,
		11]
	},
	{
		"name":"Sweep",
		"translation":[-2.8443562984466554,
		-2064.4091796875,
		-1.3434984683990479],
		"rotation":[5.551115123125783e-17,
		-1.8041124150158795e-16,
		-1.0014835710813627e-32,
		-1.0],
		"scale":[1.0,
		1.0,
		1.0],
		"mesh":0
	},
	{
		"name":"מציתים",
		"translation":[-3.2492008209228517,
		-1896.6951904296876,
		-0.9698944091796875],
		"rotation":[0.5,
		0.5,
		0.5,
		-0.5],
		"scale":[1.0,
		1.0,
		1.0],
		"children":[3,
		4]
	},
	{
		"name":"Cube.1",
		"translation":[-84.27973175048828,
		-1.1815627781490678e-18,
		-3.572718225322395e-14],
		"rotation":[0.0,
		0.0,
		0.0,
		-1.0],
		"scale":[1.0,
		1.0,
		1.0],
		"mesh":1
	},
	{
		"name":"Cube",
		"translation":[80.31371307373047,
		-1.130094980050559e-17,
		2.620325009693148e-15],
		"rotation":[0.0,
		0.0,
		0.0,
		-1.0],
		"scale":[1.0,
		1.0,
		1.0],
		"mesh":2
	},
	{
		"name":"ספרים",
		"translation":[6.093556880950928,
		-2072.065673828125,
		1.6057099103927613],
		"rotation":[5.551115123125783e-17,
		-1.8041124150158795e-16,
		-1.0014835710813627e-32,
		-1.0],
		"scale":[1.0,
		1.0,
		1.0],
		"children":[6,
		8,
		9]
	},
	{
		"name":"Subdivision Surface.3",
		"translation":[2.0151734352111818,
		-15.529377937316895,
		-47.80431365966797],
		"rotation":[0.5112651586532593,
		0.0,
		0.0,
		-0.859423041343689],
		"scale":[1.0,
		1.0,
		1.0],
		"children":[7]
	},
	{
		"name":"Cube.2",
		"translation":[-7.053107261657715,
		-4.485648155212402,
		1.9720420837402344],
		"rotation":[0.0,
		0.0,
		0.0,
		-1.0],
		"scale":[1.0,
		1.0,
		1.0],
		"mesh":3
	},
	{
		"name":"Cube.1",
		"translation":[-5.037933826446533,
		1.902262806892395,
		-5.576272964477539],
		"rotation":[0.9557022452354431,
		-4.0497048872367028e-17,
		4.0497048872367028e-17,
		-0.2943352460861206],
		"scale":[1.0,
		1.0,
		1.0],
		"mesh":4
	},
	{
		"name":"Subdivision Surface",
		"translation":[2.0151734352111818,
		3.507645845413208,
		46.80012130737305],
		"rotation":[-0.11480814963579178,
		0.0,
		0.0,
		-0.9933876991271973],
		"scale":[1.0,
		1.0,
		1.0],
		"children":[10]
	},
	{
		"name":"Cube.1",
		"translation":[-7.053107261657715,
		0.0,
		0.0],
		"rotation":[0.0,
		0.0,
		0.0,
		-1.0],
		"scale":[1.0,
		1.0,
		1.0],
		"mesh":5
	},
	{
		"name":"קופסת",
		"translation":[-2.8443562984466554,
		-1951.08349609375,
		-0.635815441608429],
		"rotation":[0.5,
		0.5,
		0.5,
		-0.5],
		"scale":[1.0,
		1.0,
		1.0],
		"children":[12,
		15]
	},
	{
		"name":"Boole",
		"translation":[7.105427357601002e-15,
		0.0,
		55.69185256958008],
		"rotation":[0.0,
		0.0,
		0.0,
		-1.0],
		"scale":[1.0,
		1.0,
		1.0],
		"children":[13,
		14]
	},
	{
		"name":"Cube.1",
		"translation":[-7.105427357601002e-15,
		3.944304526105059e-31,
		6.8310454338980749e-15],
		"rotation":[0.0,
		0.0,
		0.0,
		-1.0],
		"scale":[1.0,
		1.0,
		1.0],
		"mesh":6
	},
	{
		"name":"Cube.2",
		"translation":[-7.105427357601002e-15,
		3.944304526105059e-31,
		6.8310454338980749e-15],
		"rotation":[0.0,
		0.0,
		0.0,
		-1.0],
		"scale":[1.0,
		1.0,
		1.0],
		"mesh":7
	},
	{
		"name":"Polygon Reduction",
		"translation":[-107.4747314453125,
		7.661466121673584,
		-115.97217559814453],
		"rotation":[0.4639037847518921,
		0.5647205710411072,
		0.5336602330207825,
		0.4255474805831909],
		"scale":[1.0,
		1.0,
		1.0],
		"children":[16]
	},
	{
		"name":"Cube",
		"translation":[-28.642221450805665,
		86.09083557128906,
		97.90144348144531],
		"rotation":[0.4639037847518921,
		0.5647205710411072,
		0.5336602330207825,
		-0.4255474805831909],
		"scale":[1.0,
		1.0,
		1.0],
		"mesh":8
	}],
	"meshes":[{
		"name":"Sweep",
		"primitives":[{
			"attributes":{
				"POSITION":3,
				"NORMAL":4,
				"TEXCOORD_0":5
			},
			"indices":2
		}]
	},
	{
		"name":"Cube.1",
		"primitives":[{
			"attributes":{
				"POSITION":7,
				"NORMAL":8,
				"TEXCOORD_0":9
			},
			"indices":6,
			"material":0
		}]
	},
	{
		"name":"Cube",
		"primitives":[{
			"attributes":{
				"POSITION":11,
				"NORMAL":12,
				"TEXCOORD_0":13
			},
			"indices":10,
			"material":0
		}]
	},
	{
		"name":"Cube.2",
		"primitives":[{
			"attributes":{
				"POSITION":15,
				"NORMAL":16,
				"TEXCOORD_0":17
			},
			"indices":14,
			"material":0
		}]
	},
	{
		"name":"Cube.1",
		"primitives":[{
			"attributes":{
				"POSITION":19,
				"NORMAL":20,
				"TEXCOORD_0":21
			},
			"indices":18,
			"material":0
		}]
	},
	{
		"name":"Cube.1",
		"primitives":[{
			"attributes":{
				"POSITION":23,
				"NORMAL":24,
				"TEXCOORD_0":25
			},
			"indices":22,
			"material":0
		}]
	},
	{
		"name":"Cube.1",
		"primitives":[{
			"attributes":{
				"POSITION":27,
				"NORMAL":28,
				"TEXCOORD_0":29
			},
			"indices":26,
			"material":1
		}]
	},
	{
		"name":"Cube.2",
		"primitives":[{
			"attributes":{
				"POSITION":31,
				"NORMAL":32,
				"TEXCOORD_0":33
			},
			"indices":30,
			"material":1
		}]
	},
	{
		"name":"Cube",
		"primitives":[{
			"attributes":{
				"POSITION":35,
				"NORMAL":36,
				"TEXCOORD_0":37
			},
			"indices":34,
			"material":1
		}]
	}],
	"accessors":[{
		"bufferView":0,
		"type":"SCALAR",
		"componentType":5126,
		"count":901,
		"byteOffset":0,
		"min":[0.0],
		"max":[30.0]
	},
	{
		"bufferView":0,
		"type":"VEC4",
		"componentType":5126,
		"count":901,
		"byteOffset":3604,
		"min":[-0.05043031647801399,
		-0.12171395868062973,
		-0.004075881093740463,
		-0.9999930262565613],
		"max":[0.013771052472293377,
		0.0,
		0.0061674416065216068,
		0.9999949336051941]
	},
	{
		"bufferView":1,
		"type":"SCALAR",
		"componentType":5123,
		"count":5172,
		"byteOffset":0,
		"min":[0],
		"max":[959]
	},
	{
		"bufferView":2,
		"type":"VEC3",
		"componentType":5126,
		"count":960,
		"byteOffset":0,
		"min":[-10.890533447265625,
		203.65309143066407,
		-185.81707763671876],
		"max":[2.9947702884674074,
		4859.35986328125,
		38.92235565185547]
	},
	{
		"bufferView":2,
		"type":"VEC3",
		"componentType":5126,
		"count":960,
		"byteOffset":12,
		"min":[-0.999284565448761,
		-0.9634330868721008,
		-0.9985345602035523],
		"max":[0.999284565448761,
		0.9994465708732605,
		0.9985347390174866]
	},
	{
		"bufferView":2,
		"type":"VEC2",
		"componentType":5126,
		"count":960,
		"byteOffset":24,
		"min":[0.0,
		0.0],
		"max":[1.0,
		1.0]
	},
	{
		"bufferView":3,
		"type":"SCALAR",
		"componentType":5123,
		"count":612,
		"byteOffset":0,
		"min":[0],
		"max":[179]
	},
	{
		"bufferView":4,
		"type":"VEC3",
		"componentType":5126,
		"count":180,
		"byteOffset":0,
		"min":[-2.5,
		-22.5,
		-115.67009735107422],
		"max":[2.5,
		22.5,
		115.67009735107422]
	},
	{
		"bufferView":4,
		"type":"VEC3",
		"componentType":5126,
		"count":180,
		"byteOffset":12,
		"min":[-0.9832740426063538,
		-0.9873345494270325,
		-0.9625035524368286],
		"max":[0.9832740426063538,
		0.9865116477012634,
		0.9625035524368286]
	},
	{
		"bufferView":4,
		"type":"VEC2",
		"componentType":5126,
		"count":180,
		"byteOffset":24,
		"min":[0.0,
		0.0],
		"max":[1.0,
		1.0]
	},
	{
		"bufferView":5,
		"type":"SCALAR",
		"componentType":5123,
		"count":612,
		"byteOffset":0,
		"min":[0],
		"max":[179]
	},
	{
		"bufferView":6,
		"type":"VEC3",
		"componentType":5126,
		"count":180,
		"byteOffset":0,
		"min":[-2.5,
		-22.5,
		-115.67009735107422],
		"max":[2.5,
		22.5,
		115.67009735107422]
	},
	{
		"bufferView":6,
		"type":"VEC3",
		"componentType":5126,
		"count":180,
		"byteOffset":12,
		"min":[-0.9832740426063538,
		-0.9873345494270325,
		-0.9625035524368286],
		"max":[0.9832740426063538,
		0.9865116477012634,
		0.9625035524368286]
	},
	{
		"bufferView":6,
		"type":"VEC2",
		"componentType":5126,
		"count":180,
		"byteOffset":24,
		"min":[0.0,
		0.0],
		"max":[1.0,
		1.0]
	},
	{
		"bufferView":7,
		"type":"SCALAR",
		"componentType":5123,
		"count":111936,
		"byteOffset":0,
		"min":[0],
		"max":[19597]
	},
	{
		"bufferView":8,
		"type":"VEC3",
		"componentType":5126,
		"count":19598,
		"byteOffset":0,
		"min":[-19.921058654785158,
		-30.13245391845703,
		-5.217921257019043],
		"max":[20.410724639892579,
		30.149986267089845,
		5.3334150314331059]
	},
	{
		"bufferView":8,
		"type":"VEC3",
		"componentType":5126,
		"count":19598,
		"byteOffset":12,
		"min":[-1.0,
		-1.0,
		-1.0],
		"max":[1.0,
		1.0,
		1.0]
	},
	{
		"bufferView":8,
		"type":"VEC2",
		"componentType":5126,
		"count":19598,
		"byteOffset":24,
		"min":[0.0,
		0.0],
		"max":[1.0,
		1.0]
	},
	{
		"bufferView":9,
		"type":"SCALAR",
		"componentType":5123,
		"count":111936,
		"byteOffset":0,
		"min":[0],
		"max":[19531]
	},
	{
		"bufferView":10,
		"type":"VEC3",
		"componentType":5126,
		"count":19532,
		"byteOffset":0,
		"min":[-19.86700439453125,
		-20.77700424194336,
		-35.061058044433597],
		"max":[20.157405853271486,
		20.77849578857422,
		-14.677146911621094]
	},
	{
		"bufferView":10,
		"type":"VEC3",
		"componentType":5126,
		"count":19532,
		"byteOffset":12,
		"min":[-1.0,
		-1.0,
		-1.0],
		"max":[1.0,
		1.0,
		1.0]
	},
	{
		"bufferView":10,
		"type":"VEC2",
		"componentType":5126,
		"count":19532,
		"byteOffset":24,
		"min":[0.0,
		0.0],
		"max":[1.0,
		1.0]
	},
	{
		"bufferView":11,
		"type":"SCALAR",
		"componentType":5123,
		"count":111936,
		"byteOffset":0,
		"min":[0],
		"max":[19550]
	},
	{
		"bufferView":12,
		"type":"VEC3",
		"componentType":5126,
		"count":19551,
		"byteOffset":0,
		"min":[-19.86686897277832,
		-36.65867614746094,
		-10.324407577514649],
		"max":[20.157405853271486,
		36.66130447387695,
		10.059503555297852]
	},
	{
		"bufferView":12,
		"type":"VEC3",
		"componentType":5126,
		"count":19551,
		"byteOffset":12,
		"min":[-1.0,
		-1.0,
		-1.0],
		"max":[1.0,
		1.0,
		1.0]
	},
	{
		"bufferView":12,
		"type":"VEC2",
		"componentType":5126,
		"count":19551,
		"byteOffset":24,
		"min":[0.0,
		0.0],
		"max":[1.0,
		1.0]
	},
	{
		"bufferView":13,
		"type":"SCALAR",
		"componentType":5123,
		"count":648,
		"byteOffset":0,
		"min":[0],
		"max":[173]
	},
	{
		"bufferView":14,
		"type":"VEC3",
		"componentType":5126,
		"count":174,
		"byteOffset":0,
		"min":[-80.0,
		-30.0,
		-130.0],
		"max":[80.0,
		30.0,
		130.0]
	},
	{
		"bufferView":14,
		"type":"VEC3",
		"componentType":5126,
		"count":174,
		"byteOffset":12,
		"min":[-0.9832740426063538,
		-0.9865116477012634,
		-1.0],
		"max":[0.9832740426063538,
		0.9865115880966187,
		1.0]
	},
	{
		"bufferView":14,
		"type":"VEC2",
		"componentType":5126,
		"count":174,
		"byteOffset":24,
		"min":[0.0,
		0.0],
		"max":[1.0,
		1.0]
	},
	{
		"bufferView":15,
		"type":"SCALAR",
		"componentType":5123,
		"count":24,
		"byteOffset":0,
		"min":[0],
		"max":[15]
	},
	{
		"bufferView":16,
		"type":"VEC3",
		"componentType":5126,
		"count":16,
		"byteOffset":0,
		"min":[-75.0,
		-25.0,
		-130.0],
		"max":[75.0,
		25.0,
		130.0]
	},
	{
		"bufferView":16,
		"type":"VEC3",
		"componentType":5126,
		"count":16,
		"byteOffset":12,
		"min":[-1.0,
		-1.0,
		0.0],
		"max":[1.0,
		1.0,
		0.0]
	},
	{
		"bufferView":16,
		"type":"VEC2",
		"componentType":5126,
		"count":16,
		"byteOffset":24,
		"min":[0.0,
		0.0],
		"max":[1.0,
		1.0]
	},
	{
		"bufferView":17,
		"type":"SCALAR",
		"componentType":5123,
		"count":41190,
		"byteOffset":0,
		"min":[0],
		"max":[8199]
	},
	{
		"bufferView":18,
		"type":"VEC3",
		"componentType":5126,
		"count":8200,
		"byteOffset":0,
		"min":[-79.3700942993164,
		-25.000001907348634,
		-127.46334838867188],
		"max":[75.20364379882813,
		25.000001907348634,
		125.0]
	},
	{
		"bufferView":18,
		"type":"VEC3",
		"componentType":5126,
		"count":8200,
		"byteOffset":12,
		"min":[-1.0,
		-1.0,
		-1.0],
		"max":[1.0,
		1.0,
		1.0]
	},
	{
		"bufferView":18,
		"type":"VEC2",
		"componentType":5126,
		"count":8200,
		"byteOffset":24,
		"min":[0.0,
		0.0],
		"max":[1.0,
		1.0]
	}],
	"bufferViews":[{
		"byteOffset":0,
		"buffer":0,
		"byteLength":18020
	},
	{
		"byteOffset":0,
		"buffer":1,
		"byteLength":10344,
		"target":34963
	},
	{
		"byteOffset":10344,
		"buffer":1,
		"byteLength":30720,
		"target":34962,
		"byteStride":32
	},
	{
		"byteOffset":0,
		"buffer":2,
		"byteLength":1224,
		"target":34963
	},
	{
		"byteOffset":1224,
		"buffer":2,
		"byteLength":5760,
		"target":34962,
		"byteStride":32
	},
	{
		"byteOffset":0,
		"buffer":3,
		"byteLength":1224,
		"target":34963
	},
	{
		"byteOffset":1224,
		"buffer":3,
		"byteLength":5760,
		"target":34962,
		"byteStride":32
	},
	{
		"byteOffset":0,
		"buffer":4,
		"byteLength":223872,
		"target":34963
	},
	{
		"byteOffset":223872,
		"buffer":4,
		"byteLength":627136,
		"target":34962,
		"byteStride":32
	},
	{
		"byteOffset":0,
		"buffer":5,
		"byteLength":223872,
		"target":34963
	},
	{
		"byteOffset":223872,
		"buffer":5,
		"byteLength":625024,
		"target":34962,
		"byteStride":32
	},
	{
		"byteOffset":0,
		"buffer":6,
		"byteLength":223872,
		"target":34963
	},
	{
		"byteOffset":223872,
		"buffer":6,
		"byteLength":625632,
		"target":34962,
		"byteStride":32
	},
	{
		"byteOffset":0,
		"buffer":7,
		"byteLength":1296,
		"target":34963
	},
	{
		"byteOffset":1296,
		"buffer":7,
		"byteLength":5568,
		"target":34962,
		"byteStride":32
	},
	{
		"byteOffset":0,
		"buffer":8,
		"byteLength":48,
		"target":34963
	},
	{
		"byteOffset":48,
		"buffer":8,
		"byteLength":512,
		"target":34962,
		"byteStride":32
	},
	{
		"byteOffset":0,
		"buffer":9,
		"byteLength":82380,
		"target":34963
	},
	{
		"byteOffset":82380,
		"buffer":9,
		"byteLength":262400,
		"target":34962,
		"byteStride":32
	}],
	"buffers":[{
		"uri":"data:application/octet-stream;base64,",
		"byteLength":18020
	},
	{
		"uri":"data:application/octet-stream;base64,",
		"byteLength":41064
	},
	{
		"uri":"data:application/octet-stream;base64,",
		"byteLength":6984
	},
	{
		"uri":"data:application/octet-stream;base64,",
		"byteLength":6984
	},
	{
		"uri":"data:application/octet-stream;base64,",
		"byteLength":851008
	},
	{
		"uri":"data:application/octet-stream;base64,",
		"byteLength":848896
	},
	{
		"uri":"data:application/octet-stream;base64,",
		"byteLength":849504
	},
	{
		"uri":"data:application/octet-stream;base64,",
		"byteLength":6864
	},
	{
		"uri":"data:application/octet-stream;base64,",
		"byteLength":560
	},
	{
		"uri":"data:application/octet-stream;base64,",
		"byteLength":344780
	}],
	"materials":[{
		"doubleSided":true,
		"pbrMetallicRoughness":{
			"baseColorFactor":[0.0,
			0.0,
			0.0,
			1.0],
			"metallicFactor":0.0,
			"roughnessFactor":0.5
		},
		"emissiveFactor":[0.0,
		0.0,
		0.0],
		"alphaMode":"OPAQUE",
		"name":"Mat.1"
	},
	{
		"doubleSided":true,
		"pbrMetallicRoughness":{
			"baseColorFactor":[1.0,
			1.0,
			1.0,
			1.0],
			"metallicFactor":0.0,
			"roughnessFactor":0.5
		},
		"emissiveFactor":[0.0,
		0.0,
		0.0],
		"alphaMode":"OPAQUE",
		"name":"Mat"
	}],
	"animations":[{
		"samplers":[{
			"input":0,
			"interpolation":"LINEAR",
			"output":1
		}],
		"channels":[{
			"sampler":0,
			"target":{
				"node":0,
				"path":"rotation"
			}
		}]
	}]
}