{
	"asset":{
		"version":"2.0",
		"generator":"Created using the official Cinema 4D glTF Exporter 1.000x284978"
	},
	"scenes":[{
		"nodes":[0,
		4,
		8]
	}],
	"nodes":[{
		"name":"Null.3",
		"translation":[274.5267333984375,
		2357.621337890625,
		1411.5606689453126],
		"rotation":[0.0,
		-0.07383625954389572,
		0.0,
		-0.997270405292511],
		"scale":[1.0,
		1.0,
		1.0],
		"children":[1]
	},
	{
		"name":"נפח.3",
		"translation":[-155.7229766845703,
		4.547473508864641e-13,
		-1088.209228515625],
		"rotation":[0.0,
		0.0,
		0.0,
		-1.0],
		"scale":[1.0,
		1.0,
		1.0],
		"mesh":0,
		"children":[2,
		3]
	},
	{
		"name":"Cap 1",
		"translation":[-447.72918701171877,
		-434.5129089355469,
		-1303.019287109375],
		"rotation":[0.0,
		-0.07100781798362732,
		0.0,
		-0.9974757432937622],
		"scale":[1.0,
		1.0,
		1.0],
		"mesh":1
	},
	{
		"name":"Cap 2",
		"translation":[-447.72918701171877,
		-434.5129089355469,
		-1303.019287109375],
		"rotation":[0.0,
		-0.07100781798362732,
		0.0,
		-0.9974757432937622],
		"scale":[1.0,
		1.0,
		1.0],
		"mesh":2
	},
	{
		"name":"Null.1",
		"translation":[303.73858642578127,
		-1.6729916334152222,
		369.61151123046877],
		"rotation":[2.1466337596365294e-9,
		-0.14405815303325654,
		-1.4745730858578554e-8,
		0.9895692467689514],
		"scale":[1.0,
		1.0,
		1.0],
		"children":[5]
	},
	{
		"name":"נפח.1",
		"translation":[7.105427357601002e-15,
		0.0,
		0.0],
		"rotation":[0.0,
		0.0,
		0.0,
		-1.0],
		"scale":[1.0,
		1.0,
		1.0],
		"mesh":3,
		"children":[6,
		7]
	},
	{
		"name":"Cap 1",
		"translation":[-716.6416625976563,
		0.0,
		-2814.561767578125],
		"rotation":[0.0,
		-0.07100781798362732,
		0.0,
		-0.9974757432937622],
		"scale":[1.0,
		1.0,
		1.0],
		"mesh":4
	},
	{
		"name":"Cap 2",
		"translation":[-716.6416625976563,
		0.0,
		-2814.561767578125],
		"rotation":[0.0,
		-0.07100781798362732,
		0.0,
		-0.9974757432937622],
		"scale":[1.0,
		1.0,
		1.0],
		"mesh":5
	},
	{
		"name":"Null.2",
		"translation":[310.71209716796877,
		0.0,
		266.32049560546877],
		"rotation":[0.0,
		-0.034164778888225558,
		0.0,
		-0.9994162321090698],
		"scale":[1.0,
		1.0,
		1.0],
		"children":[9]
	},
	{
		"name":"נפח.4",
		"translation":[7.105427357601002e-15,
		0.0,
		0.0],
		"rotation":[0.0,
		0.0,
		0.0,
		-1.0],
		"scale":[1.0,
		1.0,
		1.0],
		"mesh":6,
		"children":[10,
		11]
	},
	{
		"name":"Cap 1",
		"translation":[-656.1637573242188,
		6.720118045806885,
		-2507.884765625],
		"rotation":[0.0,
		-0.07100781798362732,
		0.0,
		-0.9974757432937622],
		"scale":[1.0,
		1.0,
		1.0],
		"mesh":7
	},
	{
		"name":"Cap 2",
		"translation":[-656.1637573242188,
		6.720118045806885,
		-2507.884765625],
		"rotation":[0.0,
		-0.07100781798362732,
		0.0,
		-0.9974757432937622],
		"scale":[1.0,
		1.0,
		1.0],
		"mesh":8
	}],
	"meshes":[{
		"name":"נפח.3",
		"primitives":[{
			"attributes":{
				"POSITION":1,
				"NORMAL":2,
				"TEXCOORD_0":3
			},
			"indices":0,
			"material":0
		}]
	},
	{
		"name":"Cap 1",
		"primitives":[{
			"attributes":{
				"POSITION":5,
				"NORMAL":6,
				"TEXCOORD_0":7
			},
			"indices":4,
			"material":0
		}]
	},
	{
		"name":"Cap 2",
		"primitives":[{
			"attributes":{
				"POSITION":9,
				"NORMAL":10,
				"TEXCOORD_0":11
			},
			"indices":8,
			"material":0
		}]
	},
	{
		"name":"נפח.1",
		"primitives":[{
			"attributes":{
				"POSITION":13,
				"NORMAL":14,
				"TEXCOORD_0":15
			},
			"indices":12,
			"material":0
		}]
	},
	{
		"name":"Cap 1",
		"primitives":[{
			"attributes":{
				"POSITION":17,
				"NORMAL":18,
				"TEXCOORD_0":19
			},
			"indices":16,
			"material":0
		}]
	},
	{
		"name":"Cap 2",
		"primitives":[{
			"attributes":{
				"POSITION":21,
				"NORMAL":22,
				"TEXCOORD_0":23
			},
			"indices":20,
			"material":0
		}]
	},
	{
		"name":"נפח.4",
		"primitives":[{
			"attributes":{
				"POSITION":25,
				"NORMAL":26,
				"TEXCOORD_0":27
			},
			"indices":24,
			"material":0
		}]
	},
	{
		"name":"Cap 1",
		"primitives":[{
			"attributes":{
				"POSITION":29,
				"NORMAL":30,
				"TEXCOORD_0":31
			},
			"indices":28,
			"material":0
		}]
	},
	{
		"name":"Cap 2",
		"primitives":[{
			"attributes":{
				"POSITION":33,
				"NORMAL":34,
				"TEXCOORD_0":35
			},
			"indices":32,
			"material":0
		}]
	}],
	"accessors":[{
		"type":"SCALAR",
		"bufferView":0,
		"byteOffset":0,
		"componentType":5123,
		"max":[15],
		"count":24,
		"min":[0]
	},
	{
		"type":"VEC3",
		"bufferView":1,
		"byteOffset":0,
		"componentType":5126,
		"max":[115.9027328491211,
		155.00352478027345,
		1238.08056640625],
		"count":16,
		"min":[-111.43482971191406,
		-434.5129089355469,
		1047.042724609375]
	},
	{
		"type":"VEC3",
		"bufferView":1,
		"byteOffset":12,
		"componentType":5126,
		"max":[0.0,
		1.0,
		1.0],
		"count":16,
		"min":[0.0,
		-1.0,
		-1.0]
	},
	{
		"type":"VEC2",
		"bufferView":1,
		"byteOffset":24,
		"componentType":5126,
		"max":[1.0,
		1.0],
		"count":16,
		"min":[0.0,
		0.0]
	},
	{
		"type":"SCALAR",
		"bufferView":2,
		"byteOffset":0,
		"componentType":5123,
		"max":[4],
		"count":6,
		"min":[0]
	},
	{
		"type":"VEC3",
		"bufferView":3,
		"byteOffset":0,
		"componentType":5126,
		"max":[0.0,
		589.5164184570313,
		2566.986083984375],
		"count":5,
		"min":[0.0,
		-5.684341886080802e-14,
		2374.001953125]
	},
	{
		"type":"VEC3",
		"bufferView":3,
		"byteOffset":12,
		"componentType":5126,
		"max":[-1.0,
		0.0,
		0.0],
		"count":5,
		"min":[-1.0,
		0.0,
		0.0]
	},
	{
		"type":"VEC2",
		"bufferView":3,
		"byteOffset":24,
		"componentType":5126,
		"max":[0.4999998211860657,
		1.0],
		"count":5,
		"min":[0.0,
		0.0]
	},
	{
		"type":"SCALAR",
		"bufferView":4,
		"byteOffset":0,
		"componentType":5123,
		"max":[4],
		"count":6,
		"min":[0]
	},
	{
		"type":"VEC3",
		"bufferView":5,
		"byteOffset":0,
		"componentType":5126,
		"max":[197.983154296875,
		589.5164184570313,
		2595.3173828125],
		"count":5,
		"min":[197.983154296875,
		-5.684341886080802e-14,
		2402.33349609375]
	},
	{
		"type":"VEC3",
		"bufferView":5,
		"byteOffset":12,
		"componentType":5126,
		"max":[1.0,
		0.0,
		-1.4727495526297509e-16],
		"count":5,
		"min":[1.0,
		-2.2721316035151427e-31,
		-1.4727495526297509e-16]
	},
	{
		"type":"VEC2",
		"bufferView":5,
		"byteOffset":24,
		"componentType":5126,
		"max":[0.4999998211860657,
		1.0],
		"count":5,
		"min":[0.0,
		0.0]
	},
	{
		"type":"SCALAR",
		"bufferView":6,
		"byteOffset":0,
		"componentType":5123,
		"max":[15],
		"count":24,
		"min":[0]
	},
	{
		"type":"VEC3",
		"bufferView":7,
		"byteOffset":0,
		"componentType":5126,
		"max":[-153.00975036621095,
		589.5164184570313,
		-273.4618225097656],
		"count":16,
		"min":[-380.3473205566406,
		0.0,
		-464.4997253417969]
	},
	{
		"type":"VEC3",
		"bufferView":7,
		"byteOffset":12,
		"componentType":5126,
		"max":[0.0,
		1.0,
		1.0],
		"count":16,
		"min":[0.0,
		-1.0,
		-1.0]
	},
	{
		"type":"VEC2",
		"bufferView":7,
		"byteOffset":24,
		"componentType":5126,
		"max":[1.0,
		1.0],
		"count":16,
		"min":[0.0,
		0.0]
	},
	{
		"type":"SCALAR",
		"bufferView":8,
		"byteOffset":0,
		"componentType":5123,
		"max":[4],
		"count":6,
		"min":[0]
	},
	{
		"type":"VEC3",
		"bufferView":9,
		"byteOffset":0,
		"componentType":5126,
		"max":[5.684341886080802e-14,
		589.5164184570313,
		2566.986083984375],
		"count":5,
		"min":[1.4210854715202005e-14,
		0.0,
		2374.001953125]
	},
	{
		"type":"VEC3",
		"bufferView":9,
		"byteOffset":12,
		"componentType":5126,
		"max":[-1.0,
		2.410596872626125e-17,
		-1.4727495526297509e-16],
		"count":5,
		"min":[-1.0,
		0.0,
		-2.2091242627701774e-16]
	},
	{
		"type":"VEC2",
		"bufferView":9,
		"byteOffset":24,
		"componentType":5126,
		"max":[0.4999998211860657,
		1.0],
		"count":5,
		"min":[0.0,
		0.0]
	},
	{
		"type":"SCALAR",
		"bufferView":10,
		"byteOffset":0,
		"componentType":5123,
		"max":[4],
		"count":6,
		"min":[0]
	},
	{
		"type":"VEC3",
		"bufferView":11,
		"byteOffset":0,
		"componentType":5126,
		"max":[197.983154296875,
		589.5164184570313,
		2595.3173828125],
		"count":5,
		"min":[197.983154296875,
		0.0,
		2402.33349609375]
	},
	{
		"type":"VEC3",
		"bufferView":11,
		"byteOffset":12,
		"componentType":5126,
		"max":[1.0,
		0.0,
		1.4727495526297509e-16],
		"count":5,
		"min":[1.0,
		-4.82119374525225e-17,
		0.0]
	},
	{
		"type":"VEC2",
		"bufferView":11,
		"byteOffset":24,
		"componentType":5126,
		"max":[0.4999998211860657,
		1.0],
		"count":5,
		"min":[0.0,
		0.0]
	},
	{
		"type":"SCALAR",
		"bufferView":12,
		"byteOffset":0,
		"componentType":5123,
		"max":[15],
		"count":24,
		"min":[0]
	},
	{
		"type":"VEC3",
		"bufferView":13,
		"byteOffset":0,
		"componentType":5126,
		"max":[-92.53179931640625,
		596.236572265625,
		33.21506881713867],
		"count":16,
		"min":[-319.8693542480469,
		6.720118045806885,
		-157.82284545898438]
	},
	{
		"type":"VEC3",
		"bufferView":13,
		"byteOffset":12,
		"componentType":5126,
		"max":[0.0,
		1.0,
		1.0],
		"count":16,
		"min":[0.0,
		-1.0,
		-1.0]
	},
	{
		"type":"VEC2",
		"bufferView":13,
		"byteOffset":24,
		"componentType":5126,
		"max":[1.0,
		1.0],
		"count":16,
		"min":[0.0,
		0.0]
	},
	{
		"type":"SCALAR",
		"bufferView":14,
		"byteOffset":0,
		"componentType":5123,
		"max":[4],
		"count":6,
		"min":[0]
	},
	{
		"type":"VEC3",
		"bufferView":15,
		"byteOffset":0,
		"componentType":5126,
		"max":[-4.1744385725905889e-14,
		589.5164184570313,
		2566.986083984375],
		"count":5,
		"min":[-6.394884621840902e-14,
		8.881784197001253e-16,
		2374.001953125]
	},
	{
		"type":"VEC3",
		"bufferView":15,
		"byteOffset":12,
		"componentType":5126,
		"max":[-1.0,
		1.2052984363130625e-17,
		1.150585600399702e-16],
		"count":5,
		"min":[-1.0,
		0.0,
		7.823981791550398e-17]
	},
	{
		"type":"VEC2",
		"bufferView":15,
		"byteOffset":24,
		"componentType":5126,
		"max":[0.4999998211860657,
		1.0],
		"count":5,
		"min":[0.0,
		0.0]
	},
	{
		"type":"SCALAR",
		"bufferView":16,
		"byteOffset":0,
		"componentType":5123,
		"max":[4],
		"count":6,
		"min":[0]
	},
	{
		"type":"VEC3",
		"bufferView":17,
		"byteOffset":0,
		"componentType":5126,
		"max":[197.983154296875,
		589.5164184570313,
		2595.3173828125],
		"count":5,
		"min":[197.983154296875,
		8.881784197001253e-16,
		2402.33349609375]
	},
	{
		"type":"VEC3",
		"bufferView":17,
		"byteOffset":12,
		"componentType":5126,
		"max":[1.0,
		1.1360658017575713e-31,
		1.4727495526297509e-16],
		"count":5,
		"min":[1.0,
		0.0,
		1.4727495526297509e-16]
	},
	{
		"type":"VEC2",
		"bufferView":17,
		"byteOffset":24,
		"componentType":5126,
		"max":[0.4999998211860657,
		1.0],
		"count":5,
		"min":[0.0,
		0.0]
	}],
	"bufferViews":[{
		"buffer":0,
		"byteOffset":0,
		"byteLength":48,
		"target":34963
	},
	{
		"buffer":0,
		"byteOffset":48,
		"byteLength":512,
		"target":34962,
		"byteStride":32
	},
	{
		"buffer":1,
		"byteOffset":0,
		"byteLength":12,
		"target":34963
	},
	{
		"buffer":1,
		"byteOffset":12,
		"byteLength":160,
		"target":34962,
		"byteStride":32
	},
	{
		"buffer":2,
		"byteOffset":0,
		"byteLength":12,
		"target":34963
	},
	{
		"buffer":2,
		"byteOffset":12,
		"byteLength":160,
		"target":34962,
		"byteStride":32
	},
	{
		"buffer":3,
		"byteOffset":0,
		"byteLength":48,
		"target":34963
	},
	{
		"buffer":3,
		"byteOffset":48,
		"byteLength":512,
		"target":34962,
		"byteStride":32
	},
	{
		"buffer":4,
		"byteOffset":0,
		"byteLength":12,
		"target":34963
	},
	{
		"buffer":4,
		"byteOffset":12,
		"byteLength":160,
		"target":34962,
		"byteStride":32
	},
	{
		"buffer":5,
		"byteOffset":0,
		"byteLength":12,
		"target":34963
	},
	{
		"buffer":5,
		"byteOffset":12,
		"byteLength":160,
		"target":34962,
		"byteStride":32
	},
	{
		"buffer":6,
		"byteOffset":0,
		"byteLength":48,
		"target":34963
	},
	{
		"buffer":6,
		"byteOffset":48,
		"byteLength":512,
		"target":34962,
		"byteStride":32
	},
	{
		"buffer":7,
		"byteOffset":0,
		"byteLength":12,
		"target":34963
	},
	{
		"buffer":7,
		"byteOffset":12,
		"byteLength":160,
		"target":34962,
		"byteStride":32
	},
	{
		"buffer":8,
		"byteOffset":0,
		"byteLength":12,
		"target":34963
	},
	{
		"buffer":8,
		"byteOffset":12,
		"byteLength":160,
		"target":34962,
		"byteStride":32
	}],
	"materials":[{
		"pbrMetallicRoughness":{
			"baseColorFactor":[0.8,
			0.8,
			0.8,
			1.0],
			"metallicFactor":0.13,
			"roughnessFactor":0.46
		},
		"emissiveFactor":[0.0,
		0.0,
		0.0],
		"alphaMode":"OPAQUE",
		"doubleSided":true,
		"name":"Mat.4"
	}],
	"buffers":[{
		"uri":"data:application/octet-stream;base64,",
		"byteLength":560
	},
	{
		"uri":"data:application/octet-stream;base64,",
		"byteLength":172
	},
	{
		"uri":"data:application/octet-stream;base64,",
		"byteLength":172
	},
	{
		"uri":"data:application/octet-stream;base64,",
		"byteLength":560
	},
	{
		"uri":"data:application/octet-stream;base64,",
		"byteLength":172
	},
	{
		"uri":"data:application/octet-stream;base64,",
		"byteLength":172
	},
	{
		"uri":"data:application/octet-stream;base64,",
		"byteLength":560
	},
	{
		"uri":"data:application/octet-stream;base64,",
		"byteLength":172
	},
	{
		"uri":"data:application/octet-stream;base64,",
		"byteLength":172
	}]
}