{
	"asset":{
		"version":"2.0",
		"generator":"Created using the official Cinema 4D glTF Exporter 1.000x284978"
	},
	"scenes":[{
		"nodes":[0]
	}],
	"nodes":[{
		"rotation":[0.06249263510107994,
		0.4642117917537689,
		0.03285720944404602,
		0.8829057216644287],
		"name":"מרגמה טובה.1",
		"translation":[988.358642578125,
		0.0,
		-2569.110107421875],
		"mesh":0,
		"scale":[1.0,
		1.0,
		1.0]
	}],
	"meshes":[{
		"name":"מרגמה טובה.1",
		"primitives":[{
			"indices":0,
			"targets":[{
				"POSITION":3
			},
			{
				"POSITION":4
			}],
			"attributes":{
				"POSITION":1,
				"NORMAL":2
			},
			"material":0
		}],
		"weights":[0.0,
		1.0]
	}],
	"accessors":[{
		"min":[0],
		"bufferView":0,
		"type":"SCALAR",
		"max":[9351],
		"componentType":5123,
		"count":38832,
		"byteOffset":0
	},
	{
		"min":[-437.88385009765627,
		-2.36214542388916,
		-465.7757263183594],
		"bufferView":1,
		"type":"VEC3",
		"max":[440.306396484375,
		5285.60205078125,
		410.5842590332031],
		"componentType":5126,
		"count":9352,
		"byteOffset":0
	},
	{
		"min":[-0.999998927116394,
		-0.99968421459198,
		-0.9999940991401672],
		"bufferView":1,
		"type":"VEC3",
		"max":[0.999998927116394,
		1.0,
		0.9999942183494568],
		"componentType":5126,
		"count":9352,
		"byteOffset":12
	},
	{
		"min":[-262.4702453613281,
		-53.3040657043457,
		0.0],
		"bufferView":2,
		"type":"VEC3",
		"max":[0.0,
		0.0,
		626.5416870117188],
		"componentType":5126,
		"count":9352,
		"byteOffset":0
	},
	{
		"min":[-1650.9688720703126,
		-1109.32080078125,
		0.0],
		"bufferView":3,
		"type":"VEC3",
		"max":[62.253028869628909,
		62.11248779296875,
		1442.8927001953126],
		"componentType":5126,
		"count":9352,
		"byteOffset":0
	},
	{
		"min":[0.0],
		"bufferView":4,
		"type":"SCALAR",
		"max":[5.0],
		"componentType":5126,
		"count":5,
		"byteOffset":0
	},
	{
		"min":[-0.3514961004257202],
		"bufferView":4,
		"type":"SCALAR",
		"max":[1.0226024389266968],
		"componentType":5126,
		"count":30,
		"byteOffset":20
	}],
	"bufferViews":[{
		"buffer":0,
		"byteOffset":0,
		"byteLength":77664,
		"target":34963
	},
	{
		"buffer":0,
		"byteOffset":77664,
		"byteLength":224448,
		"target":34962,
		"byteStride":24
	},
	{
		"buffer":0,
		"byteOffset":302112,
		"byteLength":112224,
		"target":34962
	},
	{
		"buffer":0,
		"byteOffset":414336,
		"byteLength":112224,
		"target":34962
	},
	{
		"buffer":1,
		"byteOffset":0,
		"byteLength":140
	}],
	"buffers":[{
		"uri":"data:application/octet-stream;base64,",
		"byteLength":526560
	},
	{
		"uri":"data:application/octet-stream;base64,",
		"byteLength":140
	}],
	"materials":[{
		"pbrMetallicRoughness":{
			"baseColorFactor":[1.0,
			0.5166666666666666,
			0.0,
			1.0],
			"metallicFactor":1.0,
			"roughnessFactor":1.0
		},
		"emissiveFactor":[0.0,
		0.0,
		0.0],
		"alphaMode":"OPAQUE",
		"doubleSided":true,
		"name":"Mat"
	}],
	"animations":[{
		"samplers":[{
			"input":5,
			"interpolation":"CUBICSPLINE",
			"output":6
		}],
		"channels":[{
			"sampler":0,
			"target":{
				"node":0,
				"path":"weights"
			}
		}]
	}]
}