{
	"asset":{
		"version":"2.0",
		"generator":"Created using the official Cinema 4D glTF Exporter 1.000x284978"
	},
	"scenes":[{
		"nodes":[0,
		2]
	}],
	"accessors":[{
		"bufferView":0,
		"type":"SCALAR",
		"componentType":5123,
		"max":[147],
		"count":432,
		"byteOffset":0,
		"min":[0]
	},
	{
		"bufferView":1,
		"type":"VEC3",
		"componentType":5126,
		"max":[350.0,
		10.0,
		350.0],
		"count":148,
		"byteOffset":0,
		"min":[-350.0,
		-10.0,
		-350.0]
	},
	{
		"bufferView":1,
		"type":"VEC3",
		"componentType":5126,
		"max":[0.9995750784873962,
		1.0,
		0.9995750784873962],
		"count":148,
		"byteOffset":12,
		"min":[-0.9995750784873962,
		-1.0,
		-0.9995750784873962]
	},
	{
		"bufferView":1,
		"type":"VEC2",
		"componentType":5126,
		"max":[1.0,
		1.0],
		"count":148,
		"byteOffset":24,
		"min":[0.0,
		0.0]
	},
	{
		"bufferView":2,
		"type":"SCALAR",
		"componentType":5123,
		"max":[75],
		"count":162,
		"byteOffset":0,
		"min":[0]
	},
	{
		"bufferView":3,
		"type":"VEC3",
		"componentType":5126,
		"max":[100.0,
		475.109375,
		126.16028594970703],
		"count":76,
		"byteOffset":0,
		"min":[0.0,
		0.0,
		-143.35446166992188]
	},
	{
		"bufferView":3,
		"type":"VEC3",
		"componentType":5126,
		"max":[0.0,
		1.0,
		1.0],
		"count":76,
		"byteOffset":12,
		"min":[0.0,
		-1.0,
		-1.0]
	},
	{
		"bufferView":3,
		"type":"VEC2",
		"componentType":5126,
		"max":[1.0,
		1.0],
		"count":76,
		"byteOffset":24,
		"min":[0.0,
		0.0]
	},
	{
		"bufferView":4,
		"type":"SCALAR",
		"componentType":5123,
		"max":[55],
		"count":69,
		"byteOffset":0,
		"min":[0]
	},
	{
		"bufferView":5,
		"type":"VEC3",
		"componentType":5126,
		"max":[0.0,
		475.109375,
		1644.0013427734376],
		"count":56,
		"byteOffset":0,
		"min":[0.0,
		0.0,
		1374.486572265625]
	},
	{
		"bufferView":5,
		"type":"VEC3",
		"componentType":5126,
		"max":[-1.0,
		0.0,
		0.0],
		"count":56,
		"byteOffset":12,
		"min":[-1.0,
		0.0,
		0.0]
	},
	{
		"bufferView":5,
		"type":"VEC2",
		"componentType":5126,
		"max":[1.0,
		1.0],
		"count":56,
		"byteOffset":24,
		"min":[0.0,
		0.0]
	},
	{
		"bufferView":6,
		"type":"SCALAR",
		"componentType":5123,
		"max":[68],
		"count":69,
		"byteOffset":0,
		"min":[0]
	},
	{
		"bufferView":7,
		"type":"VEC3",
		"componentType":5126,
		"max":[100.0,
		475.109375,
		1644.0013427734376],
		"count":69,
		"byteOffset":0,
		"min":[100.0,
		0.0,
		1374.486572265625]
	},
	{
		"bufferView":7,
		"type":"VEC3",
		"componentType":5126,
		"max":[1.0,
		0.0,
		0.0],
		"count":69,
		"byteOffset":12,
		"min":[1.0,
		0.0,
		0.0]
	},
	{
		"bufferView":7,
		"type":"VEC2",
		"componentType":5126,
		"max":[1.0,
		1.0],
		"count":69,
		"byteOffset":24,
		"min":[0.0,
		0.0]
	},
	{
		"bufferView":8,
		"type":"SCALAR",
		"componentType":5123,
		"max":[67],
		"count":180,
		"byteOffset":0,
		"min":[0]
	},
	{
		"bufferView":9,
		"type":"VEC3",
		"componentType":5126,
		"max":[100.0,
		475.0,
		47.50056457519531],
		"count":68,
		"byteOffset":0,
		"min":[0.0,
		295.35919189453127,
		-48.99178695678711]
	},
	{
		"bufferView":9,
		"type":"VEC3",
		"componentType":5126,
		"max":[0.0,
		0.9999576210975647,
		1.0],
		"count":68,
		"byteOffset":12,
		"min":[0.0,
		-1.0,
		-1.0]
	},
	{
		"bufferView":9,
		"type":"VEC2",
		"componentType":5126,
		"max":[0.699999988079071,
		4.0],
		"count":68,
		"byteOffset":24,
		"min":[-0.30000001192092898,
		3.0]
	},
	{
		"bufferView":10,
		"type":"SCALAR",
		"componentType":5123,
		"max":[75],
		"count":84,
		"byteOffset":0,
		"min":[0]
	},
	{
		"bufferView":11,
		"type":"VEC3",
		"componentType":5126,
		"max":[0.0,
		475.0,
		1283.4931640625],
		"count":76,
		"byteOffset":0,
		"min":[0.0,
		295.35919189453127,
		1187.000732421875]
	},
	{
		"bufferView":11,
		"type":"VEC3",
		"componentType":5126,
		"max":[-1.0,
		0.0,
		0.0],
		"count":76,
		"byteOffset":12,
		"min":[-1.0,
		0.0,
		0.0]
	},
	{
		"bufferView":11,
		"type":"VEC2",
		"componentType":5126,
		"max":[0.2386046051979065,
		4.0],
		"count":76,
		"byteOffset":24,
		"min":[-0.30000001192092898,
		3.0]
	},
	{
		"bufferView":12,
		"type":"SCALAR",
		"componentType":5123,
		"max":[82],
		"count":84,
		"byteOffset":0,
		"min":[0]
	},
	{
		"bufferView":13,
		"type":"VEC3",
		"componentType":5126,
		"max":[100.0,
		475.0,
		1283.4931640625],
		"count":83,
		"byteOffset":0,
		"min":[100.0,
		295.35919189453127,
		1187.000732421875]
	},
	{
		"bufferView":13,
		"type":"VEC3",
		"componentType":5126,
		"max":[1.0,
		0.0,
		0.0],
		"count":83,
		"byteOffset":12,
		"min":[1.0,
		0.0,
		0.0]
	},
	{
		"bufferView":13,
		"type":"VEC2",
		"componentType":5126,
		"max":[0.2386046051979065,
		4.0],
		"count":83,
		"byteOffset":24,
		"min":[-0.30000001192092898,
		3.0]
	},
	{
		"bufferView":14,
		"type":"SCALAR",
		"componentType":5123,
		"max":[73],
		"count":162,
		"byteOffset":0,
		"min":[0]
	},
	{
		"bufferView":15,
		"type":"VEC3",
		"componentType":5126,
		"max":[100.0,
		475.0,
		129.1438751220703],
		"count":74,
		"byteOffset":0,
		"min":[0.0,
		0.0,
		-118.38983154296875]
	},
	{
		"bufferView":15,
		"type":"VEC3",
		"componentType":5126,
		"max":[0.0,
		1.0,
		1.0],
		"count":74,
		"byteOffset":12,
		"min":[0.0,
		-1.0,
		-1.0]
	},
	{
		"bufferView":15,
		"type":"VEC2",
		"componentType":5126,
		"max":[1.0,
		1.0],
		"count":74,
		"byteOffset":24,
		"min":[0.0,
		0.0]
	},
	{
		"bufferView":16,
		"type":"SCALAR",
		"componentType":5123,
		"max":[71],
		"count":75,
		"byteOffset":0,
		"min":[0]
	},
	{
		"bufferView":17,
		"type":"VEC3",
		"componentType":5126,
		"max":[0.0,
		475.0,
		1086.7454833984376],
		"count":72,
		"byteOffset":0,
		"min":[0.0,
		0.0,
		839.2117919921875]
	},
	{
		"bufferView":17,
		"type":"VEC3",
		"componentType":5126,
		"max":[-1.0,
		0.0,
		0.0],
		"count":72,
		"byteOffset":12,
		"min":[-1.0,
		0.0,
		0.0]
	},
	{
		"bufferView":17,
		"type":"VEC2",
		"componentType":5126,
		"max":[0.8439737558364868,
		1.0],
		"count":72,
		"byteOffset":24,
		"min":[0.0,
		0.0]
	},
	{
		"bufferView":18,
		"type":"SCALAR",
		"componentType":5123,
		"max":[57],
		"count":75,
		"byteOffset":0,
		"min":[0]
	},
	{
		"bufferView":19,
		"type":"VEC3",
		"componentType":5126,
		"max":[100.0,
		475.0,
		1086.7454833984376],
		"count":58,
		"byteOffset":0,
		"min":[100.0,
		0.0,
		839.2117919921875]
	},
	{
		"bufferView":19,
		"type":"VEC3",
		"componentType":5126,
		"max":[1.0,
		0.0,
		0.0],
		"count":58,
		"byteOffset":12,
		"min":[1.0,
		0.0,
		0.0]
	},
	{
		"bufferView":19,
		"type":"VEC2",
		"componentType":5126,
		"max":[0.8439737558364868,
		1.0],
		"count":58,
		"byteOffset":24,
		"min":[0.0,
		0.0]
	},
	{
		"bufferView":20,
		"type":"SCALAR",
		"componentType":5123,
		"max":[75],
		"count":162,
		"byteOffset":0,
		"min":[0]
	},
	{
		"bufferView":21,
		"type":"VEC3",
		"componentType":5126,
		"max":[100.0,
		475.109375,
		109.56925201416016],
		"count":76,
		"byteOffset":0,
		"min":[0.0,
		0.0,
		-128.1807861328125]
	},
	{
		"bufferView":21,
		"type":"VEC3",
		"componentType":5126,
		"max":[0.0,
		1.0,
		1.0],
		"count":76,
		"byteOffset":12,
		"min":[0.0,
		-1.0,
		-1.0]
	},
	{
		"bufferView":21,
		"type":"VEC2",
		"componentType":5126,
		"max":[1.0,
		1.0],
		"count":76,
		"byteOffset":24,
		"min":[0.0,
		0.0]
	},
	{
		"bufferView":22,
		"type":"SCALAR",
		"componentType":5123,
		"max":[59],
		"count":75,
		"byteOffset":0,
		"min":[0]
	},
	{
		"bufferView":23,
		"type":"VEC3",
		"componentType":5126,
		"max":[0.0,
		475.109375,
		749.5106201171875],
		"count":60,
		"byteOffset":0,
		"min":[0.0,
		0.0,
		511.76055908203127]
	},
	{
		"bufferView":23,
		"type":"VEC3",
		"componentType":5126,
		"max":[-1.0,
		0.0,
		0.0],
		"count":60,
		"byteOffset":12,
		"min":[-1.0,
		0.0,
		0.0]
	},
	{
		"bufferView":23,
		"type":"VEC2",
		"componentType":5126,
		"max":[0.8710453510284424,
		1.0],
		"count":60,
		"byteOffset":24,
		"min":[0.0,
		0.0]
	},
	{
		"bufferView":24,
		"type":"SCALAR",
		"componentType":5123,
		"max":[72],
		"count":75,
		"byteOffset":0,
		"min":[0]
	},
	{
		"bufferView":25,
		"type":"VEC3",
		"componentType":5126,
		"max":[100.0,
		475.109375,
		749.5106201171875],
		"count":73,
		"byteOffset":0,
		"min":[100.0,
		0.0,
		511.76055908203127]
	},
	{
		"bufferView":25,
		"type":"VEC3",
		"componentType":5126,
		"max":[1.0,
		0.0,
		0.0],
		"count":73,
		"byteOffset":12,
		"min":[1.0,
		0.0,
		0.0]
	},
	{
		"bufferView":25,
		"type":"VEC2",
		"componentType":5126,
		"max":[0.8710453510284424,
		1.0],
		"count":73,
		"byteOffset":24,
		"min":[0.0,
		0.0]
	},
	{
		"bufferView":26,
		"type":"SCALAR",
		"componentType":5123,
		"max":[99],
		"count":222,
		"byteOffset":0,
		"min":[0]
	},
	{
		"bufferView":27,
		"type":"VEC3",
		"componentType":5126,
		"max":[100.0,
		475.02752685546877,
		159.51934814453126],
		"count":100,
		"byteOffset":0,
		"min":[0.0,
		0.0,
		-90.9531478881836]
	},
	{
		"bufferView":27,
		"type":"VEC3",
		"componentType":5126,
		"max":[0.0,
		1.0,
		1.0],
		"count":100,
		"byteOffset":12,
		"min":[0.0,
		-1.0,
		-1.0]
	},
	{
		"bufferView":27,
		"type":"VEC2",
		"componentType":5126,
		"max":[1.0,
		1.0],
		"count":100,
		"byteOffset":24,
		"min":[0.0,
		0.0]
	},
	{
		"bufferView":28,
		"type":"SCALAR",
		"componentType":5123,
		"max":[87],
		"count":105,
		"byteOffset":0,
		"min":[0]
	},
	{
		"bufferView":29,
		"type":"VEC3",
		"componentType":5126,
		"max":[0.0,
		475.02752685546877,
		427.9820556640625],
		"count":88,
		"byteOffset":0,
		"min":[0.0,
		0.0,
		177.5095672607422]
	},
	{
		"bufferView":29,
		"type":"VEC3",
		"componentType":5126,
		"max":[-1.0,
		0.0,
		0.0],
		"count":88,
		"byteOffset":12,
		"min":[-1.0,
		0.0,
		0.0]
	},
	{
		"bufferView":29,
		"type":"VEC2",
		"componentType":5126,
		"max":[0.9967784881591797,
		1.0],
		"count":88,
		"byteOffset":24,
		"min":[0.0,
		0.0]
	},
	{
		"bufferView":30,
		"type":"SCALAR",
		"componentType":5123,
		"max":[104],
		"count":105,
		"byteOffset":0,
		"min":[0]
	},
	{
		"bufferView":31,
		"type":"VEC3",
		"componentType":5126,
		"max":[100.0,
		475.02752685546877,
		427.9820556640625],
		"count":105,
		"byteOffset":0,
		"min":[100.0,
		0.0,
		177.5095672607422]
	},
	{
		"bufferView":31,
		"type":"VEC3",
		"componentType":5126,
		"max":[1.0,
		0.0,
		0.0],
		"count":105,
		"byteOffset":12,
		"min":[1.0,
		0.0,
		0.0]
	},
	{
		"bufferView":31,
		"type":"VEC2",
		"componentType":5126,
		"max":[0.9967784881591797,
		1.0],
		"count":105,
		"byteOffset":24,
		"min":[0.0,
		0.0]
	},
	{
		"bufferView":32,
		"type":"SCALAR",
		"componentType":5123,
		"max":[257],
		"count":702,
		"byteOffset":0,
		"min":[0]
	},
	{
		"bufferView":33,
		"type":"VEC3",
		"componentType":5126,
		"max":[100.0,
		475.16900634765627,
		130.6355438232422],
		"count":258,
		"byteOffset":0,
		"min":[0.0,
		0.0,
		-120.56727600097656]
	},
	{
		"bufferView":33,
		"type":"VEC3",
		"componentType":5126,
		"max":[0.0,
		1.0,
		0.9999924898147583],
		"count":258,
		"byteOffset":12,
		"min":[0.0,
		-1.0,
		-0.9999935626983643]
	},
	{
		"bufferView":33,
		"type":"VEC2",
		"componentType":5126,
		"max":[1.0,
		1.0],
		"count":258,
		"byteOffset":24,
		"min":[0.0,
		0.0]
	},
	{
		"bufferView":34,
		"type":"SCALAR",
		"componentType":5123,
		"max":[317],
		"count":345,
		"byteOffset":0,
		"min":[0]
	},
	{
		"bufferView":35,
		"type":"VEC3",
		"componentType":5126,
		"max":[0.0,
		475.16900634765627,
		64.725830078125],
		"count":318,
		"byteOffset":0,
		"min":[0.0,
		0.0,
		-186.47698974609376]
	},
	{
		"bufferView":35,
		"type":"VEC3",
		"componentType":5126,
		"max":[-1.0,
		0.0,
		0.0],
		"count":318,
		"byteOffset":12,
		"min":[-1.0,
		0.0,
		0.0]
	},
	{
		"bufferView":35,
		"type":"VEC2",
		"componentType":5126,
		"max":[0.9978013038635254,
		1.0],
		"count":318,
		"byteOffset":24,
		"min":[0.0,
		0.0]
	},
	{
		"bufferView":36,
		"type":"SCALAR",
		"componentType":5123,
		"max":[313],
		"count":345,
		"byteOffset":0,
		"min":[0]
	},
	{
		"bufferView":37,
		"type":"VEC3",
		"componentType":5126,
		"max":[100.0,
		475.16900634765627,
		64.725830078125],
		"count":314,
		"byteOffset":0,
		"min":[100.0,
		0.0,
		-186.47698974609376]
	},
	{
		"bufferView":37,
		"type":"VEC3",
		"componentType":5126,
		"max":[1.0,
		0.0,
		0.0],
		"count":314,
		"byteOffset":12,
		"min":[1.0,
		0.0,
		0.0]
	},
	{
		"bufferView":37,
		"type":"VEC2",
		"componentType":5126,
		"max":[0.9978013038635254,
		1.0],
		"count":314,
		"byteOffset":24,
		"min":[0.0,
		0.0]
	}],
	"nodes":[{
		"children":[1],
		"name":"קוביות",
		"rotation":[0.0,
		0.0,
		0.0,
		-1.0],
		"translation":[922.3004760742188,
		40.0,
		585.6626586914063],
		"scale":[1.0,
		1.0,
		1.0]
	},
	{
		"name":"Cylinder",
		"rotation":[0.0,
		0.0,
		0.0,
		-1.0],
		"translation":[-385.72174072265627,
		-30.0,
		-389.9949951171875],
		"scale":[1.0,
		1.0,
		1.0],
		"mesh":0
	},
	{
		"children":[3,
		6,
		9,
		12,
		15,
		18],
		"name":"אמבטיה מבוימת"
	},
	{
		"children":[4,
		5],
		"name":"ה",
		"rotation":[0.0,
		-0.41832831501960757,
		0.0,
		-0.9082958698272705],
		"translation":[399.18359375,
		0.0,
		1638.4300537109376],
		"scale":[1.0,
		1.0,
		1.0],
		"mesh":1
	},
	{
		"name":"Cap 1",
		"rotation":[0.0,
		0.0,
		0.0,
		-1.0],
		"translation":[0.0,
		0.0,
		-1517.841064453125],
		"scale":[1.0,
		1.0,
		1.0],
		"mesh":2
	},
	{
		"name":"Cap 2",
		"rotation":[0.0,
		0.0,
		0.0,
		-1.0],
		"translation":[0.0,
		0.0,
		-1517.841064453125],
		"scale":[1.0,
		1.0,
		1.0],
		"mesh":3
	},
	{
		"children":[7,
		8],
		"name":"י למעלה",
		"rotation":[0.0,
		0.0,
		0.0,
		-1.0],
		"translation":[0.0,
		0.0,
		1393.893310546875],
		"scale":[1.0,
		1.0,
		1.0],
		"mesh":4
	},
	{
		"name":"Cap 1",
		"rotation":[0.0,
		0.0,
		0.0,
		-1.0],
		"translation":[0.0,
		0.0,
		-1235.9925537109376],
		"scale":[1.0,
		1.0,
		1.0],
		"mesh":5
	},
	{
		"name":"Cap 2",
		"rotation":[0.0,
		0.0,
		0.0,
		-1.0],
		"translation":[0.0,
		0.0,
		-1235.9925537109376],
		"scale":[1.0,
		1.0,
		1.0],
		"mesh":6
	},
	{
		"children":[10,
		11],
		"name":"ט",
		"rotation":[0.0,
		-0.3269994854927063,
		0.0,
		-0.9450244903564453],
		"translation":[0.0,
		0.0,
		1034.012939453125],
		"scale":[1.0,
		1.0,
		1.0],
		"mesh":7
	},
	{
		"name":"Cap 1",
		"rotation":[0.0,
		0.0,
		0.0,
		-1.0],
		"translation":[0.0,
		0.0,
		-957.6016235351563],
		"scale":[1.0,
		1.0,
		1.0],
		"mesh":8
	},
	{
		"name":"Cap 2",
		"rotation":[0.0,
		0.0,
		0.0,
		-1.0],
		"translation":[0.0,
		0.0,
		-957.6016235351563],
		"scale":[1.0,
		1.0,
		1.0],
		"mesh":9
	},
	{
		"children":[13,
		14],
		"name":"ב",
		"rotation":[0.0,
		0.0,
		0.0,
		-1.0],
		"translation":[0.0,
		0.0,
		639.9413452148438],
		"scale":[1.0,
		1.0,
		1.0],
		"mesh":10
	},
	{
		"name":"Cap 1",
		"rotation":[0.0,
		0.0,
		0.0,
		-1.0],
		"translation":[0.0,
		0.0,
		-639.9413452148438],
		"scale":[1.0,
		1.0,
		1.0],
		"mesh":11
	},
	{
		"name":"Cap 2",
		"rotation":[0.0,
		0.0,
		0.0,
		-1.0],
		"translation":[0.0,
		0.0,
		-639.9413452148438],
		"scale":[1.0,
		1.0,
		1.0],
		"mesh":12
	},
	{
		"children":[16,
		17],
		"name":"מ",
		"rotation":[0.0,
		-0.14176267385482789,
		0.0,
		-0.9899006485939026],
		"translation":[0.0,
		0.0,
		268.46270751953127],
		"scale":[1.0,
		1.0,
		1.0],
		"mesh":13
	},
	{
		"name":"Cap 1",
		"rotation":[0.0,
		0.0,
		0.0,
		-1.0],
		"translation":[0.0,
		0.0,
		-268.46270751953127],
		"scale":[1.0,
		1.0,
		1.0],
		"mesh":14
	},
	{
		"name":"Cap 2",
		"rotation":[0.0,
		0.0,
		0.0,
		-1.0],
		"translation":[0.0,
		0.0,
		-268.46270751953127],
		"scale":[1.0,
		1.0,
		1.0],
		"mesh":15
	},
	{
		"children":[19,
		20],
		"name":"א",
		"rotation":[0.0,
		-0.37523725628852847,
		0.0,
		0.9269288182258606],
		"translation":[114.16447448730469,
		0.0,
		-108.90707397460938],
		"scale":[1.0,
		1.0,
		1.0],
		"mesh":16
	},
	{
		"name":"Cap 1",
		"rotation":[0.0,
		0.0,
		0.0,
		-1.0],
		"translation":[0.0,
		0.0,
		65.90971374511719],
		"scale":[1.0,
		1.0,
		1.0],
		"mesh":17
	},
	{
		"name":"Cap 2",
		"rotation":[0.0,
		0.0,
		0.0,
		-1.0],
		"translation":[0.0,
		0.0,
		65.90971374511719],
		"scale":[1.0,
		1.0,
		1.0],
		"mesh":18
	}],
	"meshes":[{
		"name":"Cylinder",
		"primitives":[{
			"attributes":{
				"POSITION":1,
				"NORMAL":2,
				"TEXCOORD_0":3
			},
			"indices":0,
			"material":0
		}]
	},
	{
		"name":"ה",
		"primitives":[{
			"attributes":{
				"POSITION":5,
				"NORMAL":6,
				"TEXCOORD_0":7
			},
			"indices":4,
			"material":0
		}]
	},
	{
		"name":"Cap 1",
		"primitives":[{
			"attributes":{
				"POSITION":9,
				"NORMAL":10,
				"TEXCOORD_0":11
			},
			"indices":8,
			"material":0
		}]
	},
	{
		"name":"Cap 2",
		"primitives":[{
			"attributes":{
				"POSITION":13,
				"NORMAL":14,
				"TEXCOORD_0":15
			},
			"indices":12,
			"material":0
		}]
	},
	{
		"name":"י למעלה",
		"primitives":[{
			"attributes":{
				"POSITION":17,
				"NORMAL":18,
				"TEXCOORD_0":19
			},
			"indices":16,
			"material":1
		}]
	},
	{
		"name":"Cap 1",
		"primitives":[{
			"attributes":{
				"POSITION":21,
				"NORMAL":22,
				"TEXCOORD_0":23
			},
			"indices":20,
			"material":1
		}]
	},
	{
		"name":"Cap 2",
		"primitives":[{
			"attributes":{
				"POSITION":25,
				"NORMAL":26,
				"TEXCOORD_0":27
			},
			"indices":24,
			"material":1
		}]
	},
	{
		"name":"ט",
		"primitives":[{
			"attributes":{
				"POSITION":29,
				"NORMAL":30,
				"TEXCOORD_0":31
			},
			"indices":28,
			"material":0
		}]
	},
	{
		"name":"Cap 1",
		"primitives":[{
			"attributes":{
				"POSITION":33,
				"NORMAL":34,
				"TEXCOORD_0":35
			},
			"indices":32,
			"material":0
		}]
	},
	{
		"name":"Cap 2",
		"primitives":[{
			"attributes":{
				"POSITION":37,
				"NORMAL":38,
				"TEXCOORD_0":39
			},
			"indices":36,
			"material":0
		}]
	},
	{
		"name":"ב",
		"primitives":[{
			"attributes":{
				"POSITION":41,
				"NORMAL":42,
				"TEXCOORD_0":43
			},
			"indices":40,
			"material":0
		}]
	},
	{
		"name":"Cap 1",
		"primitives":[{
			"attributes":{
				"POSITION":45,
				"NORMAL":46,
				"TEXCOORD_0":47
			},
			"indices":44,
			"material":0
		}]
	},
	{
		"name":"Cap 2",
		"primitives":[{
			"attributes":{
				"POSITION":49,
				"NORMAL":50,
				"TEXCOORD_0":51
			},
			"indices":48,
			"material":0
		}]
	},
	{
		"name":"מ",
		"primitives":[{
			"attributes":{
				"POSITION":53,
				"NORMAL":54,
				"TEXCOORD_0":55
			},
			"indices":52,
			"material":0
		}]
	},
	{
		"name":"Cap 1",
		"primitives":[{
			"attributes":{
				"POSITION":57,
				"NORMAL":58,
				"TEXCOORD_0":59
			},
			"indices":56,
			"material":0
		}]
	},
	{
		"name":"Cap 2",
		"primitives":[{
			"attributes":{
				"POSITION":61,
				"NORMAL":62,
				"TEXCOORD_0":63
			},
			"indices":60,
			"material":0
		}]
	},
	{
		"name":"א",
		"primitives":[{
			"attributes":{
				"POSITION":65,
				"NORMAL":66,
				"TEXCOORD_0":67
			},
			"indices":64,
			"material":0
		}]
	},
	{
		"name":"Cap 1",
		"primitives":[{
			"attributes":{
				"POSITION":69,
				"NORMAL":70,
				"TEXCOORD_0":71
			},
			"indices":68,
			"material":0
		}]
	},
	{
		"name":"Cap 2",
		"primitives":[{
			"attributes":{
				"POSITION":73,
				"NORMAL":74,
				"TEXCOORD_0":75
			},
			"indices":72,
			"material":0
		}]
	}],
	"bufferViews":[{
		"buffer":0,
		"byteOffset":0,
		"byteLength":864,
		"target":34963
	},
	{
		"buffer":0,
		"byteOffset":864,
		"byteLength":4736,
		"target":34962,
		"byteStride":32
	},
	{
		"buffer":1,
		"byteOffset":0,
		"byteLength":324,
		"target":34963
	},
	{
		"buffer":1,
		"byteOffset":324,
		"byteLength":2432,
		"target":34962,
		"byteStride":32
	},
	{
		"buffer":2,
		"byteOffset":0,
		"byteLength":138,
		"target":34963
	},
	{
		"buffer":2,
		"byteOffset":140,
		"byteLength":1792,
		"target":34962,
		"byteStride":32
	},
	{
		"buffer":3,
		"byteOffset":0,
		"byteLength":138,
		"target":34963
	},
	{
		"buffer":3,
		"byteOffset":140,
		"byteLength":2208,
		"target":34962,
		"byteStride":32
	},
	{
		"buffer":4,
		"byteOffset":0,
		"byteLength":360,
		"target":34963
	},
	{
		"buffer":4,
		"byteOffset":360,
		"byteLength":2176,
		"target":34962,
		"byteStride":32
	},
	{
		"buffer":5,
		"byteOffset":0,
		"byteLength":168,
		"target":34963
	},
	{
		"buffer":5,
		"byteOffset":168,
		"byteLength":2432,
		"target":34962,
		"byteStride":32
	},
	{
		"buffer":6,
		"byteOffset":0,
		"byteLength":168,
		"target":34963
	},
	{
		"buffer":6,
		"byteOffset":168,
		"byteLength":2656,
		"target":34962,
		"byteStride":32
	},
	{
		"buffer":7,
		"byteOffset":0,
		"byteLength":324,
		"target":34963
	},
	{
		"buffer":7,
		"byteOffset":324,
		"byteLength":2368,
		"target":34962,
		"byteStride":32
	},
	{
		"buffer":8,
		"byteOffset":0,
		"byteLength":150,
		"target":34963
	},
	{
		"buffer":8,
		"byteOffset":152,
		"byteLength":2304,
		"target":34962,
		"byteStride":32
	},
	{
		"buffer":9,
		"byteOffset":0,
		"byteLength":150,
		"target":34963
	},
	{
		"buffer":9,
		"byteOffset":152,
		"byteLength":1856,
		"target":34962,
		"byteStride":32
	},
	{
		"buffer":10,
		"byteOffset":0,
		"byteLength":324,
		"target":34963
	},
	{
		"buffer":10,
		"byteOffset":324,
		"byteLength":2432,
		"target":34962,
		"byteStride":32
	},
	{
		"buffer":11,
		"byteOffset":0,
		"byteLength":150,
		"target":34963
	},
	{
		"buffer":11,
		"byteOffset":152,
		"byteLength":1920,
		"target":34962,
		"byteStride":32
	},
	{
		"buffer":12,
		"byteOffset":0,
		"byteLength":150,
		"target":34963
	},
	{
		"buffer":12,
		"byteOffset":152,
		"byteLength":2336,
		"target":34962,
		"byteStride":32
	},
	{
		"buffer":13,
		"byteOffset":0,
		"byteLength":444,
		"target":34963
	},
	{
		"buffer":13,
		"byteOffset":444,
		"byteLength":3200,
		"target":34962,
		"byteStride":32
	},
	{
		"buffer":14,
		"byteOffset":0,
		"byteLength":210,
		"target":34963
	},
	{
		"buffer":14,
		"byteOffset":212,
		"byteLength":2816,
		"target":34962,
		"byteStride":32
	},
	{
		"buffer":15,
		"byteOffset":0,
		"byteLength":210,
		"target":34963
	},
	{
		"buffer":15,
		"byteOffset":212,
		"byteLength":3360,
		"target":34962,
		"byteStride":32
	},
	{
		"buffer":16,
		"byteOffset":0,
		"byteLength":1404,
		"target":34963
	},
	{
		"buffer":16,
		"byteOffset":1404,
		"byteLength":8256,
		"target":34962,
		"byteStride":32
	},
	{
		"buffer":17,
		"byteOffset":0,
		"byteLength":690,
		"target":34963
	},
	{
		"buffer":17,
		"byteOffset":692,
		"byteLength":10176,
		"target":34962,
		"byteStride":32
	},
	{
		"buffer":18,
		"byteOffset":0,
		"byteLength":690,
		"target":34963
	},
	{
		"buffer":18,
		"byteOffset":692,
		"byteLength":10048,
		"target":34962,
		"byteStride":32
	}],
	"buffers":[{
		"uri":"data:application/octet-stream;base64,",
		"byteLength":5600
	},
	{
		"uri":"data:application/octet-stream;base64,",
		"byteLength":2756
	},
	{
		"uri":"data:application/octet-stream;base64,",
		"byteLength":1932
	},
	{
		"uri":"data:application/octet-stream;base64,",
		"byteLength":2348
	},
	{
		"uri":"data:application/octet-stream;base64,",
		"byteLength":2536
	},
	{
		"uri":"data:application/octet-stream;base64,",
		"byteLength":2600
	},
	{
		"uri":"data:application/octet-stream;base64,",
		"byteLength":2824
	},
	{
		"uri":"data:application/octet-stream;base64,",
		"byteLength":2692
	},
	{
		"uri":"data:application/octet-stream;base64,",
		"byteLength":2456
	},
	{
		"uri":"data:application/octet-stream;base64,",
		"byteLength":2008
	},
	{
		"uri":"data:application/octet-stream;base64,",
		"byteLength":2756
	},
	{
		"uri":"data:application/octet-stream;base64,",
		"byteLength":2072
	},
	{
		"uri":"data:application/octet-stream;base64,",
		"byteLength":2488
	},
	{
		"uri":"data:application/octet-stream;base64,",
		"byteLength":3644
	},
	{
		"uri":"data:application/octet-stream;base64,",
		"byteLength":3028
	},
	{
		"uri":"data:application/octet-stream;base64,",
		"byteLength":3572
	},
	{
		"uri":"data:application/octet-stream;base64,",
		"byteLength":9660
	},
	{
		"uri":"data:application/octet-stream;base64,",
		"byteLength":10868
	},
	{
		"uri":"data:application/octet-stream;base64,",
		"byteLength":10740
	}],
	"materials":[{
		"pbrMetallicRoughness":{
			"baseColorFactor":[1.0,
			0.5735,
			0.0,
			1.0],
			"metallicFactor":0.5994,
			"roughnessFactor":0.38850000000000009
		},
		"emissiveFactor":[0.0,
		0.0,
		0.0],
		"alphaMode":"OPAQUE",
		"name":"Mat",
		"doubleSided":false
	},
	{
		"pbrMetallicRoughness":{
			"baseColorFactor":[0.8,
			0.8,
			0.8,
			1.0],
			"metallicFactor":0.13,
			"roughnessFactor":0.46
		},
		"emissiveFactor":[0.0,
		0.0,
		0.0],
		"alphaMode":"OPAQUE",
		"name":"Mat.4",
		"doubleSided":false
	}]
}