{
	"buffers":[{
		"uri":"data:application/octet-stream;base64,",
		"byteLength":560
	},
	{
		"uri":"data:application/octet-stream;base64,",
		"byteLength":204
	},
	{
		"uri":"data:application/octet-stream;base64,",
		"byteLength":204
	},
	{
		"uri":"data:application/octet-stream;base64,",
		"byteLength":560
	},
	{
		"uri":"data:application/octet-stream;base64,",
		"byteLength":172
	},
	{
		"uri":"data:application/octet-stream;base64,",
		"byteLength":172
	}],
	"asset":{
		"version":"2.0",
		"generator":"Created using the official Cinema 4D glTF Exporter 1.000x284978"
	},
	"scenes":[{
		"nodes":[0,
		3]
	}],
	"nodes":[{
		"scale":[1.0,
		1.0,
		1.0],
		"name":"נפח.2",
		"translation":[-3440.348876953125,
		0.0,
		3672.345458984375],
		"rotation":[0.0,
		-1.0,
		0.0,
		3.82856880455694e-16],
		"mesh":0,
		"children":[1,
		2]
	},
	{
		"scale":[1.0,
		1.0,
		1.0],
		"name":"Cap 1",
		"translation":[-1.9724383259513146e-13,
		0.0,
		1636.09033203125],
		"rotation":[0.0,
		0.0,
		0.0,
		-1.0],
		"mesh":1
	},
	{
		"scale":[1.0,
		1.0,
		1.0],
		"name":"Cap 2",
		"translation":[-1.9724383259513146e-13,
		0.0,
		1636.09033203125],
		"rotation":[0.0,
		0.0,
		0.0,
		-1.0],
		"mesh":2
	},
	{
		"scale":[1.0,
		1.0,
		1.0],
		"name":"נפח.1",
		"translation":[-3440.348876953125,
		0.0,
		2461.807373046875],
		"rotation":[0.0,
		-1.0,
		0.0,
		3.82856880455694e-16],
		"mesh":3,
		"children":[4,
		5]
	},
	{
		"scale":[1.0,
		1.0,
		1.0],
		"name":"Cap 1",
		"translation":[1.5937969802433395e-13,
		0.0,
		-2486.5],
		"rotation":[0.0,
		0.0,
		0.0,
		-1.0],
		"mesh":4
	},
	{
		"scale":[1.0,
		1.0,
		1.0],
		"name":"Cap 2",
		"translation":[1.5937969802433395e-13,
		0.0,
		-2486.5],
		"rotation":[0.0,
		0.0,
		0.0,
		-1.0],
		"mesh":5
	}],
	"meshes":[{
		"primitives":[{
			"attributes":{
				"POSITION":1,
				"NORMAL":2,
				"TEXCOORD_0":3
			},
			"indices":0,
			"material":0
		}],
		"name":"נפח.2"
	},
	{
		"primitives":[{
			"attributes":{
				"POSITION":5,
				"NORMAL":6,
				"TEXCOORD_0":7
			},
			"indices":4,
			"material":0
		}],
		"name":"Cap 1"
	},
	{
		"primitives":[{
			"attributes":{
				"POSITION":9,
				"NORMAL":10,
				"TEXCOORD_0":11
			},
			"indices":8,
			"material":0
		}],
		"name":"Cap 2"
	},
	{
		"primitives":[{
			"attributes":{
				"POSITION":13,
				"NORMAL":14,
				"TEXCOORD_0":15
			},
			"indices":12,
			"material":0
		}],
		"name":"נפח.1"
	},
	{
		"primitives":[{
			"attributes":{
				"POSITION":17,
				"NORMAL":18,
				"TEXCOORD_0":19
			},
			"indices":16,
			"material":0
		}],
		"name":"Cap 1"
	},
	{
		"primitives":[{
			"attributes":{
				"POSITION":21,
				"NORMAL":22,
				"TEXCOORD_0":23
			},
			"indices":20,
			"material":0
		}],
		"name":"Cap 2"
	}],
	"accessors":[{
		"bufferView":0,
		"type":"SCALAR",
		"max":[15],
		"componentType":5123,
		"count":24,
		"byteOffset":0,
		"min":[0]
	},
	{
		"bufferView":1,
		"type":"VEC3",
		"max":[200.0,
		814.8265991210938,
		2867.740966796875],
		"componentType":5126,
		"count":16,
		"byteOffset":0,
		"min":[-3.944876651902629e-13,
		-1.1368683772161604e-13,
		2747.848876953125]
	},
	{
		"bufferView":1,
		"type":"VEC3",
		"max":[0.0,
		0.883838951587677,
		1.0],
		"componentType":5126,
		"count":16,
		"byteOffset":12,
		"min":[0.0,
		-1.0,
		-1.0]
	},
	{
		"bufferView":1,
		"type":"VEC2",
		"max":[1.0,
		1.0],
		"componentType":5126,
		"count":16,
		"byteOffset":24,
		"min":[0.0,
		0.0]
	},
	{
		"bufferView":2,
		"type":"SCALAR",
		"max":[5],
		"componentType":5123,
		"count":6,
		"byteOffset":0,
		"min":[0]
	},
	{
		"bufferView":3,
		"type":"VEC3",
		"max":[-1.9724383259513146e-13,
		814.8265991210938,
		1231.6507568359376],
		"componentType":5126,
		"count":6,
		"byteOffset":0,
		"min":[-1.9724383259513146e-13,
		-1.1368683772161604e-13,
		1111.758544921875]
	},
	{
		"bufferView":3,
		"type":"VEC3",
		"max":[-1.0,
		0.0,
		0.0],
		"componentType":5126,
		"count":6,
		"byteOffset":12,
		"min":[-1.0,
		0.0,
		0.0]
	},
	{
		"bufferView":3,
		"type":"VEC2",
		"max":[0.5217409133911133,
		1.0],
		"componentType":5126,
		"count":6,
		"byteOffset":24,
		"min":[0.0,
		0.0]
	},
	{
		"bufferView":4,
		"type":"SCALAR",
		"max":[5],
		"componentType":5123,
		"count":6,
		"byteOffset":0,
		"min":[0]
	},
	{
		"bufferView":5,
		"type":"VEC3",
		"max":[200.0,
		814.8265991210938,
		1231.6507568359376],
		"componentType":5126,
		"count":6,
		"byteOffset":0,
		"min":[200.0,
		-1.1368683772161604e-13,
		1111.758544921875]
	},
	{
		"bufferView":5,
		"type":"VEC3",
		"max":[1.0,
		0.0,
		0.0],
		"componentType":5126,
		"count":6,
		"byteOffset":12,
		"min":[1.0,
		0.0,
		0.0]
	},
	{
		"bufferView":5,
		"type":"VEC2",
		"max":[0.5217409133911133,
		1.0],
		"componentType":5126,
		"count":6,
		"byteOffset":24,
		"min":[0.0,
		0.0]
	},
	{
		"bufferView":6,
		"type":"SCALAR",
		"max":[15],
		"componentType":5123,
		"count":24,
		"byteOffset":0,
		"min":[0]
	},
	{
		"bufferView":7,
		"type":"VEC3",
		"max":[200.0,
		589.5164184570313,
		80.486083984375],
		"componentType":5126,
		"count":16,
		"byteOffset":0,
		"min":[3.187593960486679e-13,
		0.0,
		-112.49791717529297]
	},
	{
		"bufferView":7,
		"type":"VEC3",
		"max":[0.0,
		1.0,
		1.0],
		"componentType":5126,
		"count":16,
		"byteOffset":12,
		"min":[0.0,
		-1.0,
		-1.0]
	},
	{
		"bufferView":7,
		"type":"VEC2",
		"max":[1.0,
		1.0],
		"componentType":5126,
		"count":16,
		"byteOffset":24,
		"min":[0.0,
		0.0]
	},
	{
		"bufferView":8,
		"type":"SCALAR",
		"max":[4],
		"componentType":5123,
		"count":6,
		"byteOffset":0,
		"min":[0]
	},
	{
		"bufferView":9,
		"type":"VEC3",
		"max":[1.5937969802433395e-13,
		589.5164184570313,
		2566.986083984375],
		"componentType":5126,
		"count":5,
		"byteOffset":0,
		"min":[1.5937969802433395e-13,
		0.0,
		2374.001953125]
	},
	{
		"bufferView":9,
		"type":"VEC3",
		"max":[-1.0,
		0.0,
		0.0],
		"componentType":5126,
		"count":5,
		"byteOffset":12,
		"min":[-1.0,
		0.0,
		0.0]
	},
	{
		"bufferView":9,
		"type":"VEC2",
		"max":[0.4999998211860657,
		1.0],
		"componentType":5126,
		"count":5,
		"byteOffset":24,
		"min":[0.0,
		0.0]
	},
	{
		"bufferView":10,
		"type":"SCALAR",
		"max":[4],
		"componentType":5123,
		"count":6,
		"byteOffset":0,
		"min":[0]
	},
	{
		"bufferView":11,
		"type":"VEC3",
		"max":[200.0,
		589.5164184570313,
		2566.986083984375],
		"componentType":5126,
		"count":5,
		"byteOffset":0,
		"min":[200.0,
		0.0,
		2374.001953125]
	},
	{
		"bufferView":11,
		"type":"VEC3",
		"max":[1.0,
		0.0,
		0.0],
		"componentType":5126,
		"count":5,
		"byteOffset":12,
		"min":[1.0,
		0.0,
		0.0]
	},
	{
		"bufferView":11,
		"type":"VEC2",
		"max":[0.4999998211860657,
		1.0],
		"componentType":5126,
		"count":5,
		"byteOffset":24,
		"min":[0.0,
		0.0]
	}],
	"bufferViews":[{
		"buffer":0,
		"byteOffset":0,
		"byteLength":48,
		"target":34963
	},
	{
		"buffer":0,
		"byteOffset":48,
		"byteLength":512,
		"target":34962,
		"byteStride":32
	},
	{
		"buffer":1,
		"byteOffset":0,
		"byteLength":12,
		"target":34963
	},
	{
		"buffer":1,
		"byteOffset":12,
		"byteLength":192,
		"target":34962,
		"byteStride":32
	},
	{
		"buffer":2,
		"byteOffset":0,
		"byteLength":12,
		"target":34963
	},
	{
		"buffer":2,
		"byteOffset":12,
		"byteLength":192,
		"target":34962,
		"byteStride":32
	},
	{
		"buffer":3,
		"byteOffset":0,
		"byteLength":48,
		"target":34963
	},
	{
		"buffer":3,
		"byteOffset":48,
		"byteLength":512,
		"target":34962,
		"byteStride":32
	},
	{
		"buffer":4,
		"byteOffset":0,
		"byteLength":12,
		"target":34963
	},
	{
		"buffer":4,
		"byteOffset":12,
		"byteLength":160,
		"target":34962,
		"byteStride":32
	},
	{
		"buffer":5,
		"byteOffset":0,
		"byteLength":12,
		"target":34963
	},
	{
		"buffer":5,
		"byteOffset":12,
		"byteLength":160,
		"target":34962,
		"byteStride":32
	}],
	"materials":[{
		"pbrMetallicRoughness":{
			"baseColorFactor":[0.8,
			0.8,
			0.8,
			1.0],
			"metallicFactor":0.13,
			"roughnessFactor":0.46
		},
		"emissiveFactor":[0.0,
		0.0,
		0.0],
		"alphaMode":"OPAQUE",
		"doubleSided":true,
		"name":"Mat.4"
	}]
}