{
	"buffers":[{
		"uri":"data:application/octet-stream;base64,",
		"byteLength":6980
	},
	{
		"uri":"data:application/octet-stream;base64,",
		"byteLength":233664
	}],
	"asset":{
		"version":"2.0",
		"generator":"Created using the official Cinema 4D glTF Exporter 1.000x284978"
	},
	"scenes":[{
		"nodes":[0]
	}],
	"nodes":[{
		"scale":[1.0,
		1.0,
		1.0],
		"name":"Boole ",
		"translation":[-1275.1136474609376,
		0.0,
		638.5445556640625],
		"rotation":[0.0,
		0.0,
		0.0,
		-1.0],
		"children":[1,
		2]
	},
	{
		"scale":[1.0,
		1.0,
		1.0],
		"name":"Cube",
		"translation":[0.0,
		3170.0,
		0.0],
		"rotation":[0.0,
		0.0,
		0.0,
		-1.0],
		"mesh":0
	},
	{
		"scale":[1.0,
		1.0,
		1.0],
		"name":"Default",
		"translation":[0.0,
		2563.742919921875,
		0.0],
		"rotation":[0.0,
		-0.7071067690849304,
		0.0,
		-0.7071067690849304],
		"mesh":1
	}],
	"meshes":[{
		"primitives":[{
			"attributes":{
				"POSITION":1,
				"NORMAL":2,
				"TEXCOORD_0":3
			},
			"indices":0,
			"material":0
		}],
		"name":"Cube"
	},
	{
		"primitives":[{
			"attributes":{
				"POSITION":5,
				"NORMAL":6
			},
			"indices":4,
			"material":1
		}],
		"name":"Default"
	}],
	"accessors":[{
		"bufferView":0,
		"type":"SCALAR",
		"max":[183],
		"componentType":5123,
		"count":546,
		"byteOffset":0,
		"min":[0]
	},
	{
		"bufferView":1,
		"type":"VEC3",
		"max":[458.13140869140627,
		-3170.0,
		3105.814697265625],
		"componentType":5126,
		"count":184,
		"byteOffset":0,
		"min":[-1887.868408203125,
		-3170.0,
		-3105.814697265625]
	},
	{
		"bufferView":1,
		"type":"VEC3",
		"max":[0.0,
		-1.0,
		0.0],
		"componentType":5126,
		"count":184,
		"byteOffset":12,
		"min":[0.0,
		-1.0,
		0.0]
	},
	{
		"bufferView":1,
		"type":"VEC2",
		"max":[0.5722579956054688,
		0.9677283763885498],
		"componentType":5126,
		"count":184,
		"byteOffset":24,
		"min":[0.20223882794380189,
		0.03227163106203079]
	},
	{
		"bufferView":2,
		"type":"SCALAR",
		"max":[7721],
		"componentType":5123,
		"count":24168,
		"byteOffset":0,
		"min":[0]
	},
	{
		"bufferView":3,
		"type":"VEC3",
		"max":[3105.814697265625,
		1966.9898681640626,
		1599.3992919921876],
		"componentType":5126,
		"count":7722,
		"byteOffset":0,
		"min":[-3105.814697265625,
		-2563.742919921875,
		-1887.868408203125]
	},
	{
		"bufferView":3,
		"type":"VEC3",
		"max":[0.999625027179718,
		0.9997813105583191,
		0.9998750686645508],
		"componentType":5126,
		"count":7722,
		"byteOffset":12,
		"min":[-0.999625027179718,
		-0.9997813105583191,
		-0.9995625615119934]
	}],
	"bufferViews":[{
		"buffer":0,
		"byteOffset":0,
		"byteLength":1092,
		"target":34963
	},
	{
		"buffer":0,
		"byteOffset":1092,
		"byteLength":5888,
		"target":34962,
		"byteStride":32
	},
	{
		"buffer":1,
		"byteOffset":0,
		"byteLength":48336,
		"target":34963
	},
	{
		"buffer":1,
		"byteOffset":48336,
		"byteLength":185328,
		"target":34962,
		"byteStride":24
	}],
	"materials":[{
		"pbrMetallicRoughness":{
			"baseColorFactor":[1.0,
			0.0,
			0.9666666666666668,
			1.0],
			"metallicFactor":1.0,
			"roughnessFactor":1.0
		},
		"emissiveFactor":[0.0,
		0.0,
		0.0],
		"alphaMode":"OPAQUE",
		"doubleSided":true,
		"name":"default"
	},
	{
		"pbrMetallicRoughness":{
			"baseColorFactor":[1.0,
			0.5166666666666666,
			0.0,
			1.0],
			"metallicFactor":1.0,
			"roughnessFactor":1.0
		},
		"emissiveFactor":[0.0,
		0.0,
		0.0],
		"alphaMode":"OPAQUE",
		"doubleSided":true,
		"name":"Mat"
	}]
}