{
	"asset":{
		"version":"2.0",
		"generator":"Created using the official Cinema 4D glTF Exporter 1.000x284978"
	},
	"scenes":[{
		"nodes":[0]
	}],
	"nodes":[{
		"name":"Boole",
		"children":[1,
		2]
	},
	{
		"name":"Cube",
		"translation":[0.0,
		100.0,
		0.0],
		"rotation":[0.0,
		0.0,
		0.0,
		-1.0],
		"scale":[1.0,
		1.0,
		1.0],
		"mesh":0
	},
	{
		"name":"Metaball.1",
		"translation":[0.0,
		-10.534626960754395,
		0.0],
		"rotation":[0.0,
		0.0,
		0.0,
		-1.0],
		"scale":[1.0,
		1.0,
		1.0],
		"children":[3]
	},
	{
		"name":"Metaball.1",
		"mesh":1
	}],
	"meshes":[{
		"name":"Cube",
		"primitives":[{
			"attributes":{
				"POSITION":1,
				"NORMAL":2,
				"TEXCOORD_0":3
			},
			"indices":0
		}]
	},
	{
		"name":"Metaball.1",
		"primitives":[{
			"attributes":{
				"POSITION":5,
				"NORMAL":6
			},
			"indices":4,
			"material":0
		}]
	}],
	"accessors":[{
		"bufferView":0,
		"type":"SCALAR",
		"componentType":5123,
		"count":1686,
		"byteOffset":0,
		"min":[0],
		"max":[563]
	},
	{
		"bufferView":1,
		"type":"VEC3",
		"componentType":5126,
		"count":564,
		"byteOffset":0,
		"min":[-133.74041748046876,
		-100.0,
		-158.72300720214845],
		"max":[264.5819091796875,
		-100.0,
		156.63523864746095]
	},
	{
		"bufferView":1,
		"type":"VEC3",
		"componentType":5126,
		"count":564,
		"byteOffset":12,
		"min":[0.0,
		-1.0,
		0.0],
		"max":[0.0,
		-1.0,
		0.0]
	},
	{
		"bufferView":1,
		"type":"VEC2",
		"componentType":5126,
		"count":564,
		"byteOffset":24,
		"min":[0.26976484060287478,
		0.18132388591766358],
		"max":[0.9554797410964966,
		0.8229236602783203]
	},
	{
		"bufferView":2,
		"type":"SCALAR",
		"componentType":5123,
		"count":70932,
		"byteOffset":0,
		"min":[0],
		"max":[12109]
	},
	{
		"bufferView":3,
		"type":"VEC3",
		"componentType":5126,
		"count":12110,
		"byteOffset":0,
		"min":[-133.74041748046876,
		10.534626960754395,
		-158.72300720214845],
		"max":[264.5819091796875,
		129.30072021484376,
		156.63523864746095]
	},
	{
		"bufferView":3,
		"type":"VEC3",
		"componentType":5126,
		"count":12110,
		"byteOffset":12,
		"min":[-0.9994643330574036,
		-0.9999709129333496,
		-0.9863148331642151],
		"max":[0.9981144070625305,
		1.0,
		0.9875196218490601]
	}],
	"bufferViews":[{
		"buffer":0,
		"target":34963,
		"byteOffset":0,
		"byteLength":3372
	},
	{
		"buffer":0,
		"target":34962,
		"byteOffset":3372,
		"byteLength":18048,
		"byteStride":32
	},
	{
		"buffer":1,
		"target":34963,
		"byteOffset":0,
		"byteLength":141864
	},
	{
		"buffer":1,
		"target":34962,
		"byteOffset":141864,
		"byteLength":290640,
		"byteStride":24
	}],
	"buffers":[{
		"uri":"data:application/octet-stream;base64,",
		"byteLength":21420
	},
	{
		"uri":"data:application/octet-stream;base64,",
		"byteLength":432504
	}],
	"materials":[{
		"pbrMetallicRoughness":{
			"baseColorFactor":[1.0,
			0.5735,
			0.0,
			1.0],
			"metallicFactor":1.0,
			"roughnessFactor":1.0
		},
		"emissiveFactor":[0.0,
		0.0,
		0.0],
		"alphaMode":"OPAQUE",
		"doubleSided":true,
		"name":"Mat"
	}]
}