{
	"nodes":[{
		"rotation":[0.0,
		-0.14599913358688355,
		0.0,
		0.9892846941947937],
		"name":"כתום.5",
		"translation":[0.0,
		0.0,
		195.75640869140626],
		"scale":[1.0,
		1.0,
		1.0],
		"mesh":0,
		"children":[1,
		2]
	},
	{
		"rotation":[0.0,
		0.0,
		0.0,
		-1.0],
		"name":"Cap 1",
		"translation":[0.0,
		0.0,
		-96.39234161376953],
		"scale":[1.0,
		1.0,
		1.0],
		"mesh":1
	},
	{
		"rotation":[0.0,
		0.0,
		0.0,
		-1.0],
		"name":"Cap 2",
		"translation":[0.0,
		0.0,
		-96.39234161376953],
		"scale":[1.0,
		1.0,
		1.0],
		"mesh":2
	},
	{
		"rotation":[0.0,
		-0.17574197053909303,
		0.0,
		0.9844362735748291],
		"name":"כתום.4",
		"translation":[-203.929443359375,
		0.0,
		898.8226318359375],
		"scale":[1.0,
		1.0,
		1.0],
		"mesh":3,
		"children":[4,
		5]
	},
	{
		"rotation":[0.0,
		0.0,
		0.0,
		-1.0],
		"name":"Cap 1",
		"translation":[0.0,
		0.0,
		-605.4474487304688],
		"scale":[1.0,
		1.0,
		1.0],
		"mesh":4
	},
	{
		"rotation":[0.0,
		0.0,
		0.0,
		-1.0],
		"name":"Cap 2",
		"translation":[0.0,
		0.0,
		-605.4474487304688],
		"scale":[1.0,
		1.0,
		1.0],
		"mesh":5
	},
	{
		"rotation":[0.0,
		-0.02926655486226082,
		0.0,
		-0.9995716214179993],
		"name":"כתום.3",
		"translation":[0.0,
		0.0,
		1534.822265625],
		"scale":[1.0,
		1.0,
		1.0],
		"mesh":6,
		"children":[7,
		8]
	},
	{
		"rotation":[0.0,
		0.0,
		0.0,
		-1.0],
		"name":"Cap 1",
		"translation":[0.0,
		0.0,
		-1866.267822265625],
		"scale":[1.0,
		1.0,
		1.0],
		"mesh":7
	},
	{
		"rotation":[0.0,
		0.0,
		0.0,
		-1.0],
		"name":"Cap 2",
		"translation":[0.0,
		0.0,
		-1866.267822265625],
		"scale":[1.0,
		1.0,
		1.0],
		"mesh":8
	},
	{
		"rotation":[0.0,
		-0.15496021509170533,
		0.0,
		0.9879207015037537],
		"name":"כתום.2",
		"translation":[-184.24664306640626,
		0.0,
		2012.584228515625],
		"scale":[1.0,
		1.0,
		1.0],
		"mesh":9,
		"children":[10,
		11]
	},
	{
		"rotation":[0.0,
		0.0,
		0.0,
		-1.0],
		"name":"Cap 1",
		"translation":[0.0,
		0.0,
		-2430.03369140625],
		"scale":[1.0,
		1.0,
		1.0],
		"mesh":10
	},
	{
		"rotation":[0.0,
		0.0,
		0.0,
		-1.0],
		"name":"Cap 2",
		"translation":[0.0,
		0.0,
		-2430.03369140625],
		"scale":[1.0,
		1.0,
		1.0],
		"mesh":11
	},
	{
		"rotation":[0.0,
		-0.11714516580104828,
		0.0,
		0.9931148290634155],
		"name":"כתום.1",
		"translation":[0.0,
		0.0,
		2561.1044921875],
		"scale":[1.0,
		1.0,
		1.0],
		"mesh":12,
		"children":[13,
		14]
	},
	{
		"rotation":[0.0,
		0.0,
		0.0,
		-1.0],
		"name":"Cap 1",
		"translation":[0.0,
		0.0,
		47.89286804199219],
		"scale":[1.0,
		1.0,
		1.0],
		"mesh":13
	},
	{
		"rotation":[0.0,
		0.0,
		0.0,
		-1.0],
		"name":"Cap 2",
		"translation":[0.0,
		0.0,
		47.89286804199219],
		"scale":[1.0,
		1.0,
		1.0],
		"mesh":14
	},
	{
		"rotation":[0.0,
		-0.13333259522914887,
		0.0,
		-0.991071343421936],
		"name":"כתום",
		"translation":[0.0,
		0.0,
		3367.48291015625],
		"scale":[1.0,
		1.0,
		1.0],
		"mesh":15,
		"children":[16,
		17]
	},
	{
		"rotation":[0.0,
		0.0,
		0.0,
		-1.0],
		"name":"Cap 1",
		"translation":[0.0,
		0.0,
		-3081.590576171875],
		"scale":[1.0,
		1.0,
		1.0],
		"mesh":16
	},
	{
		"rotation":[0.0,
		0.0,
		0.0,
		-1.0],
		"name":"Cap 2",
		"translation":[0.0,
		0.0,
		-3081.590576171875],
		"scale":[1.0,
		1.0,
		1.0],
		"mesh":17
	}],
	"asset":{
		"version":"2.0",
		"generator":"Created using the official Cinema 4D glTF Exporter 1.000x284978"
	},
	"scenes":[{
		"nodes":[0,
		3,
		6,
		9,
		12,
		15]
	}],
	"meshes":[{
		"name":"כתום.5",
		"primitives":[{
			"attributes":{
				"POSITION":1,
				"NORMAL":2,
				"TEXCOORD_0":3
			},
			"indices":0,
			"material":0
		}]
	},
	{
		"name":"Cap 1",
		"primitives":[{
			"attributes":{
				"POSITION":5,
				"NORMAL":6,
				"TEXCOORD_0":7
			},
			"indices":4,
			"material":0
		}]
	},
	{
		"name":"Cap 2",
		"primitives":[{
			"attributes":{
				"POSITION":9,
				"NORMAL":10,
				"TEXCOORD_0":11
			},
			"indices":8,
			"material":0
		}]
	},
	{
		"name":"כתום.4",
		"primitives":[{
			"attributes":{
				"POSITION":13,
				"NORMAL":14,
				"TEXCOORD_0":15
			},
			"indices":12,
			"material":0
		}]
	},
	{
		"name":"Cap 1",
		"primitives":[{
			"attributes":{
				"POSITION":17,
				"NORMAL":18,
				"TEXCOORD_0":19
			},
			"indices":16,
			"material":0
		}]
	},
	{
		"name":"Cap 2",
		"primitives":[{
			"attributes":{
				"POSITION":21,
				"NORMAL":22,
				"TEXCOORD_0":23
			},
			"indices":20,
			"material":0
		}]
	},
	{
		"name":"כתום.3",
		"primitives":[{
			"attributes":{
				"POSITION":25,
				"NORMAL":26,
				"TEXCOORD_0":27
			},
			"indices":24,
			"material":0
		}]
	},
	{
		"name":"Cap 1",
		"primitives":[{
			"attributes":{
				"POSITION":29,
				"NORMAL":30,
				"TEXCOORD_0":31
			},
			"indices":28,
			"material":0
		}]
	},
	{
		"name":"Cap 2",
		"primitives":[{
			"attributes":{
				"POSITION":33,
				"NORMAL":34,
				"TEXCOORD_0":35
			},
			"indices":32,
			"material":0
		}]
	},
	{
		"name":"כתום.2",
		"primitives":[{
			"attributes":{
				"POSITION":37,
				"NORMAL":38,
				"TEXCOORD_0":39
			},
			"indices":36,
			"material":0
		}]
	},
	{
		"name":"Cap 1",
		"primitives":[{
			"attributes":{
				"POSITION":41,
				"NORMAL":42,
				"TEXCOORD_0":43
			},
			"indices":40,
			"material":0
		}]
	},
	{
		"name":"Cap 2",
		"primitives":[{
			"attributes":{
				"POSITION":45,
				"NORMAL":46,
				"TEXCOORD_0":47
			},
			"indices":44,
			"material":0
		}]
	},
	{
		"name":"כתום.1",
		"primitives":[{
			"attributes":{
				"POSITION":49,
				"NORMAL":50,
				"TEXCOORD_0":51
			},
			"indices":48,
			"material":0
		}]
	},
	{
		"name":"Cap 1",
		"primitives":[{
			"attributes":{
				"POSITION":53,
				"NORMAL":54,
				"TEXCOORD_0":55
			},
			"indices":52,
			"material":0
		}]
	},
	{
		"name":"Cap 2",
		"primitives":[{
			"attributes":{
				"POSITION":57,
				"NORMAL":58,
				"TEXCOORD_0":59
			},
			"indices":56,
			"material":0
		}]
	},
	{
		"name":"כתום",
		"primitives":[{
			"attributes":{
				"POSITION":61,
				"NORMAL":62,
				"TEXCOORD_0":63
			},
			"indices":60,
			"material":0
		}]
	},
	{
		"name":"Cap 1",
		"primitives":[{
			"attributes":{
				"POSITION":65,
				"NORMAL":66,
				"TEXCOORD_0":67
			},
			"indices":64,
			"material":0
		}]
	},
	{
		"name":"Cap 2",
		"primitives":[{
			"attributes":{
				"POSITION":69,
				"NORMAL":70,
				"TEXCOORD_0":71
			},
			"indices":68,
			"material":0
		}]
	}],
	"accessors":[{
		"bufferView":0,
		"type":"SCALAR",
		"componentType":5123,
		"max":[97],
		"count":234,
		"byteOffset":0,
		"min":[0]
	},
	{
		"bufferView":1,
		"type":"VEC3",
		"componentType":5126,
		"max":[200.0,
		950.0,
		302.4061279296875],
		"count":98,
		"byteOffset":0,
		"min":[0.0,
		0.0,
		-192.42930603027345]
	},
	{
		"bufferView":1,
		"type":"VEC3",
		"componentType":5126,
		"max":[0.0,
		1.0,
		1.0],
		"count":98,
		"byteOffset":12,
		"min":[0.0,
		-1.0,
		-1.0]
	},
	{
		"bufferView":1,
		"type":"VEC2",
		"componentType":5126,
		"max":[1.0,
		1.0],
		"count":98,
		"byteOffset":24,
		"min":[0.0,
		0.0]
	},
	{
		"bufferView":2,
		"type":"SCALAR",
		"componentType":5123,
		"max":[116],
		"count":117,
		"byteOffset":0,
		"min":[0]
	},
	{
		"bufferView":3,
		"type":"VEC3",
		"componentType":5126,
		"max":[0.0,
		950.0,
		398.7984619140625],
		"count":117,
		"byteOffset":0,
		"min":[0.0,
		0.0,
		-96.0369644165039]
	},
	{
		"bufferView":3,
		"type":"VEC3",
		"componentType":5126,
		"max":[-1.0,
		0.0,
		0.0],
		"count":117,
		"byteOffset":12,
		"min":[-1.0,
		0.0,
		0.0]
	},
	{
		"bufferView":3,
		"type":"VEC2",
		"componentType":5126,
		"max":[1.0,
		1.0],
		"count":117,
		"byteOffset":24,
		"min":[0.0,
		0.0]
	},
	{
		"bufferView":4,
		"type":"SCALAR",
		"componentType":5123,
		"max":[115],
		"count":117,
		"byteOffset":0,
		"min":[0]
	},
	{
		"bufferView":5,
		"type":"VEC3",
		"componentType":5126,
		"max":[200.0,
		950.0,
		398.7984619140625],
		"count":116,
		"byteOffset":0,
		"min":[200.0,
		0.0,
		-96.0369644165039]
	},
	{
		"bufferView":5,
		"type":"VEC3",
		"componentType":5126,
		"max":[1.0,
		0.0,
		0.0],
		"count":116,
		"byteOffset":12,
		"min":[1.0,
		0.0,
		0.0]
	},
	{
		"bufferView":5,
		"type":"VEC2",
		"componentType":5126,
		"max":[1.0,
		1.0],
		"count":116,
		"byteOffset":24,
		"min":[0.0,
		0.0]
	},
	{
		"bufferView":6,
		"type":"SCALAR",
		"componentType":5123,
		"max":[97],
		"count":222,
		"byteOffset":0,
		"min":[0]
	},
	{
		"bufferView":7,
		"type":"VEC3",
		"componentType":5126,
		"max":[200.0,
		950.0550537109375,
		250.51666259765626],
		"count":98,
		"byteOffset":0,
		"min":[0.0,
		0.0,
		-250.42831420898438]
	},
	{
		"bufferView":7,
		"type":"VEC3",
		"componentType":5126,
		"max":[0.0,
		1.0,
		1.0],
		"count":98,
		"byteOffset":12,
		"min":[0.0,
		-1.0,
		-1.0]
	},
	{
		"bufferView":7,
		"type":"VEC2",
		"componentType":5126,
		"max":[1.0,
		1.0],
		"count":98,
		"byteOffset":24,
		"min":[0.0,
		0.0]
	},
	{
		"bufferView":8,
		"type":"SCALAR",
		"componentType":5123,
		"max":[87],
		"count":105,
		"byteOffset":0,
		"min":[0]
	},
	{
		"bufferView":9,
		"type":"VEC3",
		"componentType":5126,
		"max":[0.0,
		950.0550537109375,
		855.964111328125],
		"count":88,
		"byteOffset":0,
		"min":[0.0,
		0.0,
		355.0191345214844]
	},
	{
		"bufferView":9,
		"type":"VEC3",
		"componentType":5126,
		"max":[-1.0,
		0.0,
		0.0],
		"count":88,
		"byteOffset":12,
		"min":[-1.0,
		0.0,
		0.0]
	},
	{
		"bufferView":9,
		"type":"VEC2",
		"componentType":5126,
		"max":[0.9967784881591797,
		1.0],
		"count":88,
		"byteOffset":24,
		"min":[0.0,
		0.0]
	},
	{
		"bufferView":10,
		"type":"SCALAR",
		"componentType":5123,
		"max":[104],
		"count":105,
		"byteOffset":0,
		"min":[0]
	},
	{
		"bufferView":11,
		"type":"VEC3",
		"componentType":5126,
		"max":[200.0,
		950.0550537109375,
		855.964111328125],
		"count":105,
		"byteOffset":0,
		"min":[200.0,
		0.0,
		355.0191345214844]
	},
	{
		"bufferView":11,
		"type":"VEC3",
		"componentType":5126,
		"max":[1.0,
		0.0,
		0.0],
		"count":105,
		"byteOffset":12,
		"min":[1.0,
		0.0,
		0.0]
	},
	{
		"bufferView":11,
		"type":"VEC2",
		"componentType":5126,
		"max":[0.9967784881591797,
		1.0],
		"count":105,
		"byteOffset":24,
		"min":[0.0,
		0.0]
	},
	{
		"bufferView":12,
		"type":"SCALAR",
		"componentType":5123,
		"max":[73],
		"count":162,
		"byteOffset":0,
		"min":[0]
	},
	{
		"bufferView":13,
		"type":"VEC3",
		"componentType":5126,
		"max":[200.0,
		950.0,
		307.2232360839844],
		"count":74,
		"byteOffset":0,
		"min":[0.0,
		0.0,
		-187.84417724609376]
	},
	{
		"bufferView":13,
		"type":"VEC3",
		"componentType":5126,
		"max":[0.0,
		1.0,
		1.0],
		"count":74,
		"byteOffset":12,
		"min":[0.0,
		-1.0,
		-1.0]
	},
	{
		"bufferView":13,
		"type":"VEC2",
		"componentType":5126,
		"max":[1.0,
		1.0],
		"count":74,
		"byteOffset":24,
		"min":[0.0,
		0.0]
	},
	{
		"bufferView":14,
		"type":"SCALAR",
		"componentType":5123,
		"max":[71],
		"count":75,
		"byteOffset":0,
		"min":[0]
	},
	{
		"bufferView":15,
		"type":"VEC3",
		"componentType":5126,
		"max":[0.0,
		950.0,
		2173.490966796875],
		"count":72,
		"byteOffset":0,
		"min":[0.0,
		0.0,
		1678.423583984375]
	},
	{
		"bufferView":15,
		"type":"VEC3",
		"componentType":5126,
		"max":[-1.0,
		0.0,
		0.0],
		"count":72,
		"byteOffset":12,
		"min":[-1.0,
		0.0,
		0.0]
	},
	{
		"bufferView":15,
		"type":"VEC2",
		"componentType":5126,
		"max":[0.8439737558364868,
		1.0],
		"count":72,
		"byteOffset":24,
		"min":[0.0,
		0.0]
	},
	{
		"bufferView":16,
		"type":"SCALAR",
		"componentType":5123,
		"max":[57],
		"count":75,
		"byteOffset":0,
		"min":[0]
	},
	{
		"bufferView":17,
		"type":"VEC3",
		"componentType":5126,
		"max":[200.0,
		950.0,
		2173.490966796875],
		"count":58,
		"byteOffset":0,
		"min":[200.0,
		0.0,
		1678.423583984375]
	},
	{
		"bufferView":17,
		"type":"VEC3",
		"componentType":5126,
		"max":[1.0,
		0.0,
		0.0],
		"count":58,
		"byteOffset":12,
		"min":[1.0,
		0.0,
		0.0]
	},
	{
		"bufferView":17,
		"type":"VEC2",
		"componentType":5126,
		"max":[0.8439737558364868,
		1.0],
		"count":58,
		"byteOffset":24,
		"min":[0.0,
		0.0]
	},
	{
		"bufferView":18,
		"type":"SCALAR",
		"componentType":5123,
		"max":[67],
		"count":180,
		"byteOffset":0,
		"min":[0]
	},
	{
		"bufferView":19,
		"type":"VEC3",
		"componentType":5126,
		"max":[200.0,
		950.0,
		136.9524688720703],
		"count":68,
		"byteOffset":0,
		"min":[0.0,
		0.0,
		-56.0322380065918]
	},
	{
		"bufferView":19,
		"type":"VEC3",
		"componentType":5126,
		"max":[0.0,
		0.9999575614929199,
		1.0],
		"count":68,
		"byteOffset":12,
		"min":[0.0,
		-1.0,
		-1.0]
	},
	{
		"bufferView":19,
		"type":"VEC2",
		"componentType":5126,
		"max":[1.0,
		1.0],
		"count":68,
		"byteOffset":24,
		"min":[0.0,
		0.0]
	},
	{
		"bufferView":20,
		"type":"SCALAR",
		"componentType":5123,
		"max":[75],
		"count":84,
		"byteOffset":0,
		"min":[0]
	},
	{
		"bufferView":21,
		"type":"VEC3",
		"componentType":5126,
		"max":[0.0,
		950.0,
		2566.986328125],
		"count":76,
		"byteOffset":0,
		"min":[0.0,
		0.0,
		2374.00146484375]
	},
	{
		"bufferView":21,
		"type":"VEC3",
		"componentType":5126,
		"max":[-1.0,
		0.0,
		0.0],
		"count":76,
		"byteOffset":12,
		"min":[-1.0,
		0.0,
		0.0]
	},
	{
		"bufferView":21,
		"type":"VEC2",
		"componentType":5126,
		"max":[0.5179131031036377,
		1.0],
		"count":76,
		"byteOffset":24,
		"min":[0.0,
		0.0]
	},
	{
		"bufferView":22,
		"type":"SCALAR",
		"componentType":5123,
		"max":[82],
		"count":84,
		"byteOffset":0,
		"min":[0]
	},
	{
		"bufferView":23,
		"type":"VEC3",
		"componentType":5126,
		"max":[200.0,
		950.0,
		2566.986328125],
		"count":83,
		"byteOffset":0,
		"min":[200.0,
		0.0,
		2374.00146484375]
	},
	{
		"bufferView":23,
		"type":"VEC3",
		"componentType":5126,
		"max":[1.0,
		0.0,
		0.0],
		"count":83,
		"byteOffset":12,
		"min":[1.0,
		0.0,
		0.0]
	},
	{
		"bufferView":23,
		"type":"VEC2",
		"componentType":5126,
		"max":[0.5179131031036377,
		1.0],
		"count":83,
		"byteOffset":24,
		"min":[0.0,
		0.0]
	},
	{
		"bufferView":24,
		"type":"SCALAR",
		"componentType":5123,
		"max":[65],
		"count":150,
		"byteOffset":0,
		"min":[0]
	},
	{
		"bufferView":25,
		"type":"VEC3",
		"componentType":5126,
		"max":[200.0,
		949.29296875,
		242.5738067626953],
		"count":66,
		"byteOffset":0,
		"min":[0.0,
		0.0,
		-252.49359130859376]
	},
	{
		"bufferView":25,
		"type":"VEC3",
		"componentType":5126,
		"max":[0.0,
		1.0,
		1.0],
		"count":66,
		"byteOffset":12,
		"min":[0.0,
		-1.0,
		-1.0]
	},
	{
		"bufferView":25,
		"type":"VEC2",
		"componentType":5126,
		"max":[1.0,
		1.0],
		"count":66,
		"byteOffset":24,
		"min":[0.0,
		0.0]
	},
	{
		"bufferView":26,
		"type":"SCALAR",
		"componentType":5123,
		"max":[66],
		"count":69,
		"byteOffset":0,
		"min":[0]
	},
	{
		"bufferView":27,
		"type":"VEC3",
		"componentType":5126,
		"max":[0.0,
		949.29296875,
		194.68093872070313],
		"count":67,
		"byteOffset":0,
		"min":[0.0,
		0.0,
		-300.386474609375]
	},
	{
		"bufferView":27,
		"type":"VEC3",
		"componentType":5126,
		"max":[-1.0,
		0.0,
		0.0],
		"count":67,
		"byteOffset":12,
		"min":[-1.0,
		0.0,
		0.0]
	},
	{
		"bufferView":27,
		"type":"VEC2",
		"componentType":5126,
		"max":[0.8034132719039917,
		1.0],
		"count":67,
		"byteOffset":24,
		"min":[0.0,
		0.0]
	},
	{
		"bufferView":28,
		"type":"SCALAR",
		"componentType":5123,
		"max":[51],
		"count":69,
		"byteOffset":0,
		"min":[0]
	},
	{
		"bufferView":29,
		"type":"VEC3",
		"componentType":5126,
		"max":[200.0,
		949.29296875,
		194.68093872070313],
		"count":52,
		"byteOffset":0,
		"min":[200.0,
		0.0,
		-300.386474609375]
	},
	{
		"bufferView":29,
		"type":"VEC3",
		"componentType":5126,
		"max":[1.0,
		0.0,
		0.0],
		"count":52,
		"byteOffset":12,
		"min":[1.0,
		0.0,
		0.0]
	},
	{
		"bufferView":29,
		"type":"VEC2",
		"componentType":5126,
		"max":[0.8034132719039917,
		1.0],
		"count":52,
		"byteOffset":24,
		"min":[0.0,
		0.0]
	},
	{
		"bufferView":30,
		"type":"SCALAR",
		"componentType":5123,
		"max":[71],
		"count":162,
		"byteOffset":0,
		"min":[0]
	},
	{
		"bufferView":31,
		"type":"VEC3",
		"componentType":5126,
		"max":[200.0,
		950.21875,
		206.41204833984376],
		"count":72,
		"byteOffset":0,
		"min":[0.0,
		0.0,
		-332.617431640625]
	},
	{
		"bufferView":31,
		"type":"VEC3",
		"componentType":5126,
		"max":[0.0,
		1.0,
		1.0],
		"count":72,
		"byteOffset":12,
		"min":[0.0,
		-1.0,
		-1.0]
	},
	{
		"bufferView":31,
		"type":"VEC2",
		"componentType":5126,
		"max":[1.0,
		1.0],
		"count":72,
		"byteOffset":24,
		"min":[0.0,
		0.0]
	},
	{
		"bufferView":32,
		"type":"SCALAR",
		"componentType":5123,
		"max":[55],
		"count":69,
		"byteOffset":0,
		"min":[0]
	},
	{
		"bufferView":33,
		"type":"VEC3",
		"componentType":5126,
		"max":[0.0,
		950.21875,
		3288.002685546875],
		"count":56,
		"byteOffset":0,
		"min":[0.0,
		0.0,
		2748.97314453125]
	},
	{
		"bufferView":33,
		"type":"VEC3",
		"componentType":5126,
		"max":[-1.0,
		0.0,
		0.0],
		"count":56,
		"byteOffset":12,
		"min":[-1.0,
		0.0,
		0.0]
	},
	{
		"bufferView":33,
		"type":"VEC2",
		"componentType":5126,
		"max":[1.0,
		1.0],
		"count":56,
		"byteOffset":24,
		"min":[0.0,
		0.0]
	},
	{
		"bufferView":34,
		"type":"SCALAR",
		"componentType":5123,
		"max":[68],
		"count":69,
		"byteOffset":0,
		"min":[0]
	},
	{
		"bufferView":35,
		"type":"VEC3",
		"componentType":5126,
		"max":[200.0,
		950.21875,
		3288.002685546875],
		"count":69,
		"byteOffset":0,
		"min":[200.0,
		0.0,
		2748.97314453125]
	},
	{
		"bufferView":35,
		"type":"VEC3",
		"componentType":5126,
		"max":[1.0,
		0.0,
		0.0],
		"count":69,
		"byteOffset":12,
		"min":[1.0,
		0.0,
		0.0]
	},
	{
		"bufferView":35,
		"type":"VEC2",
		"componentType":5126,
		"max":[1.0,
		1.0],
		"count":69,
		"byteOffset":24,
		"min":[0.0,
		0.0]
	}],
	"bufferViews":[{
		"byteLength":468,
		"buffer":0,
		"byteOffset":0,
		"target":34963
	},
	{
		"byteLength":3136,
		"buffer":0,
		"byteOffset":468,
		"target":34962,
		"byteStride":32
	},
	{
		"byteLength":234,
		"buffer":1,
		"byteOffset":0,
		"target":34963
	},
	{
		"byteLength":3744,
		"buffer":1,
		"byteOffset":236,
		"target":34962,
		"byteStride":32
	},
	{
		"byteLength":234,
		"buffer":2,
		"byteOffset":0,
		"target":34963
	},
	{
		"byteLength":3712,
		"buffer":2,
		"byteOffset":236,
		"target":34962,
		"byteStride":32
	},
	{
		"byteLength":444,
		"buffer":3,
		"byteOffset":0,
		"target":34963
	},
	{
		"byteLength":3136,
		"buffer":3,
		"byteOffset":444,
		"target":34962,
		"byteStride":32
	},
	{
		"byteLength":210,
		"buffer":4,
		"byteOffset":0,
		"target":34963
	},
	{
		"byteLength":2816,
		"buffer":4,
		"byteOffset":212,
		"target":34962,
		"byteStride":32
	},
	{
		"byteLength":210,
		"buffer":5,
		"byteOffset":0,
		"target":34963
	},
	{
		"byteLength":3360,
		"buffer":5,
		"byteOffset":212,
		"target":34962,
		"byteStride":32
	},
	{
		"byteLength":324,
		"buffer":6,
		"byteOffset":0,
		"target":34963
	},
	{
		"byteLength":2368,
		"buffer":6,
		"byteOffset":324,
		"target":34962,
		"byteStride":32
	},
	{
		"byteLength":150,
		"buffer":7,
		"byteOffset":0,
		"target":34963
	},
	{
		"byteLength":2304,
		"buffer":7,
		"byteOffset":152,
		"target":34962,
		"byteStride":32
	},
	{
		"byteLength":150,
		"buffer":8,
		"byteOffset":0,
		"target":34963
	},
	{
		"byteLength":1856,
		"buffer":8,
		"byteOffset":152,
		"target":34962,
		"byteStride":32
	},
	{
		"byteLength":360,
		"buffer":9,
		"byteOffset":0,
		"target":34963
	},
	{
		"byteLength":2176,
		"buffer":9,
		"byteOffset":360,
		"target":34962,
		"byteStride":32
	},
	{
		"byteLength":168,
		"buffer":10,
		"byteOffset":0,
		"target":34963
	},
	{
		"byteLength":2432,
		"buffer":10,
		"byteOffset":168,
		"target":34962,
		"byteStride":32
	},
	{
		"byteLength":168,
		"buffer":11,
		"byteOffset":0,
		"target":34963
	},
	{
		"byteLength":2656,
		"buffer":11,
		"byteOffset":168,
		"target":34962,
		"byteStride":32
	},
	{
		"byteLength":300,
		"buffer":12,
		"byteOffset":0,
		"target":34963
	},
	{
		"byteLength":2112,
		"buffer":12,
		"byteOffset":300,
		"target":34962,
		"byteStride":32
	},
	{
		"byteLength":138,
		"buffer":13,
		"byteOffset":0,
		"target":34963
	},
	{
		"byteLength":2144,
		"buffer":13,
		"byteOffset":140,
		"target":34962,
		"byteStride":32
	},
	{
		"byteLength":138,
		"buffer":14,
		"byteOffset":0,
		"target":34963
	},
	{
		"byteLength":1664,
		"buffer":14,
		"byteOffset":140,
		"target":34962,
		"byteStride":32
	},
	{
		"byteLength":324,
		"buffer":15,
		"byteOffset":0,
		"target":34963
	},
	{
		"byteLength":2304,
		"buffer":15,
		"byteOffset":324,
		"target":34962,
		"byteStride":32
	},
	{
		"byteLength":138,
		"buffer":16,
		"byteOffset":0,
		"target":34963
	},
	{
		"byteLength":1792,
		"buffer":16,
		"byteOffset":140,
		"target":34962,
		"byteStride":32
	},
	{
		"byteLength":138,
		"buffer":17,
		"byteOffset":0,
		"target":34963
	},
	{
		"byteLength":2208,
		"buffer":17,
		"byteOffset":140,
		"target":34962,
		"byteStride":32
	}],
	"buffers":[{
		"uri":"data:application/octet-stream;base64,",
		"byteLength":3604
	},
	{
		"uri":"data:application/octet-stream;base64,",
		"byteLength":3980
	},
	{
		"uri":"data:application/octet-stream;base64,",
		"byteLength":3948
	},
	{
		"uri":"data:application/octet-stream;base64,",
		"byteLength":3580
	},
	{
		"uri":"data:application/octet-stream;base64,",
		"byteLength":3028
	},
	{
		"uri":"data:application/octet-stream;base64,",
		"byteLength":3572
	},
	{
		"uri":"data:application/octet-stream;base64,",
		"byteLength":2692
	},
	{
		"uri":"data:application/octet-stream;base64,",
		"byteLength":2456
	},
	{
		"uri":"data:application/octet-stream;base64,",
		"byteLength":2008
	},
	{
		"uri":"data:application/octet-stream;base64,",
		"byteLength":2536
	},
	{
		"uri":"data:application/octet-stream;base64,",
		"byteLength":2600
	},
	{
		"uri":"data:application/octet-stream;base64,",
		"byteLength":2824
	},
	{
		"uri":"data:application/octet-stream;base64,",
		"byteLength":2412
	},
	{
		"uri":"data:application/octet-stream;base64,",
		"byteLength":2284
	},
	{
		"uri":"data:application/octet-stream;base64,",
		"byteLength":1804
	},
	{
		"uri":"data:application/octet-stream;base64,",
		"byteLength":2628
	},
	{
		"uri":"data:application/octet-stream;base64,",
		"byteLength":1932
	},
	{
		"uri":"data:application/octet-stream;base64,",
		"byteLength":2348
	}],
	"materials":[{
		"pbrMetallicRoughness":{
			"baseColorFactor":[1.0,
			0.5166666666666666,
			0.0,
			1.0],
			"metallicFactor":1.0,
			"roughnessFactor":1.0
		},
		"emissiveFactor":[0.0,
		0.0,
		0.0],
		"alphaMode":"OPAQUE",
		"doubleSided":true,
		"name":"Mat"
	}]
}