{
	"asset":{
		"version":"2.0",
		"generator":"Created using the official Cinema 4D glTF Exporter 1.000x284978"
	},
	"bufferViews":[{
		"buffer":0,
		"byteOffset":0,
		"byteLength":8976,
		"target":34963
	},
	{
		"buffer":0,
		"byteOffset":8976,
		"byteLength":19632,
		"target":34962,
		"byteStride":24
	},
	{
		"buffer":1,
		"byteOffset":0,
		"byteLength":8700,
		"target":34963
	},
	{
		"buffer":1,
		"byteOffset":8700,
		"byteLength":19032,
		"target":34962,
		"byteStride":24
	},
	{
		"buffer":2,
		"byteOffset":0,
		"byteLength":14892,
		"target":34963
	},
	{
		"buffer":2,
		"byteOffset":14892,
		"byteLength":32808,
		"target":34962,
		"byteStride":24
	},
	{
		"buffer":3,
		"byteOffset":0,
		"byteLength":16182,
		"target":34963
	},
	{
		"buffer":3,
		"byteOffset":16184,
		"byteLength":37704,
		"target":34962,
		"byteStride":24
	},
	{
		"buffer":4,
		"byteOffset":0,
		"byteLength":182082,
		"target":34963
	},
	{
		"buffer":4,
		"byteOffset":182084,
		"byteLength":424920,
		"target":34962,
		"byteStride":24
	}],
	"scenes":[{
		"nodes":[0]
	}],
	"nodes":[{
		"name":"Null",
		"translation":[8.148356437683106,
		29.674850463867189,
		38.016746520996097],
		"rotation":[0.0,
		0.0,
		0.0,
		-1.0],
		"children":[1,
		3,
		5,
		7,
		9],
		"scale":[1.0,
		1.0,
		1.0]
	},
	{
		"name":"Polygon Reduction",
		"translation":[-8.148356437683106,
		-29.674850463867189,
		-38.016746520996097],
		"rotation":[0.0,
		0.0,
		0.0,
		-1.0],
		"children":[2],
		"scale":[1.0,
		1.0,
		1.0]
	},
	{
		"name":"יד ימין.1*Sphere",
		"translation":[-33.87806701660156,
		5.370377063751221,
		79.99043273925781],
		"rotation":[0.1962185800075531,
		0.1511823534965515,
		0.6264517307281494,
		0.7390536665916443],
		"scale":[1.0,
		1.0,
		1.0],
		"mesh":0
	},
	{
		"name":"Polygon Reduction",
		"translation":[-8.148356437683106,
		-29.674850463867189,
		-38.016746520996097],
		"rotation":[0.0,
		0.0,
		0.0,
		-1.0],
		"children":[4],
		"scale":[1.0,
		1.0,
		1.0]
	},
	{
		"name":"יד שמאל.1*Sphere",
		"translation":[75.62384796142578,
		33.78689956665039,
		27.523326873779298],
		"rotation":[1.2541213657619636e-17,
		-1.7193307697428284e-16,
		0.7536200881004334,
		-0.6573102474212647],
		"scale":[1.0,
		1.0,
		1.0],
		"mesh":1
	},
	{
		"name":"Polygon Reduction",
		"translation":[-8.148356437683106,
		-29.674850463867189,
		-38.016746520996097],
		"rotation":[0.0,
		0.0,
		0.0,
		-1.0],
		"children":[6],
		"scale":[1.0,
		1.0,
		1.0]
	},
	{
		"name":"יד ימין",
		"translation":[-0.33466628193855288,
		36.40565872192383,
		27.523326873779298],
		"rotation":[0.0,
		-1.2246468525851679e-16,
		0.0,
		-1.0],
		"scale":[1.0,
		1.0,
		1.0],
		"mesh":2
	},
	{
		"name":"Polygon Reduction",
		"translation":[-8.148356437683106,
		-29.674850463867189,
		-38.016746520996097],
		"rotation":[0.0,
		0.0,
		0.0,
		-1.0],
		"children":[8],
		"scale":[1.0,
		1.0,
		1.0]
	},
	{
		"name":"יד שמאל",
		"translation":[-0.33466628193855288,
		36.40565872192383,
		27.523326873779298],
		"rotation":[0.0,
		-1.2246468525851679e-16,
		0.0,
		-1.0],
		"scale":[1.0,
		1.0,
		1.0],
		"mesh":3
	},
	{
		"name":"Polygon Reduction",
		"translation":[-8.148356437683106,
		-29.674850463867189,
		-38.016746520996097],
		"rotation":[0.0,
		0.0,
		0.0,
		-1.0],
		"children":[10],
		"scale":[1.0,
		1.0,
		1.0]
	},
	{
		"name":"הכל טוב בשביל הידיים",
		"translation":[-0.33466628193855288,
		36.40565872192383,
		27.523326873779298],
		"rotation":[0.0,
		-1.2246468525851679e-16,
		0.0,
		-1.0],
		"scale":[1.0,
		1.0,
		1.0],
		"mesh":4
	}],
	"meshes":[{
		"name":"יד ימין.1*Sphere",
		"primitives":[{
			"attributes":{
				"POSITION":1,
				"NORMAL":2
			},
			"indices":0
		}]
	},
	{
		"name":"יד שמאל.1*Sphere",
		"primitives":[{
			"attributes":{
				"POSITION":4,
				"NORMAL":5
			},
			"indices":3
		}]
	},
	{
		"name":"יד ימין",
		"primitives":[{
			"attributes":{
				"POSITION":7,
				"NORMAL":8
			},
			"indices":6
		}]
	},
	{
		"name":"יד שמאל",
		"primitives":[{
			"attributes":{
				"POSITION":10,
				"NORMAL":11
			},
			"indices":9
		}]
	},
	{
		"name":"הכל טוב בשביל הידיים",
		"primitives":[{
			"attributes":{
				"POSITION":13,
				"NORMAL":14
			},
			"indices":12
		}]
	}],
	"accessors":[{
		"min":[0],
		"bufferView":0,
		"type":"SCALAR",
		"componentType":5123,
		"count":4488,
		"byteOffset":0,
		"max":[817]
	},
	{
		"min":[-4.906687259674072,
		-22.533655166625978,
		-4.726562023162842],
		"bufferView":1,
		"type":"VEC3",
		"componentType":5126,
		"count":818,
		"byteOffset":0,
		"max":[7.433907985687256,
		2.714463472366333,
		15.764538764953614]
	},
	{
		"min":[-0.998695969581604,
		-0.9985429644584656,
		-0.9998648762702942],
		"bufferView":1,
		"type":"VEC3",
		"componentType":5126,
		"count":818,
		"byteOffset":12,
		"max":[0.9955504536628723,
		0.9901766180992127,
		0.9990262985229492]
	},
	{
		"min":[0],
		"bufferView":2,
		"type":"SCALAR",
		"componentType":5123,
		"count":4350,
		"byteOffset":0,
		"max":[792]
	},
	{
		"min":[32.44639587402344,
		-53.75232696533203,
		42.32207107543945],
		"bufferView":3,
		"type":"VEC3",
		"componentType":5126,
		"count":793,
		"byteOffset":0,
		"max":[41.129337310791019,
		-30.110933303833009,
		61.493980407714847]
	},
	{
		"min":[-0.9993934631347656,
		-0.989011824131012,
		-0.9962167143821716],
		"bufferView":3,
		"type":"VEC3",
		"componentType":5126,
		"count":793,
		"byteOffset":12,
		"max":[0.9996361136436462,
		0.9926507472991943,
		0.9935739040374756]
	},
	{
		"min":[0],
		"bufferView":4,
		"type":"SCALAR",
		"componentType":5123,
		"count":7446,
		"byteOffset":0,
		"max":[1366]
	},
	{
		"min":[-37.66371154785156,
		-53.37548828125,
		25.905567169189454],
		"bufferView":5,
		"type":"VEC3",
		"componentType":5126,
		"count":1367,
		"byteOffset":0,
		"max":[-22.973003387451173,
		7.817194938659668,
		67.47666931152344]
	},
	{
		"min":[-0.9998313784599304,
		-0.9989774227142334,
		-0.9998648166656494],
		"bufferView":5,
		"type":"VEC3",
		"componentType":5126,
		"count":1367,
		"byteOffset":12,
		"max":[0.9998693466186523,
		1.0,
		0.9989305734634399]
	},
	{
		"min":[0],
		"bufferView":6,
		"type":"SCALAR",
		"componentType":5123,
		"count":8091,
		"byteOffset":0,
		"max":[1570]
	},
	{
		"min":[20.904890060424806,
		-53.70537567138672,
		22.625225067138673],
		"bufferView":7,
		"type":"VEC3",
		"componentType":5126,
		"count":1571,
		"byteOffset":0,
		"max":[41.09593200683594,
		13.374762535095215,
		63.898277282714847]
	},
	{
		"min":[-0.9996210932731628,
		-0.9948804378509522,
		-0.9990464448928833],
		"bufferView":7,
		"type":"VEC3",
		"componentType":5126,
		"count":1571,
		"byteOffset":12,
		"max":[0.9999805092811585,
		1.0,
		0.9974186420440674]
	},
	{
		"min":[0],
		"bufferView":8,
		"type":"SCALAR",
		"componentType":5123,
		"count":91041,
		"byteOffset":0,
		"max":[17704]
	},
	{
		"min":[-35.68119812011719,
		-37.30832290649414,
		-125.70153045654297],
		"bufferView":9,
		"type":"VEC3",
		"componentType":5126,
		"count":17705,
		"byteOffset":0,
		"max":[34.96573257446289,
		50.06752014160156,
		80.5807113647461]
	},
	{
		"min":[-1.0,
		-1.0,
		-0.9999456405639648],
		"bufferView":9,
		"type":"VEC3",
		"componentType":5126,
		"count":17705,
		"byteOffset":12,
		"max":[1.0,
		0.9999989867210388,
		0.9999272227287293]
	}],
	"buffers":[{
		"uri":"data:application/octet-stream;base64,",
		"byteLength":28608
	},
	{
		"uri":"data:application/octet-stream;base64,",
		"byteLength":27732
	},
	{
		"uri":"data:application/octet-stream;base64,",
		"byteLength":47700
	},
	{
		"uri":"data:application/octet-stream;base64,",
		"byteLength":53888
	},
	{
		"uri":"data:application/octet-stream;base64,",
		"byteLength":607004
	}]
}