{
	"nodes":[{
		"rotation":[-0.013638361357152462,
		-0.0005307112005539238,
		0.03888007253408432,
		-0.9991506934165955],
		"name":"כוזס.3",
		"translation":[21.851917266845704,
		85.4397201538086,
		52.41341018676758],
		"scale":[1.0,
		1.0,
		1.0],
		"children":[1,
		4]
	},
	{
		"rotation":[0.0,
		0.0,
		0.0,
		-1.0],
		"name":"ספל3",
		"translation":[0.8545719385147095,
		0.1270589977502823,
		-1.0868714274121869e-14],
		"scale":[1.0,
		1.0,
		1.0],
		"children":[2,
		3]
	},
	{
		"rotation":[0.0,
		0.0,
		0.0,
		-1.0],
		"name":"Sweep",
		"translation":[0.0,
		-6.217248937900877e-15,
		-1.0658141036401503e-14],
		"scale":[1.0,
		1.0,
		1.0],
		"mesh":0
	},
	{
		"rotation":[0.0,
		0.0,
		0.0,
		-1.0],
		"name":"Lathe.1",
		"translation":[0.0,
		-6.217248937900877e-15,
		-1.0658141036401503e-14],
		"scale":[1.0,
		1.0,
		1.0],
		"mesh":1
	},
	{
		"rotation":[0.0,
		0.0,
		0.0,
		-1.0],
		"name":"צלחת",
		"translation":[2.0539125955565397e-15,
		-1.3766765505351941e-14,
		-1.4210854715202005e-14],
		"scale":[1.0,
		1.0,
		1.0],
		"mesh":2
	},
	{
		"rotation":[0.026878701522946359,
		0.9058921337127686,
		0.020163124427199365,
		0.4221734404563904],
		"name":"כוזס",
		"translation":[-9.36551570892334,
		81.08653259277344,
		-2.998494863510132],
		"scale":[1.0,
		1.0,
		1.0],
		"children":[6,
		7,
		8]
	},
	{
		"rotation":[0.0,
		0.0,
		0.0,
		-1.0],
		"name":"Sweep",
		"translation":[1.3313895475514608e-16,
		0.0,
		0.0],
		"scale":[1.0,
		1.0,
		1.0],
		"mesh":3
	},
	{
		"rotation":[0.0,
		0.0,
		0.0,
		-1.0],
		"name":"Lathe.1",
		"translation":[1.3313895475514608e-16,
		0.0,
		0.0],
		"scale":[1.0,
		1.0,
		1.0],
		"mesh":4
	},
	{
		"rotation":[0.0,
		0.0,
		0.0,
		-1.0],
		"name":"Lathe",
		"translation":[1.3313895475514608e-16,
		0.0,
		0.0],
		"scale":[1.0,
		1.0,
		1.0],
		"mesh":5
	},
	{
		"rotation":[0.0,
		-0.23140420019626618,
		0.0,
		0.9728577136993408],
		"name":"Default",
		"translation":[-1.4093563556671143,
		76.52549743652344,
		22.4674015045166],
		"scale":[1.0,
		1.0,
		1.0],
		"mesh":6
	}],
	"asset":{
		"version":"2.0",
		"generator":"Created using the official Cinema 4D glTF Exporter 1.000x284978"
	},
	"scenes":[{
		"nodes":[0,
		5,
		9]
	}],
	"meshes":[{
		"name":"Sweep",
		"primitives":[{
			"attributes":{
				"POSITION":5,
				"NORMAL":6,
				"TEXCOORD_0":7
			},
			"indices":4,
			"material":0
		}]
	},
	{
		"name":"Lathe.1",
		"primitives":[{
			"attributes":{
				"POSITION":9,
				"NORMAL":10,
				"TEXCOORD_0":11
			},
			"indices":8,
			"material":0
		}]
	},
	{
		"name":"צלחת",
		"primitives":[{
			"attributes":{
				"POSITION":13,
				"NORMAL":14,
				"TEXCOORD_0":15
			},
			"indices":12,
			"material":0
		}]
	},
	{
		"name":"Sweep",
		"primitives":[{
			"attributes":{
				"POSITION":19,
				"NORMAL":20,
				"TEXCOORD_0":21
			},
			"indices":18,
			"material":0
		}]
	},
	{
		"name":"Lathe.1",
		"primitives":[{
			"attributes":{
				"POSITION":23,
				"NORMAL":24,
				"TEXCOORD_0":25
			},
			"indices":22,
			"material":0
		}]
	},
	{
		"name":"Lathe",
		"primitives":[{
			"attributes":{
				"POSITION":27,
				"NORMAL":28,
				"TEXCOORD_0":29
			},
			"indices":26,
			"material":0
		}]
	},
	{
		"name":"Default",
		"primitives":[{
			"attributes":{
				"POSITION":31,
				"NORMAL":32
			},
			"indices":30,
			"material":0
		}]
	}],
	"accessors":[{
		"bufferView":0,
		"type":"SCALAR",
		"componentType":5126,
		"max":[10.0],
		"count":301,
		"byteOffset":0,
		"min":[0.0]
	},
	{
		"bufferView":0,
		"type":"VEC4",
		"componentType":5126,
		"max":[0.04120262339711189,
		0.0005307112005539238,
		0.04120262339711189,
		0.9991506934165955],
		"count":301,
		"byteOffset":1204,
		"min":[-0.013638361357152462,
		-0.9991506934165955,
		-0.03888007253408432,
		-0.9991506934165955]
	},
	{
		"bufferView":1,
		"type":"SCALAR",
		"componentType":5126,
		"max":[10.0],
		"count":301,
		"byteOffset":0,
		"min":[0.0]
	},
	{
		"bufferView":1,
		"type":"VEC3",
		"componentType":5126,
		"max":[0.9776570796966553,
		0.14642943441867829,
		0.8587676286697388],
		"count":301,
		"byteOffset":1204,
		"min":[0.7233576774597168,
		0.12179642170667649,
		-0.5204581618309021]
	},
	{
		"bufferView":2,
		"type":"SCALAR",
		"componentType":5123,
		"max":[1476],
		"count":7980,
		"byteOffset":0,
		"min":[0]
	},
	{
		"bufferView":3,
		"type":"VEC3",
		"componentType":5126,
		"max":[7.929800510406494,
		8.852219581604004,
		0.3810293674468994],
		"count":1477,
		"byteOffset":0,
		"min":[4.489743709564209,
		3.6425795555114748,
		-0.38518598675727847]
	},
	{
		"bufferView":3,
		"type":"VEC3",
		"componentType":5126,
		"max":[0.9995359778404236,
		0.9999814629554749,
		0.9999997615814209],
		"count":1477,
		"byteOffset":12,
		"min":[-0.9995359182357788,
		-0.9997732043266296,
		-0.9999997615814209]
	},
	{
		"bufferView":3,
		"type":"VEC2",
		"componentType":5126,
		"max":[1.0,
		1.0],
		"count":1477,
		"byteOffset":24,
		"min":[0.0,
		0.0]
	},
	{
		"bufferView":4,
		"type":"SCALAR",
		"componentType":5123,
		"max":[1874],
		"count":9984,
		"byteOffset":0,
		"min":[0]
	},
	{
		"bufferView":5,
		"type":"VEC3",
		"componentType":5126,
		"max":[5.5395026206970219,
		10.550779342651368,
		5.5395026206970219],
		"count":1875,
		"byteOffset":0,
		"min":[-5.5395026206970219,
		0.7049484252929688,
		-5.5395026206970219]
	},
	{
		"bufferView":5,
		"type":"VEC3",
		"componentType":5126,
		"max":[0.9993468523025513,
		0.9996286034584045,
		0.9993468523025513],
		"count":1875,
		"byteOffset":12,
		"min":[-0.9993468523025513,
		-0.9999983906745911,
		-0.9993468523025513]
	},
	{
		"bufferView":5,
		"type":"VEC2",
		"componentType":5126,
		"max":[1.0,
		1.0],
		"count":1875,
		"byteOffset":24,
		"min":[0.0,
		0.0]
	},
	{
		"bufferView":6,
		"type":"SCALAR",
		"componentType":5123,
		"max":[3161],
		"count":17664,
		"byteOffset":0,
		"min":[0]
	},
	{
		"bufferView":7,
		"type":"VEC3",
		"componentType":5126,
		"max":[5.475639820098877,
		0.7616393566131592,
		5.475639820098877],
		"count":3162,
		"byteOffset":0,
		"min":[-5.475639820098877,
		0.02464332804083824,
		-5.475639820098877]
	},
	{
		"bufferView":7,
		"type":"VEC3",
		"componentType":5126,
		"max":[0.9990423917770386,
		0.9999913573265076,
		0.9990423917770386],
		"count":3162,
		"byteOffset":12,
		"min":[-0.9990423917770386,
		-0.9999904632568359,
		-0.9990423917770386]
	},
	{
		"bufferView":7,
		"type":"VEC2",
		"componentType":5126,
		"max":[1.0,
		1.0],
		"count":3162,
		"byteOffset":24,
		"min":[0.0,
		0.0]
	},
	{
		"bufferView":8,
		"type":"SCALAR",
		"componentType":5126,
		"max":[10.0],
		"count":301,
		"byteOffset":0,
		"min":[0.0]
	},
	{
		"bufferView":8,
		"type":"VEC4",
		"componentType":5126,
		"max":[0.033600449562072757,
		0.9994284510612488,
		0.033600449562072757,
		0.9994284510612488],
		"count":301,
		"byteOffset":1204,
		"min":[-0.0067997463047504429,
		0.0037161698564887048,
		-0.03283260762691498,
		-0.9994125366210938]
	},
	{
		"bufferView":9,
		"type":"SCALAR",
		"componentType":5123,
		"max":[1476],
		"count":7980,
		"byteOffset":0,
		"min":[0]
	},
	{
		"bufferView":10,
		"type":"VEC3",
		"componentType":5126,
		"max":[7.929800510406494,
		8.852219581604004,
		0.3810293674468994],
		"count":1477,
		"byteOffset":0,
		"min":[4.489743709564209,
		3.6425795555114748,
		-0.38518598675727847]
	},
	{
		"bufferView":10,
		"type":"VEC3",
		"componentType":5126,
		"max":[0.9995359778404236,
		0.9999814629554749,
		0.9999997615814209],
		"count":1477,
		"byteOffset":12,
		"min":[-0.9995359182357788,
		-0.9997732043266296,
		-0.9999997615814209]
	},
	{
		"bufferView":10,
		"type":"VEC2",
		"componentType":5126,
		"max":[1.0,
		1.0],
		"count":1477,
		"byteOffset":24,
		"min":[0.0,
		0.0]
	},
	{
		"bufferView":11,
		"type":"SCALAR",
		"componentType":5123,
		"max":[1874],
		"count":9984,
		"byteOffset":0,
		"min":[0]
	},
	{
		"bufferView":12,
		"type":"VEC3",
		"componentType":5126,
		"max":[5.5395026206970219,
		10.550779342651368,
		5.5395026206970219],
		"count":1875,
		"byteOffset":0,
		"min":[-5.5395026206970219,
		0.7049484252929688,
		-5.5395026206970219]
	},
	{
		"bufferView":12,
		"type":"VEC3",
		"componentType":5126,
		"max":[0.9993468523025513,
		0.9996286034584045,
		0.9993468523025513],
		"count":1875,
		"byteOffset":12,
		"min":[-0.9993468523025513,
		-0.9999983906745911,
		-0.9993468523025513]
	},
	{
		"bufferView":12,
		"type":"VEC2",
		"componentType":5126,
		"max":[1.0,
		1.0],
		"count":1875,
		"byteOffset":24,
		"min":[0.0,
		0.0]
	},
	{
		"bufferView":13,
		"type":"SCALAR",
		"componentType":5123,
		"max":[3161],
		"count":17664,
		"byteOffset":0,
		"min":[0]
	},
	{
		"bufferView":14,
		"type":"VEC3",
		"componentType":5126,
		"max":[5.475639820098877,
		0.7616393566131592,
		5.475639820098877],
		"count":3162,
		"byteOffset":0,
		"min":[-5.475639820098877,
		0.02464332804083824,
		-5.475639820098877]
	},
	{
		"bufferView":14,
		"type":"VEC3",
		"componentType":5126,
		"max":[0.9990423917770386,
		0.9999913573265076,
		0.9990423917770386],
		"count":3162,
		"byteOffset":12,
		"min":[-0.9990423917770386,
		-0.9999904632568359,
		-0.9990423917770386]
	},
	{
		"bufferView":14,
		"type":"VEC2",
		"componentType":5126,
		"max":[1.0,
		1.0],
		"count":3162,
		"byteOffset":24,
		"min":[0.0,
		0.0]
	},
	{
		"bufferView":15,
		"type":"SCALAR",
		"componentType":5123,
		"max":[4359],
		"count":18960,
		"byteOffset":0,
		"min":[0]
	},
	{
		"bufferView":16,
		"type":"VEC3",
		"componentType":5126,
		"max":[24.573678970336915,
		22.541378021240236,
		14.311985969543457],
		"count":4360,
		"byteOffset":0,
		"min":[-21.46797752380371,
		-1.4210854715202005e-14,
		-14.311985969543457]
	},
	{
		"bufferView":16,
		"type":"VEC3",
		"componentType":5126,
		"max":[0.9985131025314331,
		0.999975860118866,
		0.9987750053405762],
		"count":4360,
		"byteOffset":12,
		"min":[-0.9997575283050537,
		-0.9999880194664002,
		-0.9990903735160828]
	}],
	"bufferViews":[{
		"byteLength":6020,
		"buffer":0,
		"byteOffset":0
	},
	{
		"byteLength":4816,
		"buffer":1,
		"byteOffset":0
	},
	{
		"byteLength":15960,
		"buffer":2,
		"byteOffset":0,
		"target":34963
	},
	{
		"byteLength":47264,
		"buffer":2,
		"byteOffset":15960,
		"target":34962,
		"byteStride":32
	},
	{
		"byteLength":19968,
		"buffer":3,
		"byteOffset":0,
		"target":34963
	},
	{
		"byteLength":60000,
		"buffer":3,
		"byteOffset":19968,
		"target":34962,
		"byteStride":32
	},
	{
		"byteLength":35328,
		"buffer":4,
		"byteOffset":0,
		"target":34963
	},
	{
		"byteLength":101184,
		"buffer":4,
		"byteOffset":35328,
		"target":34962,
		"byteStride":32
	},
	{
		"byteLength":6020,
		"buffer":5,
		"byteOffset":0
	},
	{
		"byteLength":15960,
		"buffer":6,
		"byteOffset":0,
		"target":34963
	},
	{
		"byteLength":47264,
		"buffer":6,
		"byteOffset":15960,
		"target":34962,
		"byteStride":32
	},
	{
		"byteLength":19968,
		"buffer":7,
		"byteOffset":0,
		"target":34963
	},
	{
		"byteLength":60000,
		"buffer":7,
		"byteOffset":19968,
		"target":34962,
		"byteStride":32
	},
	{
		"byteLength":35328,
		"buffer":8,
		"byteOffset":0,
		"target":34963
	},
	{
		"byteLength":101184,
		"buffer":8,
		"byteOffset":35328,
		"target":34962,
		"byteStride":32
	},
	{
		"byteLength":37920,
		"buffer":9,
		"byteOffset":0,
		"target":34963
	},
	{
		"byteLength":104640,
		"buffer":9,
		"byteOffset":37920,
		"target":34962,
		"byteStride":24
	}],
	"buffers":[{
		"uri":"data:application/octet-stream;base64,",
		"byteLength":6020
	},
	{
		"uri":"data:application/octet-stream;base64,",
		"byteLength":4816
	},
	{
		"uri":"data:application/octet-stream;base64,",
		"byteLength":63224
	},
	{
		"uri":"data:application/octet-stream;base64,",
		"byteLength":79968
	},
	{
		"uri":"data:application/octet-stream;base64,",
		"byteLength":136512
	},
	{
		"uri":"data:application/octet-stream;base64,",
		"byteLength":6020
	},
	{
		"uri":"data:application/octet-stream;base64,",
		"byteLength":63224
	},
	{
		"uri":"data:application/octet-stream;base64,",
		"byteLength":79968
	},
	{
		"uri":"data:application/octet-stream;base64,",
		"byteLength":136512
	},
	{
		"uri":"data:application/octet-stream;base64,",
		"byteLength":142560
	}],
	"materials":[{
		"pbrMetallicRoughness":{
			"baseColorFactor":[1.0,
			0.5833333333333334,
			0.0,
			1.0],
			"metallicFactor":1.0,
			"roughnessFactor":1.0
		},
		"emissiveFactor":[0.0,
		0.0,
		0.0],
		"alphaMode":"OPAQUE",
		"doubleSided":true,
		"name":"default"
	}],
	"animations":[{
		"samplers":[{
			"input":0,
			"interpolation":"LINEAR",
			"output":1
		},
		{
			"input":2,
			"interpolation":"LINEAR",
			"output":3
		},
		{
			"input":16,
			"interpolation":"LINEAR",
			"output":17
		}],
		"channels":[{
			"sampler":0,
			"target":{
				"node":0,
				"path":"rotation"
			}
		},
		{
			"sampler":1,
			"target":{
				"node":1,
				"path":"translation"
			}
		},
		{
			"sampler":2,
			"target":{
				"node":5,
				"path":"rotation"
			}
		}]
	}]
}