<svg overflow="visible" style="display: block;" viewBox="0 0 65.6815 32.8045" fill="none" xmlns="http://www.w3.org/2000/svg">
<g id="LUZ">
<path id="Vector" d="M59.1089 9.84128C59.1089 8.02955 57.6402 6.56086 55.8284 6.56086H49.244C47.4322 6.56086 45.9635 5.09216 45.9635 3.28043C45.9635 1.4687 47.4322 0 49.244 0H59.1207C62.7441 0 65.6815 2.9374 65.6815 6.56085V9.83538C65.6815 11.6504 64.2072 13.1217 62.3922 13.1217C60.5805 13.1217 59.1089 11.653 59.1089 9.84128ZM52.5362 16.4021C52.5362 14.5904 54.0108 13.1217 55.8225 13.1217C57.6343 13.1217 59.1089 14.5904 59.1089 16.4021C59.1089 18.2139 57.6343 19.6826 55.8225 19.6826C54.0108 19.6826 52.5362 18.2139 52.5362 16.4021ZM45.9635 22.9689C45.9635 21.1539 47.4378 19.6826 49.2528 19.6826C51.0646 19.6826 52.5362 21.1513 52.5362 22.963C52.5362 24.7747 54.0049 26.2434 55.8166 26.2434H62.4011C64.2128 26.2434 65.6815 27.7121 65.6815 29.5238C65.6815 31.3356 64.2128 32.8043 62.4011 32.8043H52.5244C48.9009 32.8043 45.9635 29.8669 45.9635 26.2434V22.9689Z" fill="var(--fill-0, black)"/>
<path id="Vector_2" d="M26.2712 22.9571C26.2712 24.7721 27.7425 26.2434 29.5575 26.2434C31.3725 26.2434 32.8438 24.7721 32.8438 22.9571V3.28633C32.8438 1.47134 34.3152 0 36.1302 0C37.9451 0 39.4165 1.47134 39.4165 3.28633V22.9453C39.4165 28.3902 35.0025 32.8043 29.5575 32.8043C24.1125 32.8043 19.6985 28.3903 19.6985 22.9453V3.28633C19.6985 1.47134 21.1698 0 22.9848 0C24.7998 0 26.2712 1.47134 26.2712 3.28633V22.9571Z" fill="var(--fill-0, black)"/>
<path id="Vector_3" d="M6.57267 22.9573C6.57267 24.7723 8.04696 26.2437 9.86196 26.2437C11.6737 26.2437 13.1453 27.7123 13.1453 29.5241C13.1453 31.3358 11.6766 32.8045 9.86491 32.8045H6.57267C2.94269 32.8045 4.21984e-07 29.8618 4.21984e-07 26.2318V3.28657C4.21984e-07 1.47158 1.47134 0.000232593 3.28633 0.000232593C5.10133 0.000232593 6.57267 1.47157 6.57267 3.28657V22.9573Z" fill="var(--fill-0, black)"/>
</g>
</svg>
