{
	"asset":{
		"version":"2.0",
		"generator":"Created using the official Cinema 4D glTF Exporter 1.000x284978"
	},
	"scenes":[{
		"nodes":[0,
		3,
		6,
		9]
	}],
	"nodes":[{
		"name":"ורוד.3",
		"translation":[0.0,
		-19.66307830810547,
		-3722.289794921875],
		"rotation":[0.0,
		0.0,
		0.0,
		-1.0],
		"scale":[1.0,
		1.0,
		1.0],
		"mesh":0,
		"children":[1,
		2]
	},
	{
		"name":"Cap 1",
		"translation":[58.79644012451172,
		540.1433715820313,
		1374.24267578125],
		"rotation":[0.0,
		-0.7071067690849304,
		0.0,
		-0.7071067690849304],
		"scale":[1.0,
		1.0,
		1.0],
		"mesh":1
	},
	{
		"name":"Cap 2",
		"translation":[58.79644012451172,
		540.1433715820313,
		1374.24267578125],
		"rotation":[0.0,
		-0.7071067690849304,
		0.0,
		-0.7071067690849304],
		"scale":[1.0,
		1.0,
		1.0],
		"mesh":2
	},
	{
		"name":"ורוד.2",
		"translation":[0.0,
		-19.66307830810547,
		-3722.289794921875],
		"rotation":[0.0,
		0.0,
		0.0,
		-1.0],
		"scale":[1.0,
		1.0,
		1.0],
		"mesh":3,
		"children":[4,
		5]
	},
	{
		"name":"Cap 1",
		"translation":[58.79644012451172,
		542.9263305664063,
		2047.8829345703126],
		"rotation":[0.0,
		-0.7071067690849304,
		0.0,
		-0.7071067690849304],
		"scale":[1.0,
		1.0,
		1.0],
		"mesh":4
	},
	{
		"name":"Cap 2",
		"translation":[58.79644012451172,
		542.9263305664063,
		2047.8829345703126],
		"rotation":[0.0,
		-0.7071067690849304,
		0.0,
		-0.7071067690849304],
		"scale":[1.0,
		1.0,
		1.0],
		"mesh":5
	},
	{
		"name":"ורוד.1",
		"translation":[0.0,
		-19.66307830810547,
		-3722.289794921875],
		"rotation":[0.0,
		0.0,
		0.0,
		-1.0],
		"scale":[1.0,
		1.0,
		1.0],
		"mesh":6,
		"children":[7,
		8]
	},
	{
		"name":"Cap 1",
		"translation":[58.79644012451172,
		540.1433715820313,
		2719.32763671875],
		"rotation":[0.0,
		-0.7071067690849304,
		0.0,
		-0.7071067690849304],
		"scale":[1.0,
		1.0,
		1.0],
		"mesh":7
	},
	{
		"name":"Cap 2",
		"translation":[58.79644012451172,
		540.1433715820313,
		2719.32763671875],
		"rotation":[0.0,
		-0.7071067690849304,
		0.0,
		-0.7071067690849304],
		"scale":[1.0,
		1.0,
		1.0],
		"mesh":8
	},
	{
		"name":"ורוד",
		"translation":[0.0,
		-19.66307830810547,
		-3722.289794921875],
		"rotation":[0.0,
		0.0,
		0.0,
		-1.0],
		"scale":[1.0,
		1.0,
		1.0],
		"mesh":9,
		"children":[10,
		11]
	},
	{
		"name":"Cap 1",
		"translation":[58.79644012451172,
		542.9263305664063,
		3409.777099609375],
		"rotation":[0.0,
		-0.7071067690849304,
		0.0,
		-0.7071067690849304],
		"scale":[1.0,
		1.0,
		1.0],
		"mesh":10
	},
	{
		"name":"Cap 2",
		"translation":[58.79644012451172,
		542.9263305664063,
		3409.777099609375],
		"rotation":[0.0,
		-0.7071067690849304,
		0.0,
		-0.7071067690849304],
		"scale":[1.0,
		1.0,
		1.0],
		"mesh":11
	}],
	"meshes":[{
		"primitives":[{
			"attributes":{
				"POSITION":1,
				"NORMAL":2,
				"TEXCOORD_0":3
			},
			"indices":0,
			"material":0
		}],
		"name":"ורוד.3"
	},
	{
		"primitives":[{
			"attributes":{
				"POSITION":5,
				"NORMAL":6,
				"TEXCOORD_0":7
			},
			"indices":4,
			"material":0
		}],
		"name":"Cap 1"
	},
	{
		"primitives":[{
			"attributes":{
				"POSITION":9,
				"NORMAL":10,
				"TEXCOORD_0":11
			},
			"indices":8,
			"material":0
		}],
		"name":"Cap 2"
	},
	{
		"primitives":[{
			"attributes":{
				"POSITION":13,
				"NORMAL":14,
				"TEXCOORD_0":15
			},
			"indices":12,
			"material":0
		}],
		"name":"ורוד.2"
	},
	{
		"primitives":[{
			"attributes":{
				"POSITION":17,
				"NORMAL":18,
				"TEXCOORD_0":19
			},
			"indices":16,
			"material":0
		}],
		"name":"Cap 1"
	},
	{
		"primitives":[{
			"attributes":{
				"POSITION":21,
				"NORMAL":22,
				"TEXCOORD_0":23
			},
			"indices":20,
			"material":0
		}],
		"name":"Cap 2"
	},
	{
		"primitives":[{
			"attributes":{
				"POSITION":25,
				"NORMAL":26,
				"TEXCOORD_0":27
			},
			"indices":24,
			"material":0
		}],
		"name":"ורוד.1"
	},
	{
		"primitives":[{
			"attributes":{
				"POSITION":29,
				"NORMAL":30,
				"TEXCOORD_0":31
			},
			"indices":28,
			"material":0
		}],
		"name":"Cap 1"
	},
	{
		"primitives":[{
			"attributes":{
				"POSITION":33,
				"NORMAL":34,
				"TEXCOORD_0":35
			},
			"indices":32,
			"material":0
		}],
		"name":"Cap 2"
	},
	{
		"primitives":[{
			"attributes":{
				"POSITION":37,
				"NORMAL":38,
				"TEXCOORD_0":39
			},
			"indices":36,
			"material":0
		}],
		"name":"ורוד"
	},
	{
		"primitives":[{
			"attributes":{
				"POSITION":41,
				"NORMAL":42,
				"TEXCOORD_0":43
			},
			"indices":40,
			"material":0
		}],
		"name":"Cap 1"
	},
	{
		"primitives":[{
			"attributes":{
				"POSITION":45,
				"NORMAL":46,
				"TEXCOORD_0":47
			},
			"indices":44,
			"material":0
		}],
		"name":"Cap 2"
	}],
	"accessors":[{
		"bufferView":0,
		"type":"SCALAR",
		"componentType":5123,
		"count":234,
		"byteOffset":0,
		"min":[0],
		"max":[155]
	},
	{
		"bufferView":1,
		"type":"VEC3",
		"componentType":5126,
		"count":156,
		"byteOffset":0,
		"min":[58.79644012451172,
		55.7142448425293,
		1121.916259765625],
		"max":[258.79644775390627,
		1024.572509765625,
		1626.569091796875]
	},
	{
		"bufferView":1,
		"type":"VEC3",
		"componentType":5126,
		"count":156,
		"byteOffset":12,
		"min":[0.0,
		-1.0,
		-1.0],
		"max":[0.0,
		1.0,
		1.0]
	},
	{
		"bufferView":1,
		"type":"VEC2",
		"componentType":5126,
		"count":156,
		"byteOffset":24,
		"min":[0.0,
		0.0],
		"max":[1.0,
		1.0]
	},
	{
		"bufferView":2,
		"type":"SCALAR",
		"componentType":5123,
		"count":117,
		"byteOffset":0,
		"min":[0],
		"max":[116]
	},
	{
		"bufferView":3,
		"type":"VEC3",
		"componentType":5126,
		"count":117,
		"byteOffset":0,
		"min":[-252.32638549804688,
		-484.42913818359377,
		-1.1723600063830164e-14],
		"max":[252.32638549804688,
		484.42913818359377,
		-4.708729845653067e-15]
	},
	{
		"bufferView":3,
		"type":"VEC3",
		"componentType":5126,
		"count":117,
		"byteOffset":12,
		"min":[-6.123228968969919e-17,
		-5.335773936945322e-16,
		-1.0],
		"max":[4.780633307875182e-16,
		8.294185000694531e-17,
		-1.0]
	},
	{
		"bufferView":3,
		"type":"VEC2",
		"componentType":5126,
		"count":117,
		"byteOffset":24,
		"min":[0.0,
		0.0],
		"max":[1.0,
		1.0]
	},
	{
		"bufferView":4,
		"type":"SCALAR",
		"componentType":5123,
		"count":117,
		"byteOffset":0,
		"min":[0],
		"max":[113]
	},
	{
		"bufferView":5,
		"type":"VEC3",
		"componentType":5126,
		"count":114,
		"byteOffset":0,
		"min":[-252.32638549804688,
		-484.42913818359377,
		200.0],
		"max":[252.32638549804688,
		484.42913818359377,
		200.0]
	},
	{
		"bufferView":5,
		"type":"VEC3",
		"componentType":5126,
		"count":114,
		"byteOffset":12,
		"min":[0.0,
		0.0,
		1.0],
		"max":[7.50423413315129e-17,
		0.0,
		1.0]
	},
	{
		"bufferView":5,
		"type":"VEC2",
		"componentType":5126,
		"count":114,
		"byteOffset":24,
		"min":[0.0,
		0.0],
		"max":[1.0,
		1.0]
	},
	{
		"bufferView":6,
		"type":"SCALAR",
		"componentType":5123,
		"count":198,
		"byteOffset":0,
		"min":[0],
		"max":[131]
	},
	{
		"bufferView":7,
		"type":"VEC3",
		"componentType":5126,
		"count":132,
		"byteOffset":0,
		"min":[58.79644012451172,
		54.63312530517578,
		1735.9254150390626],
		"max":[258.79644775390627,
		1031.219482421875,
		2359.84033203125]
	},
	{
		"bufferView":7,
		"type":"VEC3",
		"componentType":5126,
		"count":132,
		"byteOffset":12,
		"min":[0.0,
		-1.0,
		-1.0],
		"max":[0.0,
		1.0,
		1.0]
	},
	{
		"bufferView":7,
		"type":"VEC2",
		"componentType":5126,
		"count":132,
		"byteOffset":24,
		"min":[0.0,
		0.0],
		"max":[1.0,
		1.0]
	},
	{
		"bufferView":8,
		"type":"SCALAR",
		"componentType":5123,
		"count":93,
		"byteOffset":0,
		"min":[0],
		"max":[88]
	},
	{
		"bufferView":9,
		"type":"VEC3",
		"componentType":5126,
		"count":89,
		"byteOffset":0,
		"min":[-311.9574890136719,
		-488.293212890625,
		-5.667680832711604e-15],
		"max":[311.9574890136719,
		488.293212890625,
		9.15042493138769e-16]
	},
	{
		"bufferView":9,
		"type":"VEC3",
		"componentType":5126,
		"count":89,
		"byteOffset":12,
		"min":[-6.18891306530704e-17,
		-1.6253024363615166e-16,
		-1.0],
		"max":[5.74934465558493e-17,
		6.605970250966886e-17,
		-1.0]
	},
	{
		"bufferView":9,
		"type":"VEC2",
		"componentType":5126,
		"count":89,
		"byteOffset":24,
		"min":[0.0,
		0.0],
		"max":[0.8143444061279297,
		1.0]
	},
	{
		"bufferView":10,
		"type":"SCALAR",
		"componentType":5123,
		"count":93,
		"byteOffset":0,
		"min":[0],
		"max":[85]
	},
	{
		"bufferView":11,
		"type":"VEC3",
		"componentType":5126,
		"count":86,
		"byteOffset":0,
		"min":[-311.9574890136719,
		-488.293212890625,
		200.0],
		"max":[311.9574890136719,
		488.293212890625,
		200.0]
	},
	{
		"bufferView":11,
		"type":"VEC3",
		"componentType":5126,
		"count":86,
		"byteOffset":12,
		"min":[-2.279940717023169e-17,
		0.0,
		1.0],
		"max":[0.0,
		7.294057465668917e-17,
		1.0]
	},
	{
		"bufferView":11,
		"type":"VEC2",
		"componentType":5126,
		"count":86,
		"byteOffset":24,
		"min":[0.0,
		0.0],
		"max":[0.8143444061279297,
		1.0]
	},
	{
		"bufferView":12,
		"type":"SCALAR",
		"componentType":5123,
		"count":234,
		"byteOffset":0,
		"min":[0],
		"max":[155]
	},
	{
		"bufferView":13,
		"type":"VEC3",
		"componentType":5126,
		"count":156,
		"byteOffset":0,
		"min":[58.79644012451172,
		55.7142448425293,
		2467.001220703125],
		"max":[258.79644775390627,
		1024.572509765625,
		2971.654052734375]
	},
	{
		"bufferView":13,
		"type":"VEC3",
		"componentType":5126,
		"count":156,
		"byteOffset":12,
		"min":[0.0,
		-1.0,
		-1.0],
		"max":[0.0,
		1.0,
		1.0]
	},
	{
		"bufferView":13,
		"type":"VEC2",
		"componentType":5126,
		"count":156,
		"byteOffset":24,
		"min":[0.0,
		0.0],
		"max":[1.0,
		1.0]
	},
	{
		"bufferView":14,
		"type":"SCALAR",
		"componentType":5123,
		"count":117,
		"byteOffset":0,
		"min":[0],
		"max":[116]
	},
	{
		"bufferView":15,
		"type":"VEC3",
		"componentType":5126,
		"count":117,
		"byteOffset":0,
		"min":[-252.32638549804688,
		-484.42913818359377,
		6.690251617405465e-15],
		"max":[252.32638549804688,
		484.42913818359377,
		1.3705121835582562e-14]
	},
	{
		"bufferView":15,
		"type":"VEC3",
		"componentType":5126,
		"count":117,
		"byteOffset":12,
		"min":[-6.123228968969919e-17,
		-5.335715174034606e-16,
		-1.0],
		"max":[4.780586721063083e-16,
		8.294183677205551e-17,
		-1.0]
	},
	{
		"bufferView":15,
		"type":"VEC2",
		"componentType":5126,
		"count":117,
		"byteOffset":24,
		"min":[0.0,
		0.0],
		"max":[1.0,
		1.0]
	},
	{
		"bufferView":16,
		"type":"SCALAR",
		"componentType":5123,
		"count":117,
		"byteOffset":0,
		"min":[0],
		"max":[113]
	},
	{
		"bufferView":17,
		"type":"VEC3",
		"componentType":5126,
		"count":114,
		"byteOffset":0,
		"min":[-252.32638549804688,
		-484.42913818359377,
		200.0],
		"max":[252.32638549804688,
		484.42913818359377,
		200.0]
	},
	{
		"bufferView":17,
		"type":"VEC3",
		"componentType":5126,
		"count":114,
		"byteOffset":12,
		"min":[0.0,
		0.0,
		1.0],
		"max":[0.0,
		0.0,
		1.0]
	},
	{
		"bufferView":17,
		"type":"VEC2",
		"componentType":5126,
		"count":114,
		"byteOffset":24,
		"min":[0.0,
		0.0],
		"max":[1.0,
		1.0]
	},
	{
		"bufferView":18,
		"type":"SCALAR",
		"componentType":5123,
		"count":198,
		"byteOffset":0,
		"min":[0],
		"max":[131]
	},
	{
		"bufferView":19,
		"type":"VEC3",
		"componentType":5126,
		"count":132,
		"byteOffset":0,
		"min":[58.79644012451172,
		54.63312530517578,
		3097.819580078125],
		"max":[258.79644775390627,
		1031.219482421875,
		3721.73486328125]
	},
	{
		"bufferView":19,
		"type":"VEC3",
		"componentType":5126,
		"count":132,
		"byteOffset":12,
		"min":[0.0,
		-1.0,
		-1.0],
		"max":[0.0,
		1.0,
		1.0]
	},
	{
		"bufferView":19,
		"type":"VEC2",
		"componentType":5126,
		"count":132,
		"byteOffset":24,
		"min":[0.0,
		0.0],
		"max":[1.0,
		1.0]
	},
	{
		"bufferView":20,
		"type":"SCALAR",
		"componentType":5123,
		"count":93,
		"byteOffset":0,
		"min":[0],
		"max":[88]
	},
	{
		"bufferView":21,
		"type":"VEC3",
		"componentType":5126,
		"count":89,
		"byteOffset":0,
		"min":[-311.9576110839844,
		-488.293212890625,
		-4.354172865360731e-16],
		"max":[311.9576110839844,
		488.293212890625,
		6.1473060393143e-15]
	},
	{
		"bufferView":21,
		"type":"VEC3",
		"componentType":5126,
		"count":89,
		"byteOffset":12,
		"min":[-6.18891108007357e-17,
		-1.6253024363615166e-16,
		-1.0],
		"max":[5.749354581752281e-17,
		6.605968927477906e-17,
		-1.0]
	},
	{
		"bufferView":21,
		"type":"VEC2",
		"componentType":5126,
		"count":89,
		"byteOffset":24,
		"min":[0.0,
		0.0],
		"max":[0.8143444061279297,
		1.0]
	},
	{
		"bufferView":22,
		"type":"SCALAR",
		"componentType":5123,
		"count":93,
		"byteOffset":0,
		"min":[0],
		"max":[85]
	},
	{
		"bufferView":23,
		"type":"VEC3",
		"componentType":5126,
		"count":86,
		"byteOffset":0,
		"min":[-311.9576110839844,
		-488.293212890625,
		200.0],
		"max":[311.9576110839844,
		488.293212890625,
		200.0]
	},
	{
		"bufferView":23,
		"type":"VEC3",
		"componentType":5126,
		"count":86,
		"byteOffset":12,
		"min":[-2.2799398898425566e-17,
		0.0,
		1.0],
		"max":[0.0,
		7.294059450902387e-17,
		1.0]
	},
	{
		"bufferView":23,
		"type":"VEC2",
		"componentType":5126,
		"count":86,
		"byteOffset":24,
		"min":[0.0,
		0.0],
		"max":[0.8143444061279297,
		1.0]
	}],
	"bufferViews":[{
		"buffer":0,
		"byteOffset":0,
		"byteLength":468,
		"target":34963
	},
	{
		"buffer":0,
		"byteOffset":468,
		"byteLength":4992,
		"target":34962,
		"byteStride":32
	},
	{
		"buffer":1,
		"byteOffset":0,
		"byteLength":234,
		"target":34963
	},
	{
		"buffer":1,
		"byteOffset":236,
		"byteLength":3744,
		"target":34962,
		"byteStride":32
	},
	{
		"buffer":2,
		"byteOffset":0,
		"byteLength":234,
		"target":34963
	},
	{
		"buffer":2,
		"byteOffset":236,
		"byteLength":3648,
		"target":34962,
		"byteStride":32
	},
	{
		"buffer":3,
		"byteOffset":0,
		"byteLength":396,
		"target":34963
	},
	{
		"buffer":3,
		"byteOffset":396,
		"byteLength":4224,
		"target":34962,
		"byteStride":32
	},
	{
		"buffer":4,
		"byteOffset":0,
		"byteLength":186,
		"target":34963
	},
	{
		"buffer":4,
		"byteOffset":188,
		"byteLength":2848,
		"target":34962,
		"byteStride":32
	},
	{
		"buffer":5,
		"byteOffset":0,
		"byteLength":186,
		"target":34963
	},
	{
		"buffer":5,
		"byteOffset":188,
		"byteLength":2752,
		"target":34962,
		"byteStride":32
	},
	{
		"buffer":6,
		"byteOffset":0,
		"byteLength":468,
		"target":34963
	},
	{
		"buffer":6,
		"byteOffset":468,
		"byteLength":4992,
		"target":34962,
		"byteStride":32
	},
	{
		"buffer":7,
		"byteOffset":0,
		"byteLength":234,
		"target":34963
	},
	{
		"buffer":7,
		"byteOffset":236,
		"byteLength":3744,
		"target":34962,
		"byteStride":32
	},
	{
		"buffer":8,
		"byteOffset":0,
		"byteLength":234,
		"target":34963
	},
	{
		"buffer":8,
		"byteOffset":236,
		"byteLength":3648,
		"target":34962,
		"byteStride":32
	},
	{
		"buffer":9,
		"byteOffset":0,
		"byteLength":396,
		"target":34963
	},
	{
		"buffer":9,
		"byteOffset":396,
		"byteLength":4224,
		"target":34962,
		"byteStride":32
	},
	{
		"buffer":10,
		"byteOffset":0,
		"byteLength":186,
		"target":34963
	},
	{
		"buffer":10,
		"byteOffset":188,
		"byteLength":2848,
		"target":34962,
		"byteStride":32
	},
	{
		"buffer":11,
		"byteOffset":0,
		"byteLength":186,
		"target":34963
	},
	{
		"buffer":11,
		"byteOffset":188,
		"byteLength":2752,
		"target":34962,
		"byteStride":32
	}],
	"buffers":[{
		"uri":"data:application/octet-stream;base64,",
		"byteLength":5460
	},
	{
		"uri":"data:application/octet-stream;base64,",
		"byteLength":3980
	},
	{
		"uri":"data:application/octet-stream;base64,",
		"byteLength":3884
	},
	{
		"uri":"data:application/octet-stream;base64,",
		"byteLength":4620
	},
	{
		"uri":"data:application/octet-stream;base64,",
		"byteLength":3036
	},
	{
		"uri":"data:application/octet-stream;base64,",
		"byteLength":2940
	},
	{
		"uri":"data:application/octet-stream;base64,",
		"byteLength":5460
	},
	{
		"uri":"data:application/octet-stream;base64,",
		"byteLength":3980
	},
	{
		"uri":"data:application/octet-stream;base64,",
		"byteLength":3884
	},
	{
		"uri":"data:application/octet-stream;base64,",
		"byteLength":4620
	},
	{
		"uri":"data:application/octet-stream;base64,",
		"byteLength":3036
	},
	{
		"uri":"data:application/octet-stream;base64,",
		"byteLength":2940
	}],
	"materials":[{
		"pbrMetallicRoughness":{
			"baseColorFactor":[1.0,
			0.0,
			0.7833333333333323,
			1.0],
			"metallicFactor":1.0,
			"roughnessFactor":1.0
		},
		"emissiveFactor":[0.0,
		0.0,
		0.0],
		"alphaMode":"OPAQUE",
		"doubleSided":true,
		"name":"Mat"
	}]
}