{
	"asset":{
		"version":"2.0",
		"generator":"Created using the official Cinema 4D glTF Exporter 1.000x284978"
	},
	"scenes":[{
		"nodes":[0]
	}],
	"accessors":[{
		"bufferView":0,
		"type":"SCALAR",
		"componentType":5123,
		"max":[15],
		"count":24,
		"byteOffset":0,
		"min":[0]
	},
	{
		"bufferView":1,
		"type":"VEC3",
		"componentType":5126,
		"max":[100.0,
		294.9338073730469,
		47.50056457519531],
		"count":16,
		"byteOffset":0,
		"min":[0.0,
		0.0,
		-48.99178695678711]
	},
	{
		"bufferView":1,
		"type":"VEC3",
		"componentType":5126,
		"max":[0.0,
		1.0,
		1.0],
		"count":16,
		"byteOffset":12,
		"min":[0.0,
		-1.0,
		-1.0]
	},
	{
		"bufferView":1,
		"type":"VEC2",
		"componentType":5126,
		"max":[0.699999988079071,
		4.0],
		"count":16,
		"byteOffset":24,
		"min":[-0.30000001192092898,
		3.0]
	},
	{
		"bufferView":2,
		"type":"SCALAR",
		"componentType":5123,
		"max":[5],
		"count":6,
		"byteOffset":0,
		"min":[0]
	},
	{
		"bufferView":3,
		"type":"VEC3",
		"componentType":5126,
		"max":[0.0,
		294.9338073730469,
		1283.4931640625],
		"count":6,
		"byteOffset":0,
		"min":[0.0,
		0.0,
		1187.000732421875]
	},
	{
		"bufferView":3,
		"type":"VEC3",
		"componentType":5126,
		"max":[-1.0,
		0.0,
		0.0],
		"count":6,
		"byteOffset":12,
		"min":[-1.0,
		0.0,
		0.0]
	},
	{
		"bufferView":3,
		"type":"VEC2",
		"componentType":5126,
		"max":[0.20000022649765016,
		4.0],
		"count":6,
		"byteOffset":24,
		"min":[-0.30000001192092898,
		3.0]
	},
	{
		"bufferView":4,
		"type":"SCALAR",
		"componentType":5123,
		"max":[5],
		"count":6,
		"byteOffset":0,
		"min":[0]
	},
	{
		"bufferView":5,
		"type":"VEC3",
		"componentType":5126,
		"max":[100.0,
		294.9338073730469,
		1283.4931640625],
		"count":6,
		"byteOffset":0,
		"min":[100.0,
		0.0,
		1187.000732421875]
	},
	{
		"bufferView":5,
		"type":"VEC3",
		"componentType":5126,
		"max":[1.0,
		0.0,
		0.0],
		"count":6,
		"byteOffset":12,
		"min":[1.0,
		0.0,
		0.0]
	},
	{
		"bufferView":5,
		"type":"VEC2",
		"componentType":5126,
		"max":[0.20000022649765016,
		4.0],
		"count":6,
		"byteOffset":24,
		"min":[-0.30000001192092898,
		3.0]
	}],
	"nodes":[{
		"children":[1],
		"name":"אמבטיה מבוימת"
	},
	{
		"children":[2,
		3],
		"name":"י",
		"rotation":[0.0,
		0.0,
		0.0,
		-1.0],
		"translation":[0.0,
		0.0,
		1393.893310546875],
		"scale":[1.0,
		1.0,
		1.0],
		"mesh":0
	},
	{
		"name":"Cap 1",
		"rotation":[0.0,
		0.0,
		0.0,
		-1.0],
		"translation":[0.0,
		0.0,
		-1235.9925537109376],
		"scale":[1.0,
		1.0,
		1.0],
		"mesh":1
	},
	{
		"name":"Cap 2",
		"rotation":[0.0,
		0.0,
		0.0,
		-1.0],
		"translation":[0.0,
		0.0,
		-1235.9925537109376],
		"scale":[1.0,
		1.0,
		1.0],
		"mesh":2
	}],
	"meshes":[{
		"name":"י",
		"primitives":[{
			"attributes":{
				"POSITION":1,
				"NORMAL":2,
				"TEXCOORD_0":3
			},
			"indices":0,
			"material":0
		}]
	},
	{
		"name":"Cap 1",
		"primitives":[{
			"attributes":{
				"POSITION":5,
				"NORMAL":6,
				"TEXCOORD_0":7
			},
			"indices":4,
			"material":0
		}]
	},
	{
		"name":"Cap 2",
		"primitives":[{
			"attributes":{
				"POSITION":9,
				"NORMAL":10,
				"TEXCOORD_0":11
			},
			"indices":8,
			"material":0
		}]
	}],
	"bufferViews":[{
		"buffer":0,
		"byteOffset":0,
		"byteLength":48,
		"target":34963
	},
	{
		"buffer":0,
		"byteOffset":48,
		"byteLength":512,
		"target":34962,
		"byteStride":32
	},
	{
		"buffer":1,
		"byteOffset":0,
		"byteLength":12,
		"target":34963
	},
	{
		"buffer":1,
		"byteOffset":12,
		"byteLength":192,
		"target":34962,
		"byteStride":32
	},
	{
		"buffer":2,
		"byteOffset":0,
		"byteLength":12,
		"target":34963
	},
	{
		"buffer":2,
		"byteOffset":12,
		"byteLength":192,
		"target":34962,
		"byteStride":32
	}],
	"buffers":[{
		"uri":"data:application/octet-stream;base64,",
		"byteLength":560
	},
	{
		"uri":"data:application/octet-stream;base64,",
		"byteLength":204
	},
	{
		"uri":"data:application/octet-stream;base64,",
		"byteLength":204
	}],
	"materials":[{
		"pbrMetallicRoughness":{
			"baseColorFactor":[0.8,
			0.8,
			0.8,
			1.0],
			"metallicFactor":0.13,
			"roughnessFactor":0.46
		},
		"emissiveFactor":[0.0,
		0.0,
		0.0],
		"alphaMode":"OPAQUE",
		"name":"Mat.4",
		"doubleSided":false
	}]
}