{
	"asset":{
		"version":"2.0",
		"generator":"Created using the official Cinema 4D glTF Exporter 1.000x284978"
	},
	"scenes":[{
		"nodes":[0,
		1]
	}],
	"nodes":[{
		"name":"Cube.1",
		"translation":[0.0,
		0.0,
		0.0],
		"rotation":[0.0,
		-0.7071067690849304,
		0.0,
		-0.7071067690849304],
		"scale":[1.0,
		1.0,
		1.0],
		"mesh":0
	},
	{
		"name":"Cube",
		"translation":[0.0,
		0.0,
		0.0],
		"rotation":[0.0,
		0.0,
		0.0,
		-1.0],
		"scale":[1.0,
		1.0,
		1.0],
		"mesh":1
	}],
	"meshes":[{
		"name":"Cube.1",
		"primitives":[{
			"attributes":{
				"POSITION":1,
				"NORMAL":2,
				"TEXCOORD_0":3
			},
			"indices":0,
			"material":0
		}]
	},
	{
		"name":"Cube",
		"primitives":[{
			"attributes":{
				"POSITION":5,
				"NORMAL":6,
				"TEXCOORD_0":7
			},
			"indices":4,
			"material":0
		}]
	}],
	"accessors":[{
		"type":"SCALAR",
		"bufferView":0,
		"componentType":5123,
		"count":36,
		"byteOffset":0,
		"min":[0],
		"max":[23]
	},
	{
		"type":"VEC3",
		"bufferView":1,
		"componentType":5126,
		"count":24,
		"byteOffset":0,
		"min":[-50.0,
		-2.0,
		-5.0],
		"max":[50.0,
		2.0,
		5.0]
	},
	{
		"type":"VEC3",
		"bufferView":1,
		"componentType":5126,
		"count":24,
		"byteOffset":12,
		"min":[-1.0,
		-1.0,
		-1.0],
		"max":[1.0,
		1.0,
		1.0]
	},
	{
		"type":"VEC2",
		"bufferView":1,
		"componentType":5126,
		"count":24,
		"byteOffset":24,
		"min":[0.0,
		0.0],
		"max":[1.0,
		1.0]
	},
	{
		"type":"SCALAR",
		"bufferView":2,
		"componentType":5123,
		"count":36,
		"byteOffset":0,
		"min":[0],
		"max":[23]
	},
	{
		"type":"VEC3",
		"bufferView":3,
		"componentType":5126,
		"count":24,
		"byteOffset":0,
		"min":[-50.0,
		-2.0,
		-5.0],
		"max":[50.0,
		2.0,
		5.0]
	},
	{
		"type":"VEC3",
		"bufferView":3,
		"componentType":5126,
		"count":24,
		"byteOffset":12,
		"min":[-1.0,
		-1.0,
		-1.0],
		"max":[1.0,
		1.0,
		1.0]
	},
	{
		"type":"VEC2",
		"bufferView":3,
		"componentType":5126,
		"count":24,
		"byteOffset":24,
		"min":[0.0,
		0.0],
		"max":[1.0,
		1.0]
	}],
	"bufferViews":[{
		"buffer":0,
		"byteOffset":0,
		"byteLength":72,
		"target":34963
	},
	{
		"buffer":0,
		"byteOffset":72,
		"byteLength":768,
		"target":34962,
		"byteStride":32
	},
	{
		"buffer":1,
		"byteOffset":0,
		"byteLength":72,
		"target":34963
	},
	{
		"buffer":1,
		"byteOffset":72,
		"byteLength":768,
		"target":34962,
		"byteStride":32
	}],
	"buffers":[{
		"uri":"data:application/octet-stream;base64,",
		"byteLength":840
	},
	{
		"uri":"data:application/octet-stream;base64,",
		"byteLength":840
	}],
	"materials":[{
		"pbrMetallicRoughness":{
			"baseColorFactor":[0.0,
			0.0,
			0.0,
			1.0],
			"metallicFactor":0.0,
			"roughnessFactor":0.5
		},
		"emissiveFactor":[0.0,
		0.0,
		0.0],
		"alphaMode":"OPAQUE",
		"doubleSided":true,
		"name":"Mat"
	}]
}